<svg xmlns="http://www.w3.org/2000/svg" style="display:none"><symbol id="btn" viewbox="0 0 612.009 612.01">
    <path d="M354.252 237.4H277.81v-76.576c0-10.56-8.551-19.149-19.111-19.149s-19.11 8.57-19.11 19.149V237.4h-76.424c-10.56 0-19.11 3.482-19.11 14.061s8.551 24.237 19.11 24.237h76.443v76.558c0 10.579 8.551 19.148 19.11 19.148 10.56 0 19.111-8.569 19.111-19.148v-76.558h76.443c10.56 0 19.11-8.57 19.11-19.149-.019-10.578-8.57-19.149-19.13-19.149zm251.94 341.314L448.18 423.228c41.377-44.955 66.801-104.41 66.801-169.834C514.981 113.439 399.705 0 257.494 0S.007 113.439.007 253.393s115.276 253.393 257.487 253.393c61.445 0 117.801-21.253 162.068-56.586l158.624 156.099c7.729 7.614 20.277 7.614 28.006 0a19.276 19.276 0 0 0 0-27.585zM257.494 467.8c-120.326 0-217.869-95.993-217.869-214.407S137.168 38.986 257.494 38.986c120.327 0 217.869 95.993 217.869 214.407S377.821 467.8 257.494 467.8z"/>
</symbol><symbol id="calendar-3" viewbox="0 0 59 59">
    <path d="M51.179 40.429l-5.596 8.04-3.949-3.241a.999.999 0 1 0-1.268 1.545l4.786 3.929a.998.998 0 0 0 1.455-.201l6.214-8.929a1 1 0 0 0-1.642-1.143z"/>
    <path d="M52 34.479V5a1 1 0 0 0-1-1h-5V1a1 1 0 0 0-1-1h-7a1 1 0 0 0-1 1v3H15V1a1 1 0 0 0-1-1H7a1 1 0 0 0-1 1v3H1a1 1 0 0 0-1 1v51a1 1 0 0 0 1 1h38.104c2.002 1.26 4.362 2 6.896 2 7.168 0 13-5.832 13-13 0-5.003-2.846-9.349-7-11.521zM39 2h5v6h-5V2zM8 2h5v6H8V2zM2 6h4v3a1 1 0 0 0 1 1h7a1 1 0 0 0 1-1V6h22v3a1 1 0 0 0 1 1h7a1 1 0 0 0 1-1V6h4v8H2V6zm0 49V16h48v17.636c-.196-.063-.396-.114-.596-.169-.185-.051-.37-.101-.557-.144a13.038 13.038 0 0 0-1.246-.215c-.137-.017-.273-.036-.411-.049A13.448 13.448 0 0 0 46 33a12.7 12.7 0 0 0-1 .051V21H7v29h26.636c.029.088.065.173.095.26.084.243.167.487.266.724.055.133.12.26.18.39.115.254.232.507.363.753.058.107.123.21.184.316.148.259.298.515.464.763.061.091.128.177.191.267.176.25.356.498.551.736.072.088.15.17.224.256.155.18.303.364.468.536H2zm38.313-20.672c-.108.052-.218.101-.324.156-.188.098-.37.206-.552.313-.159.093-.318.188-.473.287a13.383 13.383 0 0 0-.97.694c-.134.105-.268.209-.397.32-.175.148-.342.305-.509.462-.115.109-.234.214-.345.326-.181.184-.352.379-.522.574-.072.083-.151.159-.222.244V32h7v1.362l-.049.014a12.91 12.91 0 0 0-2.637.952zm-6.743 7.871c-.035.115-.058.233-.09.349-.08.29-.162.58-.222.879-.047.231-.073.467-.107.701-.027.189-.065.375-.085.567a12.183 12.183 0 0 0-.013 2.397c.006.067.006.135.013.202.016.162.048.319.07.479v.001c.011.076.015.151.027.226H27v-7h7v.007c-.01.024-.016.049-.026.073-.15.365-.287.738-.404 1.119zM9 41h7v7H9v-7zm0-9h7v7H9v-7zm34-2h-7v-7h7v7zm-9 0h-7v-7h7v7zm0 9h-7v-7h7v7zm-16-7h7v7h-7v-7zm7-2h-7v-7h7v7zm-9 0H9v-7h7v7zm2 11h7v7h-7v-7zm28 16a10.932 10.932 0 0 1-7.079-2.594c-.108-.092-.21-.19-.314-.286a11.053 11.053 0 0 1-.911-.929 10.849 10.849 0 0 1-.468-.583c-.096-.127-.195-.25-.286-.381a11.15 11.15 0 0 1-.615-.993c-.043-.08-.077-.164-.118-.245a11.14 11.14 0 0 1-.403-.874c-.052-.13-.097-.263-.145-.395-.094-.262-.18-.528-.255-.797l-.048-.186c-.113-.44-.196-.877-.255-1.312l-.014-.094a10.403 10.403 0 0 1-.031-2.459c.003-.031.011-.061.014-.092.038-.341.088-.681.158-1.016.007-.032.018-.063.025-.095.072-.332.157-.662.26-.988.012-.038.029-.075.041-.113a10.902 10.902 0 0 1 .754-1.766l.099-.171c.04-.072.087-.14.129-.211.174-.293.36-.577.557-.851.049-.068.1-.135.151-.202.18-.238.37-.467.568-.688.069-.077.138-.155.209-.23.196-.208.402-.405.613-.596.075-.068.148-.138.225-.204.248-.212.505-.411.77-.6.042-.03.082-.063.124-.093a10.933 10.933 0 0 1 4.412-1.79l.021-.003A10.92 10.92 0 0 1 46 35c.389 0 .776.021 1.16.063.06.006.118.02.178.027.328.041.655.09.978.16.04.009.078.021.117.03.344.079.685.171 1.022.284l.068.025c.345.118.685.253 1.022.406C54.347 37.729 57 41.557 57 46c0 6.065-4.935 11-11 11z"/>
</symbol><symbol id="hospital" viewbox="0 0 512 512">
    <path d="M93.867 51.2H59.733a8.53 8.53 0 0 0-8.533 8.533v51.2a8.53 8.53 0 0 0 8.533 8.533h34.133a8.53 8.53 0 0 0 8.533-8.533v-51.2a8.53 8.53 0 0 0-8.532-8.533zm-8.534 51.2H68.267V68.267h17.067V102.4zM230.4 221.867a8.53 8.53 0 0 0-8.533 8.533v68.267c0 4.71 3.814 8.533 8.533 8.533s8.533-3.823 8.533-8.533v-25.6h34.133v25.6a8.53 8.53 0 0 0 8.533 8.533 8.53 8.53 0 0 0 8.533-8.533V230.4a8.53 8.53 0 0 0-8.533-8.533 8.53 8.53 0 0 0-8.533 8.533V256h-34.133v-25.6a8.53 8.53 0 0 0-8.533-8.533zM366.933 477.867H128a8.53 8.53 0 0 0-8.533 8.533v17.067c0 4.71 3.814 8.533 8.533 8.533s8.533-3.823 8.533-8.533v-8.533h230.4c4.719 0 8.533-3.823 8.533-8.533s-3.814-8.534-8.533-8.534zM93.867 256H59.733a8.53 8.53 0 0 0-8.533 8.533V281.6c0 4.71 3.814 8.533 8.533 8.533s8.533-3.823 8.533-8.533v-8.533h17.067v42.667a8.53 8.53 0 0 0 8.533 8.533 8.53 8.53 0 0 0 8.533-8.533v-51.2A8.53 8.53 0 0 0 93.867 256zM42.667 307.2C.495 307.2 0 417.024 0 418.133c0 20.608 14.686 37.837 34.133 41.805v43.529c0 4.71 3.814 8.533 8.533 8.533s8.533-3.823 8.533-8.533v-43.529c19.447-3.968 34.133-21.197 34.133-41.805.001-1.109-.494-110.933-42.665-110.933zm0 136.533c-14.114 0-25.6-11.486-25.6-25.6 0-42.513 11.418-93.867 25.6-93.867 14.182 0 25.6 51.354 25.6 93.867 0 14.114-11.486 25.6-25.6 25.6zM93.867 153.6H59.733a8.53 8.53 0 0 0-8.533 8.533v51.2a8.53 8.53 0 0 0 8.533 8.533h34.133a8.53 8.53 0 0 0 8.533-8.533v-51.2a8.53 8.53 0 0 0-8.532-8.533zm-8.534 51.2H68.267v-34.133h17.067V204.8zM213.333 119.467a8.53 8.53 0 0 0 8.533-8.533v-51.2a8.53 8.53 0 0 0-8.533-8.533H179.2a8.53 8.53 0 0 0-8.533 8.533v51.2a8.53 8.53 0 0 0 8.533 8.533h34.133zm-25.6-51.2H204.8V102.4h-17.067V68.267zM170.667 366.933a8.53 8.53 0 0 0 8.533 8.533h25.6v76.8a8.53 8.53 0 0 0 8.533 8.533 8.53 8.53 0 0 0 8.533-8.533v-76.8h68.267v76.8c0 4.71 3.814 8.533 8.533 8.533s8.533-3.823 8.533-8.533v-76.8h25.6c4.719 0 8.533-3.823 8.533-8.533s-3.814-8.533-8.533-8.533H179.2a8.53 8.53 0 0 0-8.533 8.533zM409.6 315.733a8.53 8.53 0 0 0 8.533 8.533h34.133a8.53 8.53 0 0 0 8.533-8.533v-51.2a8.53 8.53 0 0 0-8.533-8.533h-34.133a8.53 8.53 0 0 0-8.533 8.533v51.2zm17.067-42.666h17.067V307.2h-17.067v-34.133zM409.6 418.133a8.53 8.53 0 0 0 8.533 8.533h34.133a8.53 8.53 0 0 0 8.533-8.533v-51.2a8.53 8.53 0 0 0-8.533-8.533h-34.133a8.53 8.53 0 0 0-8.533 8.533v51.2zm17.067-42.666h17.067V409.6h-17.067v-34.133zM409.6 213.333a8.53 8.53 0 0 0 8.533 8.533h34.133a8.53 8.53 0 0 0 8.533-8.533v-51.2a8.53 8.53 0 0 0-8.533-8.533h-34.133a8.53 8.53 0 0 0-8.533 8.533v51.2zm17.067-42.666h17.067V204.8h-17.067v-34.133zM418.133 119.467h34.133a8.53 8.53 0 0 0 8.533-8.533v-51.2a8.53 8.53 0 0 0-8.533-8.533h-34.133a8.53 8.53 0 0 0-8.533 8.533v51.2a8.53 8.53 0 0 0 8.533 8.533zm8.534-51.2h17.067V102.4h-17.067V68.267z"/>
    <path d="M503.467 0H8.533A8.53 8.53 0 0 0 0 8.533V281.6c0 4.71 3.814 8.533 8.533 8.533s8.533-3.823 8.533-8.533V17.067h477.867V462.37c-2.679-.956-5.521-1.57-8.533-1.57-1.476 0-2.944.128-4.386.384-5.879-10.607-17.101-17.451-29.747-17.451s-23.868 6.844-29.747 17.451a25.094 25.094 0 0 0-4.386-.384c-14.114 0-25.6 11.486-25.6 25.6s11.486 25.6 25.6 25.6H486.4c14.114 0 25.6-11.486 25.6-25.6V8.533A8.53 8.53 0 0 0 503.467 0zM486.4 494.933h-68.267c-4.71 0-8.533-3.831-8.533-8.533s3.823-8.533 8.533-8.533c1.63 0 3.191.469 4.625 1.391a8.558 8.558 0 0 0 7.834.742 8.59 8.59 0 0 0 5.111-5.99c1.801-7.774 8.602-13.21 16.563-13.21 7.962 0 14.763 5.436 16.563 13.21a8.588 8.588 0 0 0 5.111 5.99 8.56 8.56 0 0 0 7.834-.742c5.555-3.584 13.158.811 13.158 7.142.001 4.702-3.822 8.533-8.532 8.533z"/>
    <path d="M249.941 412.075c-1.545 1.621-2.475 3.84-2.475 6.059 0 2.219.93 4.437 2.475 6.059 1.613 1.536 3.84 2.475 6.059 2.475 2.219 0 4.437-.939 6.059-2.475 1.536-1.621 2.475-3.84 2.475-6.059 0-2.219-.939-4.437-2.475-6.059-3.158-3.158-8.875-3.158-12.118 0z"/>
    <path d="M366.933 153.6H145.067a8.53 8.53 0 0 0-8.533 8.533v290.133c0 4.71 3.814 8.533 8.533 8.533s8.533-3.823 8.533-8.533v-281.6h204.8v281.6c0 4.71 3.814 8.533 8.533 8.533s8.533-3.823 8.533-8.533V162.133a8.53 8.53 0 0 0-8.533-8.533zM332.8 119.467a8.53 8.53 0 0 0 8.533-8.533v-51.2a8.53 8.53 0 0 0-8.533-8.533h-34.133a8.53 8.53 0 0 0-8.533 8.533v51.2a8.53 8.53 0 0 0 8.533 8.533H332.8zm-25.6-51.2h17.067V102.4H307.2V68.267z"/>
</symbol><symbol id="i--map" viewbox="0 0 470 470">
    <path d="M470 310.715V159.176a7.5 7.5 0 0 0-5.366-7.19l-70.113-20.802c5.427-13.275 8.81-26.451 8.81-38.684 0-51.004-41.495-92.5-92.5-92.5s-92.5 41.495-92.5 92.5c0 12.233 3.383 25.409 8.81 38.684l-67.979 20.169L9.633 106.985A7.5 7.5 0 0 0 0 114.176V417.5a7.5 7.5 0 0 0 5.367 7.19l151.549 44.967.113.033c.024.007.049.009.073.016.279.08.565.141.857.188a7.547 7.547 0 0 0 1.191.105c.348 0 .667-.028.982-.069.078-.01.155-.023.233-.036.292-.047.579-.109.859-.188.024-.007.049-.009.073-.016l.069-.021 146.427-43.445a7.464 7.464 0 0 0 6.078 0l146.496 43.465a7.496 7.496 0 0 0 6.62-1.18 7.503 7.503 0 0 0 3.014-6.01V310.775l-.001-.06zm-15-145.941V300.79l-136.669-40.55v-21.332c9.78-10.071 48.188-50.995 69.876-93.951L455 164.774zM310.831 15c42.733 0 77.5 34.766 77.5 77.5 0 12.181-4.075 25.748-10.412 39.485a7.491 7.491 0 0 0-.765 1.633c-18.072 38.149-53.029 77.25-66.325 91.396-13.288-14.131-48.213-53.178-66.292-91.314a7.5 7.5 0 0 0-.833-1.78c-6.314-13.712-10.373-27.254-10.373-39.421 0-42.733 34.767-77.499 77.5-77.499zm-7.5 223.907v21.332l-136.669 40.55V164.774l66.793-19.817c21.689 42.956 60.096 83.88 69.876 93.95zM15 275.886l51.818 15.375c.712.211 1.43.312 2.136.312a7.502 7.502 0 0 0 2.13-14.692L15 260.24V124.224l136.662 40.55V300.79l-51.817-15.375a7.498 7.498 0 0 0-9.323 5.057 7.498 7.498 0 0 0 5.057 9.323l56.084 16.641v136.016L15 411.902V275.886zm303.331 136.016v-54.297c0-4.142-3.357-7.5-7.5-7.5s-7.5 3.358-7.5 7.5v54.297l-136.669 40.549V316.436l136.669-40.55v51.719c0 4.142 3.357 7.5 7.5 7.5s7.5-3.358 7.5-7.5v-51.719L455 316.436v136.016l-136.669-40.55z"/>
    <path d="M310.831 145c28.948 0 52.5-23.551 52.5-52.5 0-28.948-23.552-52.5-52.5-52.5s-52.5 23.551-52.5 52.5c0 28.948 23.552 52.5 52.5 52.5zm0-90c20.678 0 37.5 16.822 37.5 37.5s-16.822 37.5-37.5 37.5-37.5-16.822-37.5-37.5 16.822-37.5 37.5-37.5z"/>
</symbol><symbol id="tickets" viewbox="0 0 512.005 512.005">
    <path d="M511.513 223.904L452.508 42.326c-1.708-5.251-7.348-8.125-12.602-6.42L6.912 176.612c-5.252 1.707-8.126 7.349-6.42 12.602l27.93 85.949c-.008.168-.025.333-.025.503v190.925c0 5.522 4.478 10 10 10H493.68c5.522 0 10-4.478 10-10V275.666c0-5.522-4.478-10-10-10h-78.32l89.734-29.16c5.251-1.707 8.125-7.349 6.419-12.602zm-27.834 61.762v170.925H48.396V285.666h55.392v111.408c0 5.522 4.478 10 10 10s10-4.478 10-10V285.666H483.679zm-133.034-20H46.365l-23.762-73.123 52.711-17.129 20.162 61.276c1.385 4.208 5.296 6.877 9.497 6.877 1.036 0 2.09-.162 3.128-.504 5.246-1.727 8.1-7.378 6.373-12.625l-20.139-61.206L436.577 58.017l52.825 162.558-138.757 45.091z"/>
    <path d="M421.405 101.849c-1.708-5.251-7.349-8.124-12.602-6.42l-260.728 84.727c-5.252 1.707-8.126 7.349-6.42 12.602a10.005 10.005 0 0 0 9.509 6.912c1.024 0 2.066-.159 3.093-.492l260.728-84.727c5.252-1.707 8.127-7.349 6.42-12.602zM377.434 166.804l49.352-16.037c5.252-1.707 8.126-7.349 6.42-12.602-1.708-5.252-7.349-8.125-12.602-6.42l-49.352 16.037c-5.252 1.707-8.126 7.349-6.42 12.602a10.005 10.005 0 0 0 9.509 6.912c1.024 0 2.067-.159 3.093-.492zM419.143 212.741a10.005 10.005 0 0 0 9.509 6.912 10.02 10.02 0 0 0 3.093-.492l15.617-5.075c5.252-1.707 8.127-7.349 6.42-12.602-1.708-5.252-7.348-8.126-12.602-6.42l-15.617 5.075c-5.252 1.707-8.127 7.349-6.42 12.602zM390.685 211.473l-15.618 5.075c-5.252 1.707-8.127 7.349-6.42 12.602 1.373 4.226 5.293 6.912 9.509 6.912 1.023 0 2.065-.159 3.093-.492l15.618-5.075c5.252-1.707 8.126-7.349 6.42-12.602-1.706-5.252-7.343-8.125-12.602-6.42zM251.132 186.817l-91.255 29.654c-5.252 1.707-8.127 7.349-6.42 12.602a10.005 10.005 0 0 0 9.509 6.912 10.02 10.02 0 0 0 3.093-.492l91.255-29.654c5.252-1.707 8.126-7.349 6.42-12.602-1.709-5.252-7.35-8.125-12.602-6.42zM113.788 420.364c-5.522 0-10 4.478-10 10v3.916c0 5.522 4.478 10 10 10s10-4.478 10-10v-3.916c0-5.522-4.478-10-10-10zM161.554 322.663c0 5.522 4.478 10 10 10h274.148c5.522 0 10-4.478 10-10s-4.478-10-10-10H171.554c-5.522 0-10 4.477-10 10zM445.703 350.847H393.81c-5.522 0-10 4.478-10 10s4.478 10 10 10h51.893c5.522 0 10-4.478 10-10s-4.478-10-10-10zM445.703 417.427h-16.422c-5.522 0-10 4.478-10 10s4.478 10 10 10h16.422c5.522 0 10-4.478 10-10s-4.478-10-10-10zM392.608 417.427h-16.421c-5.522 0-10 4.478-10 10s4.478 10 10 10h16.421c5.522 0 10-4.478 10-10s-4.477-10-10-10zM267.507 350.847h-95.952c-5.522 0-10 4.478-10 10s4.478 10 10 10h95.952c5.522 0 10-4.478 10-10s-4.478-10-10-10z"/>
</symbol><symbol id="treadmill" viewbox="0 0 512.004 512.004">
    <path d="M476.552 281.09c-17.358-16.349-41.546-27.461-68.11-31.285-8.075-1.163-17.081-2.473-26.794-3.887-46.974-6.835-109.494-15.931-163.953-22.523l-27.835-59.044h45.038c5.632 0 10.199-4.566 10.199-10.199 0-25.319-20.597-45.916-45.917-45.916h-78.824c-5.632 0-10.199 4.566-10.199 10.199 0 25.319 20.597 45.916 45.917 45.916h11.236l26.525 56.264c-20.312-2.261-38.823-4.022-54.078-4.988-33.265-2.104-65.463 9.759-90.667 33.415-27.343 25.664-43.025 61.971-43.025 99.61s15.681 73.945 43.025 99.61a129.707 129.707 0 0 0 16.446 13.116l-33.213 33.214c-3.983 3.983-3.983 10.441 0 14.424 1.992 1.992 4.602 2.987 7.212 2.987s5.22-.996 7.212-2.987l37.357-37.358c15.142 6.741 31.427 10.259 48.1 10.259 2.509 0 5.028-.08 7.552-.24 53.992-3.422 150.232-17.242 220.504-27.332a19147.77 19147.77 0 0 1 29.349-4.2l58.872 58.871c1.992 1.992 4.602 2.987 7.212 2.987s5.22-.996 7.212-2.987c3.983-3.983 3.983-10.441 0-14.424l-48.137-48.136c24.035-4.462 45.796-15.028 61.806-30.147 19.21-18.143 29.364-41.537 29.364-67.656.003-26.091-10.16-49.454-29.386-67.563zM156.074 143.951c-10.446.001-19.448-6.309-23.391-15.318h66.497c10.446 0 19.447 6.31 23.391 15.318h-66.497zm249.519 283.348c-13.648 1.886-30.447 4.298-48.231 6.852-69.933 10.042-165.713 23.795-218.896 27.166-27.58 1.753-54.364-8.172-75.414-27.93-23.251-21.823-36.586-52.71-36.586-84.737 0-32.027 13.335-62.913 36.586-84.737 19.465-18.271 43.829-28.128 69.196-28.128 2.065 0 4.143.065 6.219.197 58.913 3.734 168.037 19.612 240.247 30.12 9.723 1.415 18.739 2.726 26.824 3.891 39.823 5.734 80.005 32.28 80.005 78.657-.001 46.697-40.154 73.149-79.95 78.649z"/>
    <path d="M141.816 265.934c-45.61 0-82.716 37.106-82.716 82.716s37.106 82.716 82.716 82.716c45.61 0 82.717-37.106 82.717-82.716 0-45.608-37.107-82.716-82.717-82.716zm0 145.034c-34.361 0-62.318-27.955-62.318-62.318 0-34.361 27.955-62.318 62.318-62.318 34.362 0 62.319 27.955 62.319 62.318s-27.956 62.318-62.319 62.318zM430.367 225.932l-1.566-6.12c-1.395-5.456-6.951-8.746-12.408-7.353-5.458 1.396-8.749 6.952-7.353 12.409l1.566 6.12c1.179 4.609 5.325 7.673 9.874 7.673.836 0 1.687-.104 2.535-.32 5.457-1.396 8.748-6.951 7.352-12.409zM471.825 46.476l-10.824-29.224c-5.062-13.664-20.3-20.667-33.969-15.607-6.621 2.452-11.891 7.336-14.84 13.752s-3.221 13.597-.769 20.217l1.464 3.95-45.984 16.024c-13.763 4.797-21.058 19.897-16.263 33.661 3.698 10.612 13.729 17.742 24.962 17.742 1.082 0 2.157-.09 3.227-.221l22.384 87.502c1.179 4.61 5.326 7.674 9.875 7.674.835 0 1.687-.104 2.534-.32 5.458-1.396 8.749-6.952 7.354-12.409l-22.662-88.585 57.422-20.011c6.661-2.321 12.206-7.313 15.212-13.694 3.007-6.383 3.327-13.836.877-20.451zM452.496 58.23a6.06 6.06 0 0 1-3.473 3.126L377.59 86.25a6.035 6.035 0 0 1-1.988.341 6.04 6.04 0 0 1-5.698-4.054 6.04 6.04 0 0 1 3.713-7.684l55.803-19.446a10.204 10.204 0 0 0 6.209-13.173l-5.075-13.702a6 6 0 0 1 .175-4.616 5.999 5.999 0 0 1 3.386-3.139 6.016 6.016 0 0 1 2.091-.376 6.047 6.047 0 0 1 5.668 3.938l10.825 29.224a6.072 6.072 0 0 1-.203 4.667zM397.249 371.784h-22.292l-45.177-45.177c-3.984-3.983-10.44-3.983-14.425 0-3.983 3.983-3.983 10.441 0 14.425l30.752 30.752h-1.893c-5.632 0-10.199 4.566-10.199 10.199s4.567 10.199 10.199 10.199h53.034c5.632 0 10.199-4.566 10.199-10.199s-4.566-10.199-10.198-10.199z"/>
</symbol></svg>