<?xml version="1.0" encoding="utf-8"?>
<!-- Generator: Adobe Illustrator 20.1.0, SVG Export Plug-In . SVG Version: 6.00 Build 0)  -->
<svg version="1.1" id="Слой_1" xmlns="http://www.w3.org/2000/svg" xmlns:xlink="http://www.w3.org/1999/xlink" x="0px" y="0px"
	 width="604px" height="351px" viewBox="0 0 604 351" style="enable-background:new 0 0 604 351;" xml:space="preserve">
<path d="M299,351c-0.4-1-0.5-2.3-1.2-3.1c-24.9-24.8-49.9-49.4-74.8-74.2c-4.2-4.1-6.1-4.2-10.3,0.1c-23.6,23.5-47.1,47.1-70.6,70.6
	c-4.5,4.5-6.4,4.6-10.7,0.3c-5.2-5.1-5.2-6.6-0.4-11.4c23.7-23.7,47.3-47.3,71-71c4-4,4-5.9-0.1-9.9c-20-20-40-40.1-60-60.1
	c-4.4-4.3-8.8-8.6-13.5-12.6c-3.5-3-3.4-5.2,0-8.5c18.8-18.4,37.5-36.9,56.2-55.4c5.9-5.9,11.8-11.8,17.7-17.6
	c3.5-3.5,3.6-5.7,0.1-9.3c-23.6-23.7-47.3-47.4-71-71c-5.3-5.3-3.9-12.2,3.5-14.4c1.9-0.6,5.2,1,6.8,2.7
	c19.7,19.4,39.2,39,58.7,58.6c4.4,4.4,8.7,8.7,13.1,13c3.4,3.4,5.8,3.3,9.3-0.2c23.6-23.7,47.3-47.4,70.9-71.1c2-2,3.7-4.3,5.5-6.5
	c2,0,4,0,6,0c0.4,1,0.5,2.3,1.3,3.1c24.9,24.8,49.9,49.4,74.8,74.2c4.1,4,6.1,4.1,10,0.3c23.7-23.7,47.3-47.3,71-71
	c4.5-4.5,6.5-4.6,10.8-0.3c5.1,5.1,5.2,6.6,0.4,11.4c-23.7,23.7-47.3,47.3-71,71c-4,4-4,5.9,0,9.9c21,20.9,41.9,41.9,62.9,62.8
	c3.4,3.4,6.9,6.8,10.6,9.9c3.5,3,3.3,5.2,0,8.4c-18.8,18.4-37.5,36.9-56.2,55.4c-5.9,5.9-11.8,11.8-17.7,17.7
	c-3.5,3.5-3.6,5.7-0.1,9.3c23.7,23.7,47.4,47.3,70.9,71.1c1.8,1.8,4.2,5.5,3.5,6.9c-1.4,3.1-4.4,5.9-7.5,7.5
	c-1.4,0.7-4.9-1.4-6.6-3.1c-23.8-23.5-47.4-47.2-71.1-70.9c-3.8-3.8-6-3.8-9.6-0.1c-23.6,23.7-47.3,47.4-70.9,71.1
	c-2,2-3.7,4.3-5.5,6.5C303,351,301,351,299,351z M455.7,175.4c-1.7-2.2-3-4.1-4.6-5.7c-48-48.1-96-96.2-144-144.2
	c-4.4-4.4-5.8-4.4-10.2,0c-48,48.1-96,96.1-144.1,144.2c-5.1,5.1-5,6.6,0.2,11.8c48,48.1,96,96.2,144,144.2c4.1,4.1,5.7,4.1,9.9,0
	c27.5-27.6,55.1-55.1,82.6-82.7c20.6-20.6,41.2-41.2,61.8-61.9C452.9,179.5,454.1,177.5,455.7,175.4z"/>
<path d="M0,169c2.3-0.2,4.6-0.5,7-0.5c24.8,0,49.6,0,74.4,0c1.3,0,2.8-0.2,4,0.2c1,0.4,1.8,1.6,2.7,2.4c-0.9,0.8-1.6,2-2.7,2.4
	c-1.4,0.4-3,0.2-4.5,0.2c-25.3,0-50.6,0-75.9,0c-1.7,0-3.3,0.2-5,0.3C0,172.3,0,170.7,0,169z"/>
<path d="M604,174c-8.6-0.1-17.3-0.3-25.9-0.3c-18.5,0-37,0-55.5,0c-1.5,0-3.1,0.1-4.5-0.3c-0.9-0.3-2-1.5-2-2.3c0-0.8,1.1-1.8,2-2.3
	c0.8-0.4,1.9-0.3,2.9-0.3c26,0,52,0,77.9,0c1.7,0,3.3,0.3,5,0.5C604,170.7,604,172.3,604,174z"/>
</svg>
