<?xml version="1.0" encoding="UTF-8" standalone="no"?>
<!-- Generator: Adobe Illustrator 20.1.0, SVG Export Plug-In . SVG Version: 6.00 Build 0)  -->

<svg
   xmlns:dc="http://purl.org/dc/elements/1.1/"
   xmlns:cc="http://creativecommons.org/ns#"
   xmlns:rdf="http://www.w3.org/1999/02/22-rdf-syntax-ns#"
   xmlns:svg="http://www.w3.org/2000/svg"
   xmlns="http://www.w3.org/2000/svg"
   xmlns:sodipodi="http://sodipodi.sourceforge.net/DTD/sodipodi-0.dtd"
   xmlns:inkscape="http://www.inkscape.org/namespaces/inkscape"
   version="1.1"
   id="Слой_1"
   x="0px"
   y="0px"
   width="279.04355"
   height="279.30521"
   viewBox="0 0 279.04353 279.3052"
   enable-background="new 0 0 595.28 841.89"
   xml:space="preserve"
   sodipodi:docname="logo.svg"
   inkscape:version="0.92.1 r15371"><metadata
     id="metadata11"><rdf:RDF><cc:Work
         rdf:about=""><dc:format>image/svg+xml</dc:format><dc:type
           rdf:resource="http://purl.org/dc/dcmitype/StillImage" /><dc:title></dc:title></cc:Work></rdf:RDF></metadata><defs
     id="defs9" /><sodipodi:namedview
     pagecolor="#ffffff"
     bordercolor="#666666"
     borderopacity="1"
     objecttolerance="10"
     gridtolerance="10"
     guidetolerance="10"
     inkscape:pageopacity="0"
     inkscape:pageshadow="2"
     inkscape:window-width="640"
     inkscape:window-height="480"
     id="namedview7"
     showgrid="false"
     fit-margin-top="0"
     fit-margin-left="0"
     fit-margin-right="0"
     fit-margin-bottom="0"
     inkscape:zoom="0.28032165"
     inkscape:cx="161.95201"
     inkscape:cy="-129.67556"
     inkscape:window-x="0"
     inkscape:window-y="0"
     inkscape:window-maximized="0"
     inkscape:current-layer="Слой_1" /><path
     d="m 275.312,146.59276 c -8.586,7.701 -14.722,14.624 -22.436,20.951 -10.532,9.947 -20.617,20.367 -30.858,30.62 -4.849,4.855 -4.697,9.828 0.307,14.788 17.863,17.706 35.743,35.396 53.536,53.172 1.455,1.454 3.134,3.489 3.182,5.295 0.04,1.504 -2.162,3.068 -3.877,5.248 -3.553,-2.883 -6.274,-4.737 -8.575,-7.015 -17.279,-17.111 -34.447,-34.334 -51.714,-51.456 -5.096,-5.053 -7.098,-5.186 -12.113,-0.241 -20.511,20.223 -40.877,40.595 -61.412,60.793 -0.712,0.7 -3.265,0.755 -3.945,0.084 -20.258,-20.009 -40.318,-40.218 -60.579,-60.225 -5.972,-5.897 -7.534,-5.75 -13.611,0.265 -17.16,16.988 -34.203,34.093 -51.338,51.106 -1.754,1.741 -3.605,3.691 -5.801,4.58 -1.642,0.665 -3.913,-0.224 -5.904,-0.421 0.197,-1.984 0.163,-4.032 0.687,-5.926 0.273,-0.985 1.519,-1.709 2.346,-2.53 17.736,-17.595 35.475,-35.187 53.212,-52.78 4.98,-4.94 5.098,-9.921 0.232,-14.794 -14.946,-14.964 -29.856,-29.966 -44.967,-44.762 -2.303,-2.255 0.511,-0.509 -2.303,-2.255 -6.28,-3.897 -8.348,-17.838 -2.059,-21.001 17.951,-16.731 10.683,-9.768 17.951,-16.731 10.702,-10.253 21.083,-20.842004 31.552,-31.337004 4.622,-4.633 4.531,-9.809 -0.172,-14.471 -17.74,-17.589 -35.498,-35.16 -53.248,-52.739 -0.828,-0.82 -2.055,-1.518 -2.379,-2.508 C 0.41,10.421756 0.313,8.3717557 0,6.3907557 c 2.116,-0.238 4.463,-1.154 6.288,-0.534 2.052,0.697 3.76,2.651 5.399,4.2790003 17.368,17.251 34.664,34.575 52.046,51.811 5.337,5.292 7.171,5.475 12.509,0.244 17.367,-17.018 34.546,-34.227 51.787,-51.373 3.068,-3.0510003 6.266,-5.9980003 9.064,-9.2830003 1.827,-2.146 2.603,-1.948 4.555,0.012 20.199,20.2960003 40.496,40.4960003 60.885,60.6010003 5.325,5.251 7.081,5.133 12.467,-0.2 17.159,-16.993 34.228,-34.078 51.362,-51.096 1.763,-1.7510003 3.504,-3.8250003 5.681,-4.7610003 1.801,-0.775 4.23,-0.09 6.38,-0.052 -0.342,2.237 0.119,5.2320003 -1.158,6.5870003 -7.421,7.876 -15.254,15.363 -22.943,22.987 -10.881,10.79 -21.797,21.545 -32.615,32.397 -4.459,4.473 -4.329,9.502 0.232,14.069 14.947,14.966 29.863,29.964004 44.979,44.757004 2.3,2.251 10.291,9.25 12.124,12.582 m -13.051,0.579 c -1.569,-2.103 -2.722,-4.1 -4.293,-5.683 -13.85,-13.954 -27.759,-27.849 -41.68,-41.731004 -24.649,-24.58 -49.265,-49.194 -74.018,-73.669 -6.012,-5.945 -7.286,-5.915 -13.166,-0.106 -22.51,22.24 -44.909,44.592 -67.314,66.938 -16.279,16.235004 -32.466,32.563004 -48.78,48.763004 -3.556,3.531 -4.498,6.731 -0.584,10.64 20.499,20.479 40.908,41.048 61.393,61.54 16.838,16.844 33.866,33.5 50.566,50.479 10.677,10.855 11.796,10.851 22.37,0.124 19.642,-19.926 39.564,-39.575 59.357,-59.352 17.561,-17.547 35.123,-35.093 52.622,-52.702 1.333,-1.343 2.165,-3.185 3.527,-5.241 z"
     id="path2"
     inkscape:connector-curvature="0" /><path
     d="m 105.269,146.54276 c -0.193,-12.293 1.043,-21.14 10.133,-27.58 5.417,-3.838 10.479,-5.383 16.696,-3.768 1.449,0.376 2.874,0.844 4.319,1.239 8.286,2.265 8.763,1.86 8.963,-6.7 0.148,-6.297 4.142,-10.337004 8.788,-13.741004 0.848,-0.621 3.226,-0.398 3.92,0.347 0.765,0.821 0.95,2.954 0.423,4.053004 -1.209,2.518 -3.19,4.654 -4.521,7.127 -2.378,4.416 -0.772,7.06 4.252,7.163 2.823,0.058 5.669,-0.369 8.474,-0.161 6.706,0.496 10.033,5.297 8.396,11.832 -0.241,0.964 -0.482,1.992 -1.005,2.81 -7.758,12.126 -3.006,22.405 4.787,32.164 2.628,3.292 3.199,6.779 0.785,10.091 -3.416,4.687 -7.193,9.131 -11.051,13.471 -3.775,4.246 -8.466,4.69 -13.023,1.535 -6.644,-4.6 -12.895,-4.971 -19.892,-0.505 -6.036,3.853 -9.435,2.766 -14.575,-2.194 -11.286,-10.891 -16.966,-23.931 -15.869,-37.183 z"
     id="path4"
     inkscape:connector-curvature="0" /></svg>