<?xml version="1.0" encoding="utf-8"?>
<!-- Generator: Adobe Illustrator 20.1.0, SVG Export Plug-In . SVG Version: 6.00 Build 0)  -->
<svg version="1.1" id="Слой_1" xmlns="http://www.w3.org/2000/svg" xmlns:xlink="http://www.w3.org/1999/xlink" x="0px" y="0px"
	 width="86.4px" height="73.6px" viewBox="0 0 86.4 73.6" style="enable-background:new 0 0 86.4 73.6;" xml:space="preserve">
<style type="text/css">
	.st0{fill:#CC0000;}
	.st1{fill:none;stroke:#000000;stroke-miterlimit:10;}
	.st2{fill:none;stroke:#CC0000;stroke-miterlimit:10;}
</style>
<g id="XMLID_2_">
	<g>
		<path d="M71.7,25c0.8,6.1-1.5,12.6-6.3,18.3c-6,6.9-13.3,12.6-21.5,16.6c-0.6,0.3-1.4,0.3-2,0c-8.2-4-15.5-9.7-21.5-16.6
			c-4.9-5.7-7.2-12.2-6.4-18.4c0.5-4.6,3-8.7,6.7-11.4c2.3-1.6,4.9-2.4,7.7-2.4c6,0,11.5,3.9,14.4,6.4c2.8-2.5,8.4-6.4,14.5-6.4
			c2.7,0,5.4,0.8,7.6,2.4C68.8,16.2,71.2,20.4,71.7,25z M61.6,40c3.9-4.6,5.8-9.6,5.2-14.4c-0.3-3.2-2-6.1-4.6-8
			c-1.4-1-3.1-1.5-4.8-1.5c-6.2,0-12.4,6.3-12.7,6.6c-0.5,0.5-1.1,0.8-1.8,0.8c-0.7,0-1.3-0.3-1.8-0.8c-1.1-1.1-6.8-6.6-12.6-6.6
			c-1.7,0-3.4,0.5-4.9,1.5c-2.6,1.9-4.3,4.8-4.6,7.9c-0.6,4.7,1.2,9.9,5.2,14.4c5.3,6,11.6,11.1,18.7,14.8
			C50,51.1,56.3,46.1,61.6,40z"/>
		<path class="st0" d="M42.9,29.8v0.6c0,0.4-0.3,0.7-0.7,0.7h-2.6c-0.4,0-0.7-0.3-0.7-0.7v-0.6c0-0.4,0.3-0.7,0.7-0.7h2.6
			C42.5,29.1,42.9,29.4,42.9,29.8z"/>
	</g>
	<g>
		<path class="st1" d="M71.7,25c-0.5-4.6-2.9-8.8-6.7-11.5c-2.2-1.6-4.9-2.4-7.6-2.4c-6.1,0-11.6,4-14.5,6.4
			c-2.9-2.6-8.4-6.4-14.4-6.4c-2.8,0-5.4,0.8-7.7,2.4c-3.8,2.7-6.2,6.8-6.7,11.4c-0.8,6.2,1.4,12.7,6.4,18.4
			c6,6.9,13.3,12.6,21.5,16.6c0.6,0.3,1.4,0.3,2,0c8.2-4,15.5-9.7,21.5-16.6C70.3,37.7,72.5,31.2,71.7,25z"/>
		<path class="st1" d="M61.6,40c-5.3,6-11.6,11-18.7,14.8c-7.1-3.7-13.4-8.7-18.7-14.8c-3.9-4.6-5.8-9.7-5.2-14.4
			c0.3-3.2,2-6,4.6-7.9c1.4-1,3.1-1.5,4.9-1.5c5.8,0,11.5,5.5,12.6,6.6c0.5,0.5,1.1,0.8,1.8,0.8c0.7,0,1.3-0.3,1.8-0.8
			c0.3-0.3,6.5-6.6,12.7-6.6c1.7,0,3.4,0.5,4.8,1.5c2.6,1.9,4.3,4.8,4.6,8C67.3,30.4,65.5,35.5,61.6,40z"/>
		<path class="st2" d="M39.5,31.1h2.6c0.4,0,0.7-0.3,0.7-0.7v-0.6c0-0.4-0.3-0.7-0.7-0.7h-2.6c-0.4,0-0.7,0.3-0.7,0.7v0.6
			C38.8,30.8,39.2,31.1,39.5,31.1z"/>
	</g>
</g>
<g id="XMLID_1_">
	<g>
		<path class="st0" d="M52.8,39.8L52.8,39.8c0,0.9-0.8,1.7-1.7,1.7c-0.9,0-1.7-0.8-1.7-1.7v-3.2H36.9v3.2c0,0.9-0.8,1.7-1.7,1.7
			c-0.9,0-1.7-0.8-1.7-1.7V29.4c0-0.9,0.8-1.7,1.7-1.7c0.9,0,1.7,0.8,1.7,1.7v3.8h14.2c0.9,0,1.7,0.8,1.7,1.7V39.8z"/>
	</g>
	<g>
		<path class="st2" d="M51.2,33.3H36.9v-3.8c0-0.9-0.8-1.7-1.7-1.7c-0.9,0-1.7,0.8-1.7,1.7v10.4c0,0.9,0.8,1.7,1.7,1.7
			c0.9,0,1.7-0.8,1.7-1.7v-3.2h12.6v3.2c0,0.9,0.8,1.7,1.7,1.7c0.9,0,1.7-0.8,1.7-1.7v0v-4.9C52.8,34,52.1,33.3,51.2,33.3z"/>
	</g>
</g>
</svg>
