<?xml version="1.0" encoding="utf-8"?>
<!-- Generator: Adobe Illustrator 20.1.0, SVG Export Plug-In . SVG Version: 6.00 Build 0)  -->
<svg version="1.1" id="Слой_1" xmlns="http://www.w3.org/2000/svg" xmlns:xlink="http://www.w3.org/1999/xlink" x="0px" y="0px"
	 width="466px" height="105.2px" viewBox="0 0 466 105.2" style="enable-background:new 0 0 466 105.2;" xml:space="preserve">
<style type="text/css">
	.st0{clip-path:url(#SVGID_2_);fill:#F9F9F9;}
</style>
<g>
	<defs>
		<rect id="SVGID_1_" y="0" width="466" height="105.2"/>
	</defs>
	<clipPath id="SVGID_2_">
		<use xlink:href="#SVGID_1_"  style="overflow:visible;"/>
	</clipPath>
	<path class="st0" d="M304.2,29.2c0.3-3.6-0.3-7.2-0.9-7.7c-0.9,0.2-3.5,7.8-3.1,12.2c-4.2-2.6-0.8-8.3-0.9-9.1
		c-4.1,0.7-3.7,5.6-3.2,6.9c-4.6-4.1-9.9-1.8-9.9-1.8s1.5,5.8,7.5,6.9c-1.3,0.5-5.2,3-3.2,6.8c0.7-0.4,2.1-6.7,8.5-4
		c0.2,0.1,0.4,0.2,0.6,0.2c-0.9,1.5-2.3,2.8-4.3,4.2c-6.2,4.3-15.9,12.1-15.9,12.1s-8-4.7-10.4-5.8c-0.1,0,0.2-3.9,0.4-6.8
		c2.5,0.9,7.8,2.2,9.2-0.9c1.8-4.2-4.4-5.8-5.8-6.4c2-1.2,5.4-7.6-0.2-9.2c-5.6-1.6-6.2,6.4-6.2,8.2c-1.8-0.4-6.2-2-7.3,0.6
		c-1.1,2.4,0.5,5.4,5.6,6.5c-1.3,4.8-5.7,8.3-10.9,8.3c-5.9,0-10.8-5.9-12-11.7c0.8,0,1.4,0,1.5,0c2.8,0,5.2-2.1,5.2-4.6
		c0-2.6-2.3-4.6-5.2-4.6l-3.9,0c0-1.3,0.2-2.9,1.3-5.5c1.8-4.4,8.3-5,7.5,0.4c-0.4,2.4-3.2,2.6-2.2,2.6c6.8,0.2,7.9-9,3-11.4
		c-8-4.4-10.7,4.1-11.8,7.2c-0.7-2.4-0.8-5.3,0.5-7.6c1.8-3.1,5.6-1.8,6.2-1.4c0.2-1-3-3.1-5.2-2.6c-2.2,0.6-3.3,2.3-3.9,4.1
		l-0.3-1.6c0.2-0.9,0.6-1.8,1.2-2.7c2.5-3.5,5.5-2.4,6-2.8c-2.1-2.9-5.4-0.8-6.2,0C237,3.2,233,0,233,0s-4,3.2-2.6,8.2
		c-0.8-0.8-4.1-2.9-6.2,0c0.6,0.3,3.6-0.7,6,2.8c0.6,0.9,1,1.8,1.2,2.7l-0.3,1.6c-0.5-1.8-1.6-3.5-3.9-4.1c-2.2-0.5-5.4,1.6-5.2,2.6
		c0.6-0.4,4.4-1.7,6.2,1.4c1.3,2.3,1.3,5.2,0.5,7.6c-1.2-3.1-3.8-11.6-11.8-7.2c-5,2.4-3.8,11.6,3,11.4c1,0-1.8-0.2-2.2-2.6
		c-0.8-5.4,5.8-4.8,7.5-0.4c1.1,2.6,1.3,4.2,1.3,5.5l-3.9,0c-2.8,0-5.2,2.1-5.2,4.6c0,2.6,2.3,4.6,5.2,4.6c0.1,0,0.6,0,1.5,0
		c-1.2,5.8-6.1,11.7-12,11.7c-5.2,0-9.6-3.5-10.9-8.3c5.1-1.1,6.7-4.1,5.6-6.5c-1.2-2.6-5.6-1-7.3-0.6c0-1.8-0.6-9.8-6.2-8.2
		c-5.6,1.6-2.2,8-0.2,9.2c-1.4,0.6-7.5,2.2-5.8,6.4c1.3,3.2,6.6,1.8,9.2,0.9c0.2,2.8,0.5,6.7,0.4,6.8c-2.4,1.1-10.4,5.8-10.4,5.8
		s-9.6-7.8-15.9-12.1c-2-1.4-3.3-2.7-4.3-4.2c0.2-0.1,0.4-0.1,0.6-0.2c6.4-2.7,7.8,3.6,8.5,4c2-3.8-1.9-6.3-3.2-6.8
		c6-1.1,7.5-6.9,7.5-6.9s-5.3-2.4-9.9,1.8c0.4-1.3,0.9-6.1-3.2-6.9c-0.1,0.8,3.3,6.4-0.9,9.1c0.5-4.3-2.1-12-3.1-12.2
		c-0.6,0.5-1.2,4-0.9,7.7c-2.6-1.6-6.4,1.1-6.2,2.5c4.5-0.6,6.5,1.3,7.5,3.7c0,4.3,0.3,7.6,0.3,7.6s13.9,10.4,19.7,16.2
		c4.2,4.2,5.2,13.2,5.5,17.9c-1.4,0.2-2.5,1.3-2.5,2.8c0,1.6,1.3,2.8,2.8,2.8c1.5,0,2.8-1.3,2.8-2.8c0-0.1,0-0.3,0-0.4
		c15.6-3,33.2-3,41.3-3s25.6,0,41.3,3c0,0.1,0,0.3,0,0.4c0,1.6,1.3,2.8,2.8,2.8c1.5,0,2.8-1.3,2.8-2.8c0-1.4-1.1-2.6-2.5-2.8
		c0.3-4.7,1.3-13.7,5.5-17.9c5.8-5.8,19.7-16.2,19.7-16.2s0.3-3.3,0.3-7.6c0.9-2.4,3-4.3,7.5-3.7C310.5,30.4,306.8,27.6,304.2,29.2
		 M233,31c1.7,0,3.1,1.4,3.1,3.1c0,1.7-1.4,3.1-3.1,3.1c-1.7,0-3.1-1.4-3.1-3.1C229.9,32.4,231.3,31,233,31 M274.8,76.2
		c-0.1,0.5-0.5,0.8-0.9,0.8c-0.1,0-0.1,0-0.2,0c-15.6-3-32.5-3-40.6-3c-8.1,0-25.1,0-40.6,3c-0.1,0-0.1,0-0.2,0
		c-0.5,0-0.9-0.3-0.9-0.8c-0.1-0.5,0.2-1,0.8-1.1c15.7-3.1,32.8-3.1,41-3.1c8.2,0,25.3,0,41,3.1C274.5,75.2,274.9,75.7,274.8,76.2
		 M276,67.6c-0.1,0.5-0.5,0.8-1,0.8c-0.1,0-0.1,0-0.2,0c-15.6-3-34-3-41.9-3s-26.3,0-41.9,3c-0.1,0-0.1,0-0.2,0
		c-0.5,0-0.9-0.3-0.9-0.8c-0.1-0.5,0.2-1,0.8-1.1c15.7-3.1,34.3-3.1,42.3-3.1c7.9,0,26.5,0,42.3,3.1C275.8,66.6,276.1,67.1,276,67.6
		 M279.2,60.1c-0.1,0.4-0.5,0.7-0.9,0.7c-0.1,0-0.2,0-0.3-0.1c-0.8-0.3-1.6-0.5-2.5-0.8c-0.3,0.3-0.7,0.5-1.2,0.5
		c-0.8,0-1.4-0.5-1.6-1.2c-1.7-0.4-3.4-0.7-5.2-1c-0.4,0.5-1,0.9-1.7,0.9c-0.9,0-1.7-0.6-2-1.4c-2.2-0.3-4.4-0.5-6.6-0.7
		c-0.4,0.8-1.2,1.4-2.2,1.4c-1.1,0-2-0.7-2.3-1.7c-2.2-0.1-4.4-0.2-6.5-0.3c-0.4,1-1.4,1.8-2.6,1.8c-1.2,0-2.3-0.8-2.6-1.9
		c-1.8,0-3.5,0-4.9-0.1c-0.4,1.3-1.6,2.2-3,2.2c-1.4,0-2.6-0.9-3-2.2c-1.4,0-3.1,0-4.9,0.1c-0.4,1.1-1.4,1.9-2.6,1.9
		c-1.2,0-2.2-0.7-2.6-1.8c-2.1,0.1-4.3,0.2-6.5,0.3c-0.3,1-1.2,1.7-2.3,1.7c-1,0-1.8-0.6-2.2-1.4c-2.2,0.2-4.4,0.4-6.6,0.7
		c-0.3,0.8-1,1.4-2,1.4c-0.7,0-1.3-0.4-1.7-0.9c-1.8,0.3-3.6,0.6-5.2,1c-0.2,0.7-0.9,1.2-1.6,1.2c-0.5,0-0.9-0.2-1.2-0.5
		c-0.9,0.2-1.7,0.5-2.5,0.8c-0.1,0-0.2,0.1-0.3,0.1c-0.4,0-0.8-0.3-0.9-0.7c-0.2-0.5,0.1-1.1,0.6-1.2c0.9-0.3,1.8-0.6,2.8-0.8
		c0.3-0.6,0.9-1,1.6-1c0.4,0,0.8,0.1,1.1,0.4c1.8-0.4,3.6-0.7,5.6-1c0.3-0.8,1-1.3,1.9-1.3c0.7,0,1.3,0.3,1.6,0.8
		c2.3-0.3,4.6-0.5,6.9-0.7c0.4-0.9,1.2-1.5,2.2-1.5c0.9,0,1.7,0.5,2.1,1.2c2.3-0.1,4.6-0.2,6.7-0.3c0.4-1.1,1.4-1.8,2.6-1.8
		c1.1,0,2.1,0.7,2.5,1.7c1.9,0,3.5,0,5-0.1c0.4-1.3,1.6-2.2,3-2.2c1.4,0,2.6,0.9,3,2.2c1.4,0,3.1,0,5,0.1c0.4-1,1.4-1.7,2.5-1.7
		c1.2,0,2.2,0.8,2.6,1.8c2.1,0.1,4.4,0.2,6.7,0.3c0.4-0.7,1.2-1.2,2.1-1.2c1,0,1.9,0.6,2.2,1.5c2.3,0.2,4.6,0.4,6.9,0.7
		c0.4-0.5,1-0.8,1.6-0.8c0.9,0,1.6,0.6,1.9,1.3c1.9,0.3,3.8,0.6,5.6,1c0.3-0.2,0.7-0.4,1.1-0.4c0.7,0,1.3,0.4,1.6,1
		c1,0.3,1.9,0.5,2.8,0.8C279.1,59.1,279.4,59.6,279.2,60.1"/>
	<path class="st0" d="M284.2,79h102.5l7.6-7.6l7.6,7.6h6.4c2.9-7.5,11.8-27.2,20.3-18.6c7.3,7.3-5.8,14.7-14.5,18.6h12.8
		c2.9-7.5,11.8-27.2,20.3-18.6c7.3,7.3-5.8,14.7-14.5,18.6h10.2c0.2,0,0.3,0,0.5,0l10-10L466,81.8l-12.7,12.7l-10-10
		c-0.2,0-0.3,0.1-0.5,0.1h-10.2c8.7,3.9,21.8,11.3,14.5,18.6c-8.6,8.6-17.4-11.1-20.3-18.6H414c8.7,3.9,21.8,11.3,14.5,18.6
		c-8.6,8.6-17.4-11.1-20.3-18.6h-6.4l-7.6,7.6l-7.6-7.6H284.2V79z"/>
	<path class="st0" d="M181.8,84.5H79.3l-7.6,7.6l-7.6-7.6h-6.4c-2.9,7.5-11.8,27.2-20.3,18.6c-7.3-7.3,5.8-14.7,14.5-18.6H39.2
		c-2.9,7.5-11.8,27.2-20.3,18.6c-7.3-7.3,5.8-14.7,14.5-18.6H23.2c-0.2,0-0.3,0-0.5,0l-10,10L0,81.8L12.7,69l10,10
		c0.2,0,0.3,0,0.5,0h10.2c-8.7-3.9-21.8-11.3-14.5-18.6c8.6-8.6,17.4,11.1,20.3,18.6H52c-8.7-3.9-21.8-11.3-14.5-18.6
		c8.6-8.6,17.4,11.1,20.3,18.6h6.4l7.6-7.6l7.6,7.6h102.5V84.5z"/>
</g>
</svg>
