<?xml version="1.0" encoding="UTF-8" standalone="no"?>
<svg
   xmlns:dc="http://purl.org/dc/elements/1.1/"
   xmlns:cc="http://creativecommons.org/ns#"
   xmlns:rdf="http://www.w3.org/1999/02/22-rdf-syntax-ns#"
   xmlns:svg="http://www.w3.org/2000/svg"
   xmlns="http://www.w3.org/2000/svg"
   id="svg3"
   version="1.1"
   viewBox="0 0 126.84618 26.410379"
   height="26.410379"
   width="126.84618">
  <metadata
     id="metadata9">
    <rdf:RDF>
      <cc:Work
         rdf:about="">
        <dc:format>image/svg+xml</dc:format>
        <dc:type
           rdf:resource="http://purl.org/dc/dcmitype/StillImage" />
        <dc:title></dc:title>
      </cc:Work>
    </rdf:RDF>
  </metadata>
  <defs
     id="defs7" />
  <path
     id="path3681"
     d="M 86,24.508416 C 82.425,23.494833 71.601222,19.912513 61.947161,16.547707 40.2206,8.9751756 30.987912,7.4701246 20,9.7097636 15.875,10.550552 12.348456,11.100753 12.163236,10.932431 11.146178,10.008166 17.309837,7.4423186 22.5,6.6293776 c 8.748759,-1.370329 16.335241,0.0674 33.565024,6.3609614 30.213257,11.036067 42.93662,12.790232 57.927136,7.986391 2.23118,-0.715003 2.34953,-0.626782 1.13017,0.842455 -1.94517,2.343794 -10.54086,4.657179 -17.053831,4.589756 C 95.005824,26.377236 89.575,25.522 86,24.508416 Z m 1.296388,-7.083411 C 81.78417,16.441317 71.235094,13.091513 54,6.8519106 43.991555,3.2285636 42.914815,3.0486406 31,3.0085966 17.668789,2.9637966 14.710892,3.7660206 9,8.9753416 5.8566812,11.842592 0,13.285108 0,11.192065 0,8.8398706 4.6928326,4.4960646 9.7573952,2.1603706 13.815405,0.28888163 16.232199,-0.02278937 26.5,0.00123863 c 13.738408,0.03215 19.061221,1.19317797 39,8.50679597 16.272488,5.9688104 23.120674,7.3226554 34.218166,6.7647254 10.319474,-0.518816 13.955004,-2.075285 20.005374,-8.5648554 3.5623,-3.820893 4.46252,-4.33179 5.75,-3.263278 3.6196,3.004 -0.19201,8.6761024 -8.23094,12.2485464 -5.43811,2.416661 -21.04956,3.319494 -29.946212,1.731832 z"
     style="fill:#dc2252" />
</svg>
