<?xml version="1.0" encoding="UTF-8" ?>
<!DOCTYPE svg PUBLIC "-//W3C//DTD SVG 1.1//EN" "http://www.w3.org/Graphics/SVG/1.1/DTD/svg11.dtd">
<svg width="111pt" height="101pt" viewBox="0 0 111 101" version="1.1" xmlns="http://www.w3.org/2000/svg">
<g id="#5b5a5aff">
<path fill="#5b5a5a" opacity="1.00" d=" M 8.34 0.00 L 40.80 0.00 C 40.80 5.66 40.80 11.31 40.81 16.97 C 50.46 16.99 60.11 16.99 69.76 16.97 C 69.76 11.31 69.76 5.66 69.76 0.00 L 102.22 0.00 C 102.23 5.66 102.22 11.31 102.22 16.97 C 105.15 16.98 108.07 16.99 111.00 16.98 L 111.00 101.00 L 0.00 101.00 L 0.00 16.98 C 2.78 16.98 5.55 16.98 8.33 16.97 C 8.34 11.31 8.33 5.66 8.34 0.00 M 17.11 8.71 C 17.10 11.03 17.10 13.36 17.12 15.68 C 22.08 15.68 27.05 15.68 32.02 15.67 C 32.03 13.35 32.03 11.04 32.02 8.72 C 27.05 8.70 22.08 8.71 17.11 8.71 M 78.54 8.72 C 78.53 11.03 78.53 13.35 78.53 15.66 C 83.51 15.69 88.48 15.69 93.46 15.66 C 93.46 13.34 93.45 11.03 93.45 8.71 C 88.48 8.70 83.51 8.70 78.54 8.72 M 8.78 25.69 C 8.77 29.17 8.77 32.65 8.78 36.12 C 39.93 36.14 71.07 36.13 102.22 36.12 C 102.23 32.65 102.23 29.17 102.22 25.69 C 71.07 25.68 39.93 25.68 8.78 25.69 M 8.77 40.50 C 8.78 57.76 8.76 75.02 8.78 92.28 C 39.93 92.30 71.07 92.30 102.22 92.29 C 102.24 75.02 102.21 57.75 102.23 40.49 C 71.08 40.49 39.93 40.46 8.77 40.50 Z" />
<path fill="#5b5a5a" opacity="1.00" d=" M 26.77 53.99 C 28.23 53.99 29.69 53.99 31.15 53.99 C 31.15 56.31 31.16 58.62 31.15 60.94 C 33.49 60.94 35.83 60.96 38.17 60.96 C 38.17 62.40 38.17 63.85 38.17 65.29 C 35.83 65.29 33.50 65.30 31.16 65.30 C 31.16 67.62 31.15 69.94 31.15 72.26 C 29.69 72.26 28.23 72.26 26.77 72.26 C 26.76 69.94 26.75 67.62 26.75 65.30 C 24.26 65.32 21.78 65.29 19.29 65.26 C 19.30 63.82 19.31 62.39 19.31 60.96 C 21.80 60.96 24.28 60.94 26.77 60.94 C 26.76 58.62 26.76 56.31 26.77 53.99 Z" />
<path fill="#5b5a5a" opacity="1.00" d=" M 71.96 60.96 C 78.24 60.95 84.53 60.94 90.82 60.96 C 90.81 62.40 90.81 63.84 90.82 65.29 C 84.53 65.31 78.24 65.30 71.96 65.29 C 71.96 63.85 71.96 62.40 71.96 60.96 Z" />
</g>
</svg>
