<?xml version="1.0" encoding="UTF-8" ?>
<!DOCTYPE svg PUBLIC "-//W3C//DTD SVG 1.1//EN" "http://www.w3.org/Graphics/SVG/1.1/DTD/svg11.dtd">
<svg width="53pt" height="25pt" viewBox="0 0 53 25" version="1.1" xmlns="http://www.w3.org/2000/svg">
<g id="#b3b8befe">
<path fill="#b3b8be" opacity="1.00" d=" M 29.53 0.00 L 32.74 0.00 C 37.00 0.37 40.49 2.87 44.07 4.94 C 47.02 6.61 51.75 5.55 53.00 9.52 L 53.00 17.04 C 51.76 19.78 48.78 20.51 46.10 21.02 C 44.85 22.71 43.43 24.35 41.35 25.00 L 39.45 25.00 C 37.02 24.60 35.46 22.73 34.23 20.77 C 29.14 20.71 24.05 20.71 18.96 20.78 C 17.73 22.67 16.23 24.50 13.90 25.00 L 12.19 25.00 C 9.89 24.56 8.37 22.81 7.10 20.98 C 4.39 20.52 1.15 20.07 0.00 17.15 L 0.00 15.71 C 0.44 13.82 1.29 11.98 2.79 10.69 C 6.78 6.68 13.15 7.73 17.66 4.60 C 21.20 2.16 25.10 0.08 29.53 0.00 M 19.65 6.81 C 23.54 6.88 27.45 6.57 31.33 6.99 C 31.45 7.51 31.70 8.54 31.82 9.05 L 30.89 9.62 C 23.91 10.28 16.81 9.13 9.87 10.40 C 6.48 10.88 3.17 13.37 2.86 16.97 C 4.26 17.29 5.66 17.63 7.08 17.90 C 8.15 15.96 9.57 13.88 11.99 13.63 C 15.03 12.96 17.64 15.18 18.85 17.77 C 24.01 17.82 29.18 17.81 34.35 17.78 C 35.47 15.59 37.34 13.47 40.03 13.55 C 42.91 13.30 44.98 15.57 46.11 17.94 C 47.37 17.62 48.62 17.28 49.87 16.93 C 50.01 14.43 50.05 11.92 49.81 9.43 C 46.01 9.18 42.41 7.85 39.35 5.61 C 33.47 1.39 25.15 2.49 19.65 6.81 M 11.26 17.08 C 9.76 18.09 9.83 20.57 11.37 21.51 C 13.09 22.97 16.08 21.34 15.80 19.08 C 15.80 16.92 12.87 15.66 11.26 17.08 M 38.21 17.29 C 35.45 19.72 39.78 23.89 42.18 21.23 C 44.94 18.86 40.65 14.60 38.21 17.29 Z" />
</g>
</svg>
