<?xml version="1.0" encoding="UTF-8" ?>
<!DOCTYPE svg PUBLIC "-//W3C//DTD SVG 1.1//EN" "http://www.w3.org/Graphics/SVG/1.1/DTD/svg11.dtd">
<svg width="173pt" height="73pt" viewBox="0 0 173 73" version="1.1" xmlns="http://www.w3.org/2000/svg">
<g id="#5b5a5aff">
<path fill="#5b5a5a" opacity="1.00" d=" M 68.81 0.00 L 76.46 0.00 C 83.57 0.77 90.82 1.62 97.43 4.52 C 104.48 7.48 110.61 12.13 117.34 15.67 C 124.14 18.90 131.57 20.53 138.90 22.09 C 146.11 23.65 153.92 23.51 160.39 27.46 C 167.60 31.45 172.52 39.13 173.00 47.37 L 173.00 50.32 C 172.71 53.50 172.43 56.68 172.22 59.87 C 167.01 59.87 161.80 59.85 156.59 59.90 C 154.38 66.98 148.09 72.56 140.54 73.00 L 138.67 73.00 C 131.10 72.58 124.74 67.02 122.51 59.92 C 100.57 59.88 78.64 59.85 56.70 59.93 C 54.49 67.05 48.12 72.63 40.54 73.00 L 38.75 73.00 C 31.15 72.56 24.80 66.92 22.59 59.78 C 16.13 58.70 9.12 57.52 4.18 52.81 C 1.77 50.66 0.55 47.54 0.00 44.41 L 0.00 24.27 C 0.77 21.34 2.20 18.38 4.94 16.84 C 8.86 14.40 13.66 15.87 17.96 15.07 C 21.10 14.04 23.91 12.24 26.91 10.91 C 40.16 5.03 54.33 1.08 68.81 0.00 M 53.51 11.14 C 52.70 15.16 51.90 19.18 51.10 23.20 C 60.38 23.20 69.66 23.20 78.94 23.21 C 77.27 18.37 75.59 13.54 73.91 8.70 C 67.04 8.74 60.20 9.59 53.51 11.14 M 83.46 9.61 C 85.02 14.14 86.59 18.66 88.17 23.18 C 96.37 23.24 104.58 23.15 112.79 23.23 C 103.46 17.86 94.48 10.98 83.46 9.61 M 37.00 16.21 C 38.62 18.38 40.40 20.41 42.34 22.29 C 42.96 19.43 43.54 16.56 44.11 13.68 C 41.73 14.50 39.36 15.33 37.00 16.21 M 17.02 24.08 C 14.09 24.44 10.35 22.94 8.20 25.63 C 12.66 26.12 18.10 24.74 21.52 28.47 C 25.92 32.94 23.83 40.71 19.03 44.02 C 16.37 46.15 12.87 46.24 9.65 46.56 C 13.60 49.05 18.12 50.32 22.71 50.96 C 24.92 43.69 31.63 38.32 39.25 37.94 C 39.72 35.65 40.18 33.36 40.63 31.07 C 35.54 28.65 31.82 24.31 28.86 19.63 C 24.95 21.18 21.50 24.57 17.02 24.08 M 49.35 31.94 C 48.82 34.59 48.30 37.23 47.80 39.88 C 52.10 42.41 54.96 46.52 56.83 51.05 C 64.63 51.30 72.44 51.06 80.25 51.14 C 80.25 44.74 80.25 38.34 80.25 31.94 C 69.95 31.93 59.65 31.92 49.35 31.94 M 88.96 31.93 C 88.96 38.34 88.96 44.74 88.97 51.14 C 100.17 51.13 111.37 51.18 122.58 51.11 C 124.74 43.58 131.99 37.71 139.96 38.09 C 147.65 38.07 154.42 43.82 156.49 51.08 C 159.07 51.13 161.64 51.13 164.22 51.14 C 164.21 49.42 164.19 47.70 164.16 45.98 C 161.21 46.54 157.85 46.62 155.51 44.44 C 152.35 41.80 152.14 37.28 153.31 33.59 C 146.42 31.40 139.14 32.00 132.02 31.93 C 117.67 31.93 103.32 31.93 88.96 31.93 M 12.12 34.47 C 12.25 35.69 12.39 36.91 12.55 38.13 C 13.61 37.01 14.66 35.86 15.70 34.71 C 14.51 34.62 13.31 34.54 12.12 34.47 M 36.35 47.45 C 30.23 49.67 29.11 58.86 34.49 62.51 C 39.34 66.48 47.50 63.17 48.26 56.97 C 49.68 50.53 42.33 44.64 36.35 47.45 M 136.26 47.43 C 130.10 49.63 128.97 58.91 134.40 62.55 C 139.24 66.45 147.31 63.18 148.12 57.03 C 149.59 50.59 142.27 44.65 136.26 47.43 Z" />
<path fill="#5b5a5a" opacity="1.00" d=" M 37.40 50.37 C 41.42 48.34 46.46 52.57 45.11 56.88 C 44.34 60.73 39.13 62.49 36.18 59.90 C 32.94 57.51 33.64 51.87 37.40 50.37 M 39.22 54.06 C 37.34 54.50 38.20 57.57 40.04 56.96 C 42.06 56.56 41.11 53.42 39.22 54.06 Z" />
<path fill="#5b5a5a" opacity="1.00" d=" M 137.33 50.34 C 141.01 48.57 145.65 51.93 145.15 55.97 C 144.99 59.98 139.97 62.57 136.63 60.31 C 132.83 58.21 133.25 51.89 137.33 50.34 M 139.16 54.05 C 137.24 54.46 138.10 57.60 139.97 56.96 C 141.94 56.53 141.03 53.45 139.16 54.05 Z" />
</g>
</svg>
