<?xml version="1.0" encoding="UTF-8" ?>
<!DOCTYPE svg PUBLIC "-//W3C//DTD SVG 1.1//EN" "http://www.w3.org/Graphics/SVG/1.1/DTD/svg11.dtd">
<svg width="53pt" height="43pt" viewBox="0 0 53 43" version="1.1" xmlns="http://www.w3.org/2000/svg">
<g id="#b3b8befe">
<path fill="#b3b8be" opacity="1.00" d=" M 0.00 9.22 C 3.18 8.34 6.48 8.77 9.72 8.86 C 12.85 15.15 16.05 21.40 19.22 27.67 C 23.77 27.66 28.33 27.66 32.89 27.67 C 33.34 26.44 33.80 25.22 34.26 23.99 C 34.63 23.00 34.99 22.00 35.36 21.01 C 35.86 19.65 36.35 18.30 36.85 16.94 C 31.54 16.87 26.23 17.05 20.93 16.90 C 19.20 17.27 18.03 14.42 20.13 14.10 C 24.39 13.66 28.70 14.07 32.98 13.92 C 35.61 13.97 38.42 13.52 40.85 14.82 C 38.62 19.94 37.52 25.72 34.63 30.46 C 28.91 30.85 23.17 30.48 17.45 30.60 C 14.02 24.39 11.00 17.96 7.75 11.66 C 5.16 11.74 2.56 11.77 0.00 11.32 L 0.00 9.22 Z" />
<path fill="#b3b8be" opacity="1.00" d=" M 15.73 35.74 C 17.43 32.41 22.82 32.46 24.46 35.82 C 26.10 38.57 24.24 42.01 21.41 43.00 L 18.83 43.00 C 15.85 42.11 14.03 38.50 15.73 35.74 M 19.31 36.27 C 16.89 37.22 18.41 40.99 20.85 40.01 C 23.26 39.04 21.67 35.31 19.31 36.27 Z" />
<path fill="#b3b8be" opacity="1.00" d=" M 28.29 37.17 C 28.89 33.26 34.50 31.86 36.94 34.94 C 39.46 37.58 37.78 42.01 34.45 43.00 L 31.91 43.00 C 29.59 42.10 27.62 39.80 28.29 37.17 M 32.30 36.31 C 29.99 37.37 31.64 41.08 34.02 39.98 C 36.40 38.88 34.64 35.23 32.30 36.31 Z" />
</g>
<g id="#ff8500ff">
<path fill="#ff8500" opacity="1.00" d=" M 25.00 23.86 C 23.14 24.34 23.14 20.55 25.03 21.11 C 28.47 20.81 31.92 21.06 35.36 21.01 C 34.99 22.00 34.63 23.00 34.26 23.99 C 31.17 23.96 28.07 24.20 25.00 23.86 Z" />
</g>
</svg>
