<?xml version="1.0" encoding="UTF-8" ?>
<!DOCTYPE svg PUBLIC "-//W3C//DTD SVG 1.1//EN" "http://www.w3.org/Graphics/SVG/1.1/DTD/svg11.dtd">
<svg width="100pt" height="96pt" viewBox="0 0 100 96" version="1.1" xmlns="http://www.w3.org/2000/svg">
<g id="#b4b9bfff">
<path fill="#b4b9bf" opacity="1.00" d=" M 48.35 0.00 L 52.62 0.00 C 56.10 0.77 59.13 2.95 60.99 5.99 C 64.61 11.43 68.26 16.86 71.88 22.31 C 78.73 24.49 85.69 26.37 92.50 28.69 C 96.67 30.13 99.51 34.15 100.00 38.47 L 100.00 40.26 C 99.66 42.49 98.86 44.65 97.48 46.44 C 93.48 51.77 89.10 56.80 85.11 62.14 C 84.21 63.21 84.54 64.69 84.45 65.96 C 84.48 72.56 84.94 79.16 84.64 85.74 C 84.21 91.32 79.14 95.69 73.67 96.00 L 72.50 96.00 C 64.53 94.31 57.22 90.38 49.36 88.35 C 42.09 90.29 35.19 93.49 27.90 95.36 C 21.49 96.91 14.50 91.68 14.24 85.08 C 14.11 78.00 14.97 70.94 15.07 63.86 C 15.26 62.50 14.21 61.47 13.55 60.43 C 11.11 57.21 8.63 54.01 6.21 50.77 C 3.81 47.53 0.87 44.46 0.00 40.38 L 0.00 37.39 C 0.64 33.02 3.79 29.19 8.04 27.91 C 14.90 25.76 21.87 23.94 28.76 21.88 C 32.88 16.27 36.86 10.56 41.00 4.97 C 42.75 2.46 45.41 0.75 48.35 0.00 M 50.10 9.72 C 46.00 15.43 41.88 21.13 37.76 26.82 C 36.22 29.03 34.08 30.88 31.45 31.64 C 24.29 33.90 16.98 35.68 9.85 38.04 C 12.02 42.36 15.49 45.84 18.23 49.79 C 21.08 53.89 25.43 57.66 25.29 63.07 C 25.17 70.31 24.40 77.53 24.42 84.77 L 25.08 85.45 C 32.63 83.71 39.78 80.42 47.24 78.29 C 49.23 77.78 51.30 78.20 53.24 78.75 C 59.87 80.84 66.26 83.66 72.91 85.69 C 74.64 86.42 74.64 84.06 74.58 83.03 C 74.50 76.65 74.32 70.27 74.28 63.88 C 74.24 61.53 74.70 59.09 76.11 57.16 C 80.65 50.94 85.88 45.23 90.25 38.88 C 82.92 35.80 75.04 34.29 67.60 31.52 C 65.76 30.79 64.31 29.36 63.25 27.72 C 60.19 23.14 57.13 18.57 54.10 13.98 C 52.98 12.38 52.09 10.39 50.10 9.72 Z" />
</g>
<g id="#ff8500ff">
<path fill="#ff8500" opacity="1.00" d=" M 44.37 34.67 C 53.44 31.31 64.38 37.38 66.30 46.85 C 68.90 56.56 61.01 67.18 50.97 67.54 C 41.68 68.43 32.81 60.38 32.87 51.04 C 32.58 43.82 37.55 36.92 44.37 34.67 M 48.14 44.12 C 43.31 45.11 41.31 51.77 44.80 55.24 C 47.97 59.02 54.81 57.62 56.22 52.89 C 58.15 48.07 53.09 42.60 48.14 44.12 Z" />
</g>
</svg>
