<?xml version="1.0" encoding="UTF-8" ?>
<!DOCTYPE svg PUBLIC "-//W3C//DTD SVG 1.1//EN" "http://www.w3.org/Graphics/SVG/1.1/DTD/svg11.dtd">
<svg width="40pt" height="80pt" viewBox="0 0 40 80" version="1.1" xmlns="http://www.w3.org/2000/svg">
<g id="#000000ff">
<path fill="#000000" opacity="1.00" d=" M 26.67 0.00 L 39.62 0.00 C 39.71 0.10 39.90 0.29 40.00 0.38 L 40.00 15.23 C 36.79 15.45 33.56 15.38 30.35 15.66 C 28.97 15.77 27.50 16.55 27.16 17.99 C 26.43 21.53 26.81 25.17 26.79 28.75 C 30.96 28.65 35.14 28.78 39.31 28.80 C 39.64 34.25 39.69 39.72 39.28 45.17 C 35.11 45.14 30.94 45.27 26.77 45.19 C 26.54 56.79 27.20 68.42 26.43 80.00 L 11.59 80.00 C 10.63 68.44 11.45 56.78 11.17 45.18 C 7.44 45.31 3.70 45.30 0.00 44.77 L 0.00 29.32 C 3.66 28.39 7.45 28.74 11.18 28.75 C 11.31 21.81 10.24 14.26 14.04 8.03 C 16.60 3.42 21.56 0.73 26.67 0.00 Z" />
</g>
</svg>
