<?xml version="1.0" encoding="UTF-8" ?>
<!DOCTYPE svg PUBLIC "-//W3C//DTD SVG 1.1//EN" "http://www.w3.org/Graphics/SVG/1.1/DTD/svg11.dtd">
<svg width="75pt" height="70pt" viewBox="0 0 75 70" version="1.1" xmlns="http://www.w3.org/2000/svg">
<g id="#ff8600ff">
<path fill="#ff8600" opacity="1.00" d=" M 37.37 0.00 L 37.69 0.00 C 41.47 7.50 45.83 14.73 49.96 22.06 C 58.31 23.56 66.65 25.15 74.98 26.79 L 75.00 25.12 L 75.00 26.80 C 69.11 32.84 63.34 38.98 57.50 45.06 C 58.54 53.37 59.62 61.68 60.67 69.99 C 53.03 66.55 45.48 62.88 37.80 59.54 C 29.79 62.41 22.19 66.62 14.33 69.99 C 15.38 61.68 16.46 53.38 17.50 45.07 C 11.72 39.00 5.91 32.96 0.15 26.87 L 0.00 27.84 L 0.00 26.80 C 8.34 25.11 16.72 23.59 25.09 22.03 C 29.20 14.70 33.47 7.45 37.37 0.00 Z" />
</g>
</svg>
