<?xml version="1.0" encoding="UTF-8" ?>
<!DOCTYPE svg PUBLIC "-//W3C//DTD SVG 1.1//EN" "http://www.w3.org/Graphics/SVG/1.1/DTD/svg11.dtd">
<svg width="200pt" height="200pt" viewBox="0 0 200 200" version="1.1" xmlns="http://www.w3.org/2000/svg">
<g id="#ff8500ff">
<path fill="#ff8500" opacity="1.00" d=" M 98.51 0.00 L 100.60 0.00 C 104.51 0.54 107.84 3.94 107.73 7.98 C 107.80 20.01 107.81 32.04 107.73 44.07 C 107.82 48.23 104.17 51.95 100.02 52.00 C 95.66 52.27 91.60 48.42 91.74 44.04 C 91.65 32.02 91.65 19.99 91.73 7.98 C 91.60 4.03 94.79 0.79 98.51 0.00 Z" />
<path fill="#ff8500" opacity="1.00" d=" M 32.23 27.26 C 35.13 26.19 38.55 27.08 40.67 29.32 C 49.19 37.81 57.73 46.30 66.20 54.85 C 69.39 57.80 69.41 63.32 66.24 66.29 C 63.27 69.40 57.82 69.37 54.88 66.22 C 46.18 57.55 37.46 48.88 28.84 40.12 C 24.98 36.19 26.99 28.83 32.23 27.26 Z" />
<path fill="#ff8500" opacity="1.00" d=" M 161.47 27.70 C 165.17 25.68 170.22 27.24 172.18 30.96 C 173.96 34.05 173.29 38.23 170.70 40.65 C 162.23 49.19 153.70 57.69 145.18 66.17 C 142.25 69.36 136.75 69.43 133.76 66.30 C 130.59 63.32 130.61 57.80 133.81 54.86 C 141.96 46.65 150.18 38.50 158.32 30.28 C 159.30 29.34 160.27 28.36 161.47 27.70 Z" />
<path fill="#ff8500" opacity="1.00" d=" M 95.40 63.54 C 103.16 62.65 111.21 64.20 118.00 68.10 C 129.31 74.43 136.76 87.06 136.69 100.04 C 137.08 116.27 125.40 131.72 109.73 135.86 C 94.57 140.38 77.11 133.72 68.69 120.36 C 61.48 109.45 60.79 94.63 66.98 83.10 C 72.47 72.43 83.47 64.86 95.40 63.54 M 97.33 79.49 C 88.63 80.37 80.98 87.31 79.29 95.89 C 77.48 103.84 80.90 112.62 87.58 117.27 C 93.64 121.71 102.16 122.41 108.87 119.06 C 114.45 116.37 118.71 111.08 120.07 105.03 C 121.71 98.35 119.71 90.94 114.97 85.97 C 110.56 81.17 103.80 78.73 97.33 79.49 Z" />
<path fill="#ff8500" opacity="1.00" d=" M 0.00 98.75 C 0.63 94.90 3.96 91.61 7.98 91.72 C 19.65 91.58 31.33 91.70 43.00 91.67 C 47.08 91.31 51.22 94.14 51.87 98.27 C 52.90 102.99 48.86 107.87 44.03 107.74 C 32.05 107.85 20.06 107.83 8.09 107.75 C 4.04 107.87 0.62 104.62 0.00 100.71 L 0.00 98.75 Z" />
<path fill="#ff8500" opacity="1.00" d=" M 148.00 99.95 C 147.77 95.60 151.62 91.60 155.99 91.72 C 168.00 91.63 180.03 91.62 192.04 91.73 C 195.99 91.62 199.22 94.80 200.00 98.53 L 200.00 100.55 C 199.50 104.50 196.05 107.84 191.99 107.75 C 180.01 107.85 168.03 107.83 156.06 107.75 C 151.83 107.86 148.00 104.19 148.00 99.95 Z" />
<path fill="#ff8500" opacity="1.00" d=" M 57.19 132.13 C 61.41 130.00 67.05 132.53 68.28 137.08 C 69.31 140.18 68.05 143.59 65.67 145.71 C 57.33 154.04 49.01 162.41 40.63 170.71 C 37.70 173.92 32.18 174.00 29.19 170.84 C 26.00 167.84 26.07 162.28 29.31 159.35 C 37.47 151.14 45.69 142.98 53.84 134.76 C 54.87 133.78 55.89 132.74 57.19 132.13 Z" />
<path fill="#ff8500" opacity="1.00" d=" M 135.39 132.45 C 138.70 130.43 143.15 131.39 145.64 134.26 C 154.12 142.82 162.75 151.23 171.15 159.86 C 175.27 164.03 172.69 171.91 166.96 172.98 C 163.38 173.98 160.04 171.80 157.80 169.20 C 149.83 161.14 141.78 153.18 133.80 145.14 C 129.99 141.69 130.88 134.85 135.39 132.45 Z" />
<path fill="#ff8500" opacity="1.00" d=" M 91.73 156.01 C 91.57 151.60 95.66 147.72 100.04 148.01 C 104.19 148.06 107.83 151.80 107.73 155.96 C 107.81 167.95 107.80 179.95 107.73 191.95 C 107.87 195.99 104.59 199.38 100.71 200.00 L 98.74 200.00 C 94.91 199.38 91.62 196.05 91.73 192.04 C 91.65 180.04 91.65 168.02 91.73 156.01 Z" />
</g>
</svg>
