<?xml version="1.0" encoding="utf-8"?>
<!-- Generator: Adobe Illustrator 20.1.0, SVG Export Plug-In . SVG Version: 6.00 Build 0)  -->
<svg version="1.1" id="Слой_1" xmlns="http://www.w3.org/2000/svg" xmlns:xlink="http://www.w3.org/1999/xlink" x="0px" y="0px"
	 width="16px" height="15px" viewBox="0 0 16 15" style="enable-background:new 0 0 16 15;" xml:space="preserve">
<style type="text/css">
	.st0{clip-path:url(#SVGID_2_);}
</style>
<g>
	<defs>
		<rect id="SVGID_1_" width="16" height="15"/>
	</defs>
	<clipPath id="SVGID_2_">
		<use xlink:href="#SVGID_1_"  style="overflow:visible;"/>
	</clipPath>
	<path class="st0" d="M8,1.5c1.4,0,2.5,1.1,2.5,2.5v2c0,0,0,0.1,0,0.1c0,0.1,0,0.1,0,0.2l-0.1,1.1l1.1,0.4c1.8,0.7,3.1,2.5,3.1,4.4
		v1.3h-13v-1.3c0-2,1.2-3.7,3.1-4.4l1.1-0.4L5.5,6.3c0-0.1,0-0.1,0-0.2c0,0,0-0.1,0-0.1V4C5.5,2.6,6.6,1.5,8,1.5 M8,0
		C5.8,0,4,1.8,4,4v2c0,0.1,0,0.3,0,0.4c-2.4,0.9-4,3.2-4,5.8V15h16v-2.8c0-2.7-1.7-4.9-4-5.8c0-0.1,0-0.3,0-0.4V4C12,1.8,10.2,0,8,0
		"/>
</g>
</svg>
