<?xml version="1.0" encoding="UTF-8" ?>
<!DOCTYPE svg PUBLIC "-//W3C//DTD SVG 1.1//EN" "http://www.w3.org/Graphics/SVG/1.1/DTD/svg11.dtd">
<svg width="80pt" height="45pt" viewBox="0 0 80 45" version="1.1" xmlns="http://www.w3.org/2000/svg">
<g id="#000000ff">
<path fill="#000000" opacity="1.00" d=" M 29.29 0.00 L 44.44 0.00 C 45.38 0.87 46.54 1.74 46.46 3.18 C 46.98 8.43 46.15 13.74 46.80 18.99 C 47.02 20.31 47.88 22.35 49.57 21.61 C 55.89 16.67 58.16 8.58 62.05 1.90 C 67.99 1.19 74.08 1.25 80.00 2.19 L 80.00 4.23 C 77.58 11.39 71.89 16.64 67.90 22.87 C 66.99 24.15 66.41 25.97 67.72 27.22 C 71.78 31.99 77.25 35.67 80.00 41.49 L 80.00 43.35 C 79.68 43.56 79.05 43.98 78.73 44.19 L 79.10 45.00 L 64.04 45.00 C 57.80 43.37 55.28 36.65 49.81 33.74 C 47.24 36.38 46.75 40.03 46.42 43.53 C 46.01 43.90 45.20 44.63 44.80 45.00 L 38.62 45.00 C 30.51 44.49 22.93 40.38 17.78 34.15 C 10.19 25.12 4.77 14.50 0.00 3.78 L 0.00 2.05 C 4.63 1.43 9.34 1.25 13.99 1.67 C 16.15 1.54 16.82 3.83 17.66 5.35 C 20.59 11.65 23.61 18.34 29.31 22.64 C 32.37 18.05 31.73 12.19 31.13 6.99 C 31.01 4.32 28.21 3.42 26.39 2.09 C 27.35 1.38 28.31 0.68 29.29 0.00 Z" />
</g>
</svg>
