<?xml version="1.0" encoding="UTF-8" ?>
<!DOCTYPE svg PUBLIC "-//W3C//DTD SVG 1.1//EN" "http://www.w3.org/Graphics/SVG/1.1/DTD/svg11.dtd">
<svg width="200pt" height="136pt" viewBox="0 0 200 136" version="1.1" xmlns="http://www.w3.org/2000/svg">
<g id="#5b5a5aff">
<path fill="#5b5a5a" opacity="1.00" d=" M 115.62 0.00 L 118.17 0.00 C 122.64 1.83 121.23 7.17 121.36 10.94 C 124.66 9.34 128.25 8.23 131.95 8.33 C 148.60 8.35 165.25 8.30 181.89 8.35 C 191.32 8.06 199.66 16.18 200.00 25.53 L 200.00 67.48 C 198.26 70.55 195.90 73.19 193.45 75.70 C 193.44 77.23 193.45 78.75 193.46 80.28 C 196.59 82.31 199.17 85.18 200.00 88.91 L 200.00 106.73 C 196.81 109.34 192.12 111.27 188.31 108.73 C 183.55 105.08 178.92 101.18 173.61 98.34 C 165.04 93.86 154.43 93.54 145.61 97.54 C 142.07 98.98 138.82 101.17 135.11 102.19 C 115.23 103.00 95.31 102.30 75.40 102.25 C 77.54 104.77 79.24 107.61 80.59 110.63 C 101.54 110.65 122.48 110.65 143.43 110.63 C 146.27 102.91 153.53 96.65 162.00 96.66 C 172.49 96.16 182.11 105.45 182.08 115.93 C 182.49 125.92 174.21 134.97 164.36 136.00 L 160.75 136.00 C 151.85 135.18 144.58 128.01 142.83 119.38 C 122.28 119.37 101.73 119.38 81.18 119.38 C 79.43 127.96 72.26 135.10 63.42 136.00 L 59.80 136.00 C 54.05 135.35 48.91 132.16 45.42 127.61 C 41.97 132.08 36.95 135.24 31.30 136.00 L 27.61 136.00 C 18.38 135.14 10.32 127.30 9.69 117.98 C 9.03 112.14 11.58 106.50 15.44 102.25 C 11.32 102.27 7.15 102.65 3.05 102.08 C 1.49 101.77 0.81 100.19 0.00 99.01 L 0.00 96.84 C 0.92 95.39 2.00 93.58 3.99 93.70 C 15.00 93.40 26.04 93.74 37.07 93.58 C 39.35 93.60 41.35 92.34 43.29 91.30 C 49.06 88.00 54.90 84.82 60.68 81.55 C 62.45 80.62 64.59 79.37 66.58 80.49 C 69.20 81.67 69.89 85.72 67.56 87.53 C 64.23 90.00 60.40 91.68 56.77 93.65 C 70.16 93.54 83.55 93.63 96.93 93.60 C 96.95 81.06 96.93 68.52 96.95 55.98 C 99.56 55.98 102.18 55.97 104.80 55.97 C 104.80 51.93 104.79 47.88 104.83 43.84 C 100.94 39.85 96.97 35.94 93.02 32.01 C 91.49 30.49 89.67 28.45 90.64 26.12 C 91.49 23.25 95.54 22.17 97.63 24.36 C 102.63 29.00 107.27 34.03 112.17 38.77 C 112.13 33.39 112.03 27.99 112.50 22.62 C 112.97 16.43 112.37 10.21 112.77 4.02 C 112.68 2.13 114.37 1.08 115.62 0.00 M 121.81 23.45 C 121.19 26.45 121.45 29.55 121.30 32.59 C 122.73 32.30 124.16 31.99 125.60 31.73 C 121.41 30.89 121.21 24.44 125.35 23.40 C 131.87 22.90 138.44 23.35 144.98 23.20 C 144.97 21.15 144.97 19.11 144.98 17.07 C 140.29 17.12 135.59 16.96 130.91 17.11 C 126.98 17.10 123.06 19.68 121.81 23.45 M 153.71 17.11 C 153.79 24.53 153.56 31.96 153.80 39.37 C 154.19 39.60 154.95 40.05 155.33 40.28 C 155.59 32.52 155.42 24.76 155.43 17.00 L 153.71 17.11 M 164.19 17.07 C 164.18 24.71 164.19 32.35 164.18 39.98 C 166.43 41.68 168.69 43.38 170.94 45.07 C 177.71 45.06 184.49 45.07 191.26 45.06 C 191.21 38.72 191.38 32.37 191.21 26.03 C 191.25 21.21 186.89 16.96 182.08 17.10 C 176.12 16.99 170.15 17.11 164.19 17.07 M 121.33 40.19 C 121.44 44.28 121.39 48.38 121.41 52.47 C 127.68 52.51 133.96 52.36 140.24 52.56 C 139.92 56.51 140.37 60.80 138.21 64.34 C 136.31 68.05 132.72 70.51 128.84 71.78 C 130.87 71.73 132.90 71.73 134.93 71.73 C 134.93 77.55 134.93 83.37 134.93 89.20 C 130.85 89.20 126.78 89.20 122.71 89.20 C 122.57 83.33 123.12 77.45 122.65 71.60 C 121.52 78.79 122.16 86.22 121.84 93.51 C 125.74 93.55 129.66 93.86 133.55 93.43 C 138.55 91.43 143.24 88.65 148.47 87.21 C 148.48 72.88 148.48 58.54 148.47 44.20 C 147.60 44.20 145.86 44.20 144.99 44.19 C 144.98 43.31 144.97 41.55 144.97 40.67 C 137.09 40.41 129.15 41.23 121.33 40.19 M 164.18 50.97 C 164.21 62.74 164.17 74.52 164.20 86.29 C 174.58 87.44 183.12 93.68 191.25 99.69 C 191.22 96.46 191.44 93.22 191.14 90.00 C 190.20 87.38 186.78 88.66 184.72 88.28 C 184.69 82.56 184.74 76.84 184.69 71.12 C 181.07 70.48 179.15 66.53 181.28 63.39 C 178.90 63.31 175.85 63.94 174.25 61.66 C 172.24 59.28 173.86 55.06 177.00 54.79 C 181.95 54.40 186.93 54.87 191.89 54.63 C 184.77 52.85 177.29 54.23 170.02 53.81 C 167.62 54.17 165.97 52.18 164.18 50.97 M 105.68 64.73 C 105.67 74.27 105.68 83.81 105.68 93.35 C 107.83 93.35 109.99 93.35 112.15 93.35 C 112.16 83.81 112.15 74.28 112.15 64.74 C 109.99 64.75 107.84 64.75 105.68 64.73 M 42.98 102.32 C 43.81 103.25 44.64 104.19 45.46 105.13 C 46.26 104.18 47.07 103.24 47.87 102.30 C 46.24 102.31 44.61 102.32 42.98 102.32 M 27.49 105.52 C 23.50 106.17 20.05 109.20 18.84 113.04 C 16.63 119.29 21.46 126.59 28.00 127.18 C 34.34 128.11 40.53 122.39 40.17 116.01 C 40.17 109.64 33.74 104.31 27.49 105.52 M 59.47 105.58 C 54.95 106.46 51.23 110.43 50.73 115.03 C 49.84 121.04 54.90 127.02 60.95 127.24 C 67.09 127.74 72.81 122.17 72.49 116.02 C 72.49 109.53 65.82 104.15 59.47 105.58 M 160.44 105.56 C 156.56 106.29 153.22 109.26 152.03 113.02 C 149.83 119.20 154.53 126.44 160.99 127.16 C 167.38 128.22 173.73 122.47 173.36 116.02 C 173.36 109.56 166.76 104.19 160.44 105.56 Z" />
<path fill="#5b5a5a" opacity="1.00" d=" M 26.18 107.26 C 32.44 104.68 39.71 110.88 38.27 117.45 C 37.41 124.26 28.17 127.54 23.23 122.77 C 18.00 118.57 19.75 109.23 26.18 107.26 Z" />
<path fill="#5b5a5a" opacity="1.00" d=" M 58.27 107.34 C 62.62 105.54 68.05 107.77 69.89 112.10 C 72.17 116.74 69.57 122.89 64.66 124.50 C 60.11 126.28 54.54 123.63 52.98 119.02 C 51.21 114.53 53.72 108.97 58.27 107.34 Z" />
<path fill="#5b5a5a" opacity="1.00" d=" M 159.23 107.30 C 165.57 104.58 173.01 110.93 171.43 117.59 C 170.47 124.36 161.24 127.51 156.36 122.72 C 151.24 118.52 152.92 109.35 159.23 107.30 Z" />
</g>
</svg>
