<?xml version="1.0" encoding="UTF-8" ?>
<!DOCTYPE svg PUBLIC "-//W3C//DTD SVG 1.1//EN" "http://www.w3.org/Graphics/SVG/1.1/DTD/svg11.dtd">
<svg width="200pt" height="150pt" viewBox="0 0 200 150" version="1.1" xmlns="http://www.w3.org/2000/svg">
<g id="#b4b9bfff">
<path fill="#b4b9bf" opacity="1.00" d=" M 97.90 0.00 L 101.53 0.00 C 116.48 0.21 130.43 10.47 135.28 24.58 C 145.85 24.65 156.43 24.53 167.00 24.64 C 171.17 24.64 174.98 27.99 175.61 32.10 C 176.65 37.25 172.28 42.59 167.03 42.57 C 156.96 42.66 146.89 42.56 136.82 42.61 C 134.48 56.65 123.47 68.67 109.63 72.11 C 109.56 84.74 109.68 97.37 109.58 110.01 C 109.60 114.02 106.53 117.73 102.62 118.56 C 97.31 119.99 91.49 115.48 91.62 109.97 C 91.54 97.36 91.62 84.75 91.58 72.13 C 77.77 68.61 66.69 56.69 64.37 42.60 C 54.24 42.58 44.10 42.63 33.97 42.59 C 29.30 42.75 25.02 38.75 24.88 34.08 C 24.47 29.07 28.95 24.42 33.97 24.62 C 44.61 24.56 55.25 24.63 65.89 24.60 C 70.60 11.04 83.61 1.11 97.90 0.00 M 95.44 18.72 C 88.56 20.62 83.12 26.81 82.17 33.89 C 81.08 40.75 84.26 48.02 90.02 51.89 C 95.69 55.91 103.66 56.28 109.69 52.82 C 116.28 49.25 120.22 41.40 118.99 33.98 C 117.87 23.12 105.81 15.38 95.44 18.72 Z" />
<path fill="#b4b9bf" opacity="1.00" d=" M 5.15 98.06 C 14.75 81.64 24.21 65.14 33.89 48.77 C 43.89 65.90 53.94 83.01 63.78 100.23 C 70.65 112.47 68.61 128.80 59.00 139.00 C 52.83 145.87 43.73 149.75 34.55 150.00 L 32.85 150.00 C 16.32 149.80 1.42 136.12 0.00 119.62 L 0.00 112.71 C 0.67 107.52 2.47 102.54 5.15 98.06 M 33.84 84.58 C 29.27 92.47 24.65 100.32 20.10 108.22 C 17.24 112.98 17.11 119.26 19.97 124.06 C 23.94 131.40 33.99 134.09 41.28 130.24 C 48.93 126.56 52.23 116.26 47.99 108.87 C 43.34 100.73 38.65 92.61 33.84 84.58 Z" />
</g>
<g id="#ff8500ff">
<path fill="#ff8500" opacity="1.00" d=" M 136.90 98.97 C 146.60 82.19 156.37 65.45 166.13 48.70 C 175.84 65.36 185.54 82.03 195.22 98.70 C 197.73 103.00 199.31 107.78 200.00 112.70 L 200.00 119.48 C 199.10 128.18 194.78 136.47 188.05 142.06 C 182.32 146.99 174.86 149.58 167.37 150.00 L 165.48 150.00 C 152.09 149.86 139.28 141.15 134.49 128.61 C 130.60 119.05 131.63 107.80 136.90 98.97 M 165.70 85.26 C 161.23 92.95 156.74 100.62 152.30 108.32 C 149.78 112.61 149.40 118.09 151.50 122.62 C 154.69 130.28 164.27 133.99 171.91 130.96 C 180.33 128.05 184.72 117.31 180.49 109.40 C 175.96 101.18 171.08 93.15 166.41 85.01 C 166.23 85.07 165.88 85.20 165.70 85.26 Z" />
</g>
</svg>
