<?xml version="1.0" encoding="UTF-8" ?>
<!DOCTYPE svg PUBLIC "-//W3C//DTD SVG 1.1//EN" "http://www.w3.org/Graphics/SVG/1.1/DTD/svg11.dtd">
<svg width="96pt" height="125pt" viewBox="0 0 96 125" version="1.1" xmlns="http://www.w3.org/2000/svg">
<g id="#5b5a5aff">
<path fill="#5b5a5a" opacity="1.00" d=" M 20.17 0.00 L 60.49 0.00 C 60.49 6.10 60.49 12.20 60.49 18.30 C 72.30 27.15 84.22 35.86 96.00 44.75 L 96.00 125.00 L 20.16 125.00 C 20.16 119.73 20.18 114.46 20.15 109.19 C 9.73 106.91 1.34 97.89 0.00 87.28 L 0.00 80.98 C 0.89 74.08 5.35 68.57 8.85 62.82 C 12.49 56.83 16.52 51.06 19.94 44.95 C 20.47 30.00 20.01 14.98 20.17 0.00 M 28.94 8.80 C 28.92 11.69 28.92 14.59 28.94 17.48 C 30.39 17.45 31.85 17.43 33.31 17.42 C 33.32 14.55 33.32 11.68 33.31 8.80 C 31.85 8.81 30.39 8.81 28.94 8.80 M 37.71 8.80 C 37.70 11.64 37.69 14.49 37.71 17.33 C 39.16 17.32 40.62 17.32 42.07 17.33 C 42.09 14.49 42.09 11.64 42.07 8.80 C 40.62 8.81 39.16 8.81 37.71 8.80 M 46.47 17.23 C 48.22 17.20 49.97 17.19 51.72 17.18 C 51.73 14.39 51.73 11.60 51.72 8.81 C 49.98 8.80 48.23 8.80 46.48 8.79 C 46.46 11.60 46.46 14.41 46.47 17.23 M 28.93 27.60 C 29.02 32.42 28.74 37.26 29.06 42.08 C 32.86 48.61 37.12 54.89 41.07 61.34 C 56.46 61.48 71.84 61.37 87.23 61.40 C 87.24 57.30 87.24 53.21 87.23 49.12 C 77.40 41.81 67.59 34.46 57.72 27.20 C 48.13 27.37 38.53 27.42 28.93 27.60 M 12.15 73.99 C 10.56 76.44 9.08 79.08 8.76 82.03 C 7.68 89.40 12.32 97.07 19.26 99.71 C 25.90 102.37 34.16 100.33 38.57 94.63 C 42.81 89.48 43.44 81.70 39.91 76.00 C 35.16 68.28 30.26 60.65 25.43 52.98 C 20.98 59.96 16.60 67.00 12.15 73.99 M 43.86 65.79 C 48.03 71.69 51.56 78.50 50.98 85.96 C 63.06 85.97 75.15 85.97 87.23 85.96 C 87.24 79.24 87.24 72.52 87.23 65.80 C 72.77 65.78 58.31 65.80 43.86 65.79 M 50.31 90.36 C 47.79 100.27 39.11 108.13 28.94 109.45 C 28.93 111.70 28.92 113.95 28.93 116.20 C 48.36 116.20 67.80 116.20 87.23 116.19 C 87.25 107.58 87.23 98.97 87.24 90.37 C 74.93 90.33 62.62 90.34 50.31 90.36 Z" />
</g>
</svg>
