<svg xmlns="http://www.w3.org/2000/svg" style="display:none"><defs><clipPath id="a"><path d="M0 45.805h49.215V0H0z"/></clipPath><clipPath id="a"><path d="M0 50.012h44.656V0H0z"/></clipPath><clipPath id="a"><path d="M0 35.031h49.583V0H0z"/></clipPath><clipPath id="a"><path d="M0 46.451h49.38V0H0z"/></clipPath></defs><symbol id="design" viewBox="0 0 65.619736 61.072933"><g clip-path="url(#a)" transform="matrix(1.33333 0 0 -1.33333 0 61.073)"><path d="M40.947 34.999c.04-.222.078-.444.11-.67.163.034.32.089.456.184l6.15 4.327a1.212 1.212 0 0 1 .297 1.693c-.371.531-1.166.671-1.698.297l-5.75-4.043a15.164 15.164 0 0 0 .435-1.788M48.993 29.13a1.211 1.211 0 0 1-.787.5l-7.026 1.224c-.014-.23-.033-.458-.057-.687a20.036 20.036 0 0 0-.265-1.731l6.929-1.205a1.212 1.212 0 0 1 1.409.99c.057.32-.015.644-.203.91M40.646 25.156a1.205 1.205 0 0 1-.579.43 22.13 22.13 0 0 0-1.021-2.388l3.933-5.59a1.22 1.22 0 0 1 2.197.491c.055.321-.017.645-.205.91zM1.552 38.84L7.7 34.516c.076-.053.16-.086.241-.12a16.397 16.397 0 0 0 .574 2.522l-5.56 3.912c-.534.374-1.328.235-1.698-.294a1.21 1.21 0 0 1-.203-.91c.055-.32.232-.6.5-.786M8.022 29.075a18.276 18.276 0 0 0-.209 1.74L1.009 29.63a1.212 1.212 0 0 1-.788-.5 1.217 1.217 0 0 1 1.206-1.899l6.72 1.17c-.045.224-.087.448-.125.674M9.22 24.846c-.089.219-.173.438-.25.658a1.146 1.146 0 0 1-.4-.347l-4.327-6.148a1.22 1.22 0 0 1 .994-1.921c.072 0 .142.006.211.02a1.2 1.2 0 0 1 .787.499l3.81 5.415c-.119.234-.234.469-.345.704-.17.37-.33.744-.48 1.12M31.41 22.775a1.587 1.587 0 0 1-.243-.379c-.763-.994-2.837-3.889-3.504-6.789h-6.291c-.706 3.068-2.986 6.13-3.625 6.941a1.512 1.512 0 0 1-.156.211c-2.251 2.614-3.65 6.161-3.65 9.258 0 5.711 4.736 10.357 10.552 10.357 5.82 0 10.554-4.646 10.554-10.357 0-3.092-1.394-6.634-3.637-9.242m-6.917 23.03c-7.71 0-13.983-6.184-13.983-13.788 0-3.88 1.623-8.105 4.349-11.344a2.62 2.62 0 0 1 .092-.123c.829-1.023 3.197-4.442 3.197-6.66 0-.948.769-1.716 1.716-1.716h9.306a1.715 1.715 0 0 1 1.716 1.716c0 1.971 1.96 5.132 3.197 6.66.074.092.137.192.189.297 2.64 3.213 4.207 7.36 4.207 11.17 0 7.604-6.273 13.787-13.986 13.787M28.365 9.316h-7.74a1.373 1.373 0 0 1-1.374-1.373V2.631c0-.757.615-1.373 1.374-1.373h1.308l.682-.784c.26-.302.639-.474 1.037-.474h1.685c.398 0 .777.172 1.037.474l.68.784h1.31c.759 0 1.373.616 1.373 1.373v5.312c0 .76-.614 1.373-1.372 1.373"/></g></symbol><symbol id="game" viewBox="0 0 59.541599 66.682266"><g clip-path="url(#a)" transform="matrix(1.33333 0 0 -1.33333 0 66.682)"><path d="M30.462 6.827a1.717 1.717 0 0 1-1.654 1.257h-3.645v6.2a17.126 17.126 0 0 0-2.835-.24c-.966 0-1.913.084-2.837.24v-6.2H15.85a1.717 1.717 0 0 1-1.655-1.257L12.9 2.178A1.72 1.72 0 0 1 14.557 0H30.114a1.717 1.717 0 0 1 1.584 2.384zM41.61 33.762c-.716-2.687-2.617-4.76-4.565-5.077.02.069.038.139.055.21a16.27 16.27 0 0 1 .348 1.655c.068.424.123.852.161 1.284a18.173 18.173 0 0 1 .069 1.567v7.628c.221.046.444.075.663.075.248 0 .494-.031.73-.095 2.262-.601 3.424-3.92 2.54-7.247m-10.892 3.13l-4.56-3.423 1.658-5.416a.518.518 0 0 0-.493-.668.498.498 0 0 0-.292.092l-4.705 3.237-4.704-3.237a.515.515 0 0 0-.784.576l1.655 5.416-4.56 3.423a.515.515 0 0 0 .3.929l5.726.115 1.881 5.35a.514.514 0 0 0 .972 0l1.881-5.35 5.725-.115a.518.518 0 0 0 .482-.357.519.519 0 0 0-.182-.572m-27.672-3.13c-.884 3.328.278 6.646 2.538 7.247.238.064.483.095.731.095.22 0 .44-.03.661-.075V33.4c0-.465.023-.926.06-1.382l.01-.185c.038-.432.093-.86.161-1.284l.037-.224c.074-.42.16-.835.262-1.242.015-.063.033-.126.05-.19.018-.07.035-.14.055-.21-1.946.318-3.85 2.39-4.565 5.078m36.732 9.903a5.61 5.61 0 0 1-2.1.148v4.582c0 .892-.723 1.617-1.616 1.617H8.594a1.618 1.618 0 0 1-1.617-1.617v-4.582a5.597 5.597 0 0 1-2.099-.148C1.108 42.66-.9 37.91.391 33.055 1.522 28.81 4.8 25.89 8.124 25.89c.168 0 .337.017.506.033.123-.266.253-.527.39-.784l.076-.141a15.693 15.693 0 0 1 .72-1.2c.236-.357.483-.708.744-1.047.007-.01.015-.017.023-.026a16.128 16.128 0 0 1 1.801-1.961l.034-.032c.321-.295.654-.574.995-.84l.048-.035c1.411-1.084 3-1.918 4.708-2.44l.016-.005c.43-.13.862-.24 1.304-.331h.002c.457-.092.921-.164 1.39-.212.01-.002.022-.002.032-.003.466-.046.94-.073 1.415-.073.476 0 .946.027 1.411.073a14.077 14.077 0 0 1 1.42.215h.008a15.262 15.262 0 0 1 1.32.336 14.868 14.868 0 0 1 4.707 2.439c.016.01.031.024.047.036.344.265.676.545.996.839l.032.03a15.969 15.969 0 0 1 2.572 3.038l.078.116c.225.35.441.712.642 1.083a16.469 16.469 0 0 1 .466.925c.17-.016.34-.033.506-.033 3.324 0 6.602 2.92 7.731 7.165 1.293 4.855-.716 9.605-4.485 10.61"/></g></symbol><symbol id="marketing" viewBox="0 0 66.110664 46.708267"><g clip-path="url(#a)" transform="matrix(1.33333 0 0 -1.33333 0 46.708)"><path d="M39.444 24.87a11.2 11.2 0 0 1-1.158-.062 10.123 10.123 0 0 1-9.674 7.155c-.525 0-1.254-.043-1.908-.125-2.57 2.175-5.274 3.193-8.448 3.193-6.76 0-12.258-4.86-13.375-11.68-2.953-1.828-4.88-4.92-4.88-7.939 0-5.215 4.332-9.457 9.656-9.457h9.281v3.408h-9.28c-3.86 0-6.25 3.14-6.25 6.05 0 2.001 1.571 4.204 3.823 5.354l.822.422.096.916c.582 5.517 4.833 9.52 10.107 9.52 2.558 0 4.645-.879 6.766-2.85l.666-.62.887.21c.455.11 1.451.191 2.037.191a6.712 6.712 0 0 0 6.662-5.914l.232-1.945 1.895.5c.662.175 1.35.265 2.043.265 3.586 0 6.731-2.827 6.731-6.05s-3.145-6.049-6.73-6.049h-9.497V5.955h9.496c5.496 0 10.14 4.33 10.14 9.457 0 5.125-4.644 9.457-10.14 9.457"/><path d="M31.216 12.707a1.022 1.022 0 0 1 .73 1.737l-6.75 9.292a1.02 1.02 0 0 1-1.654 0l-6.832-9.407a1.023 1.023 0 0 1 .826-1.622h4.174V1.021C21.71.457 22.167 0 22.732 0h3.277c.563 0 1.02.457 1.02 1.021v11.686h4.174z"/></g></symbol><symbol id="server" viewBox="0 0 65.839867 61.934933"><g clip-path="url(#a)" transform="matrix(1.33333 0 0 -1.33333 0 61.935)"><path d="M49.353 22.201a1.007 1.007 0 0 1-.984.904l-15.639.276a1.037 1.037 0 0 1-.746-.313 1.013 1.013 0 0 1-.277-.765c.021-.273.042-.545.042-.819 0-1.91-.655-3.478-1.999-4.806a6.598 6.598 0 0 0-1.732-1.276 1.005 1.005 0 0 1-.406-1.428L35.825.627a1.005 1.005 0 0 1 1.361-.343c1.723 1 3.371 2.285 5.046 3.937 4.743 4.744 7.148 10.552 7.148 17.263 0 .223-.002.47-.026.717M19.269 27.916a1.012 1.012 0 0 1 .88-.518c.212 0 .418.066.59.191 1.16.843 2.447 1.253 3.929 1.253 1.374 0 2.622-.365 3.71-1.086.237-.154.528-.205.8-.137a1 1 0 0 1 .64.496l7.49 13.772c.26.477.096 1.073-.373 1.349-3.627 2.132-7.748 3.215-12.244 3.215-4.68 0-8.947-1.172-12.69-3.482a1.006 1.006 0 0 1-.351-1.344zM21.415 15.343a6.84 6.84 0 0 0-1.828 1.335c-1.33 1.33-1.978 2.9-1.978 4.807 0 .226-.001.433.018.66a1.003 1.003 0 0 1-1.03 1.088L.978 22.809A1.009 1.009 0 0 1 0 21.802v-.314C-.021 14.78 2.377 8.972 7.122 4.225c1.627-1.647 3.349-2.986 5.265-4.09a1.006 1.006 0 0 1 1.365.353l8.085 13.432a1.004 1.004 0 0 1-.422 1.423M27.364 24.328c-.742.743-1.633 1.104-2.696 1.104-1.04 0-1.93-.36-2.67-1.104-.745-.742-1.127-1.633-1.109-2.674-.018-1.06.364-1.95 1.108-2.693.74-.744 1.631-1.105 2.671-1.125 1.063.02 1.954.381 2.696 1.125.741.742 1.102 1.632 1.102 2.693 0 1.041-.36 1.932-1.102 2.674"/></g></symbol></svg>