<?xml version="1.0" encoding="utf-8"?>
<!-- Generator: Adobe Illustrator 20.1.0, SVG Export Plug-In . SVG Version: 6.00 Build 0)  -->
<svg version="1.1" id="Слой_1" xmlns="http://www.w3.org/2000/svg" xmlns:xlink="http://www.w3.org/1999/xlink" x="0px" y="0px"
	 width="658px" height="476px" viewBox="0 0 658 476" style="enable-background:new 0 0 658 476;" xml:space="preserve">
<path d="M577,0c-1,1.9-1.6,4.1-3.1,5.5c-38.9,39.1-77.8,78.2-116.8,117.1c-3.4,3.4-3.3,5.7,0,9c33.3,33.4,66.5,66.9,99.7,100.4
	c5.2,5.3,5.2,6.4-0.1,11.8c-33.2,33.5-66.3,67.1-99.6,100.5c-3.4,3.4-3.4,5.6,0,9c37.7,37.7,75.2,75.5,112.8,113.4
	c2.7,2.7,4.7,6.1,7.1,9.2c-10.3,0-20.7,0-31,0c-0.7-1.6-1.1-3.5-2.3-4.6c-33.6-34.2-67.4-68.3-101-102.5c-3.3-3.4-5.7-3.3-9,0.1
	c-31.4,31.9-63,63.7-94.4,95.6c-8.1,8.2-8,8.3-15.9,0.2c-31.4-31.7-62.8-63.5-94.1-95.2c-4.8-4.9-5.5-4.9-10.4,0
	c-33.7,33.9-67.4,67.8-101,101.7c-1.2,1.2-1.9,3-2.8,4.6c-10,0-20,0-30,0c0.7-1.8,1-3.9,2.2-5.2c38.6-38.9,77.4-77.6,116.1-116.4
	c4.9-4.9,4.8-6,0-11c-33.1-33.3-66.2-66.7-99.3-100c-4.9-4.9-4.9-6.1-0.1-11c33-33.2,66-66.4,99-99.5c5.4-5.4,5.4-6.3,0.1-11.7
	c-36.8-37-73.6-73.9-110.2-111c-3-3-8.1-4.6-7.7-10.3c10,0,20,0,30,0c0.9,1.5,1.6,3.3,2.8,4.6c33.6,33.9,67.3,67.8,101,101.7
	c4.9,4.9,5.5,4.9,10.4,0.1c31.5-31.8,63-63.7,94.5-95.5c7.6-7.7,7.5-7.7,15.3,0.2c31.6,32,63.2,64,94.8,95.9
	c4.1,4.2,4.9,4.2,9.3-0.2c33.6-34,67.2-68,100.7-102.1c1.1-1.2,1.5-3.1,2.3-4.6C556.3,0,566.7,0,577,0z M530.7,238
	c-1.5-2.1-2.5-4.1-3.9-5.5c-31.2-31.5-62.4-62.9-93.6-94.4C401,105.7,368.8,73.4,336.7,41c-6-6.1-5.9-6.1-12.1,0.1
	c-42.6,42.9-85.2,85.9-127.7,128.8c-20.8,20.9-41.5,41.8-62.3,62.7c-4.9,4.9-4.8,6,0.1,11c5.9,5.9,11.7,11.8,17.6,17.7
	c57.6,58,115.2,116.1,172.8,174.1c5.6,5.7,5.7,5.6,11.4-0.1c38.2-38.5,76.5-77,114.7-115.6c25.1-25.3,50.2-50.6,75.3-75.9
	C528,242.2,529.1,240.2,530.7,238z"/>
<path d="M0,231c16.5,0.1,32.9,0.2,49.4,0.3c1.7,0,3.7-0.5,4.9,0.3c1.6,0.9,3.3,2.8,3.4,4.5c0.1,1.3-1.9,3.4-3.4,3.9
	c-1.9,0.7-4.3,0.3-6.4,0.3c-16-0.1-32-0.1-47.9-0.2C0,237,0,234,0,231z"/>
<path d="M658,240c-17.5,0.1-35,0.1-52.4,0.2c-3,0-5.4-0.6-5.5-4.2c-0.1-3.8,2.3-4.7,5.6-4.7c15.8,0,31.6,0,47.4,0
	c1.7,0,3.3-0.2,5-0.3C658,234,658,237,658,240z"/>
</svg>
