<?xml version="1.0" encoding="utf-8"?>
<!-- Generator: Adobe Illustrator 20.1.0, SVG Export Plug-In . SVG Version: 6.00 Build 0)  -->
<svg version="1.1" id="Слой_1" xmlns="http://www.w3.org/2000/svg" xmlns:xlink="http://www.w3.org/1999/xlink" x="0px" y="0px"
	 width="159.4px" height="159.4px" viewBox="0 0 159.4 159.4" style="enable-background:new 0 0 159.4 159.4;" xml:space="preserve"
	>
<style type="text/css">
	.st0{clip-path:url(#SVGID_2_);}
	.st1{opacity:0.75;clip-path:url(#SVGID_4_);}
	.st2{clip-path:url(#SVGID_6_);}
	.st3{clip-path:url(#SVGID_10_);fill:url(#SVGID_11_);}
	.st4{clip-path:url(#SVGID_13_);fill:url(#SVGID_14_);}
	.st5{clip-path:url(#SVGID_16_);fill:url(#SVGID_17_);}
</style>
<g>
	<defs>
		<rect id="SVGID_1_" width="159.4" height="159.4"/>
	</defs>
	<clipPath id="SVGID_2_">
		<use xlink:href="#SVGID_1_"  style="overflow:visible;"/>
	</clipPath>
	<g class="st0">
		<defs>
			<rect id="SVGID_3_" width="159.4" height="159.4"/>
		</defs>
		<clipPath id="SVGID_4_">
			<use xlink:href="#SVGID_3_"  style="overflow:visible;"/>
		</clipPath>
		<g class="st1">
			<g>
				<defs>
					<rect id="SVGID_5_" width="159.4" height="159.4"/>
				</defs>
				<clipPath id="SVGID_6_">
					<use xlink:href="#SVGID_5_"  style="overflow:visible;"/>
				</clipPath>
				<g class="st2">
					<defs>
						<rect id="SVGID_7_" width="159.4" height="159.4"/>
					</defs>
					<clipPath id="SVGID_8_">
						<use xlink:href="#SVGID_7_"  style="overflow:visible;"/>
					</clipPath>
					<g style="clip-path:url(#SVGID_8_);">
						
							<image style="overflow:visible;" width="664" height="664" xlink:href="435C38AC.png"  transform="matrix(0.24 0 0 0.24 0 0)">
						</image>
					</g>
				</g>
			</g>
		</g>
	</g>
	<g class="st0">
		<defs>
			<path id="SVGID_9_" d="M34.2,104.6V55.1c0-11.3,9.2-20.6,20.6-20.6h49.5c11.4,0,20.6,9.2,20.6,20.6v49.5
				c0,11.3-9.2,20.6-20.6,20.6H54.8C43.5,125.2,34.2,115.9,34.2,104.6 M54.8,31.8c-12.8,0-23.3,10.4-23.3,23.3v49.5
				c0,12.8,10.4,23.3,23.3,23.3h49.5c12.8,0,23.3-10.4,23.3-23.3V55.1c0-12.8-10.4-23.3-23.3-23.3H54.8z M23.7,103.8V55.4
				c0-17.5,14.2-31.7,31.7-31.7h48.4c17.5,0,31.7,14.2,31.7,31.7v48.4c0,17.5-14.2,31.7-31.7,31.7H55.4
				C37.9,135.4,23.7,121.2,23.7,103.8 M55.4,21C36.4,21,21,36.4,21,55.4v48.4c0,19,15.4,34.4,34.4,34.4h48.4
				c19,0,34.4-15.4,34.4-34.4V55.4c0-19-15.4-34.4-34.4-34.4H55.4z"/>
		</defs>
		<clipPath id="SVGID_10_">
			<use xlink:href="#SVGID_9_"  style="overflow:visible;"/>
		</clipPath>
		
			<linearGradient id="SVGID_11_" gradientUnits="userSpaceOnUse" x1="0" y1="159.36" x2="1" y2="159.36" gradientTransform="matrix(-102.1333 99.4459 99.4459 102.1333 -15720.6328 -16242.6523)">
			<stop  offset="0" style="stop-color:#4845A2"/>
			<stop  offset="0.1915" style="stop-color:#8844A1"/>
			<stop  offset="0.3002" style="stop-color:#A844A1"/>
			<stop  offset="0.3509" style="stop-color:#AB429A"/>
			<stop  offset="0.4231" style="stop-color:#B43C88"/>
			<stop  offset="0.5081" style="stop-color:#C33269"/>
			<stop  offset="0.6023" style="stop-color:#D7243F"/>
			<stop  offset="0.6036" style="stop-color:#D7243E"/>
			<stop  offset="0.8766" style="stop-color:#F9A326"/>
			<stop  offset="1" style="stop-color:#F9DD26"/>
		</linearGradient>
		<polygon class="st3" points="196.7,81.1 78,196.7 -37.5,78 81.1,-37.5 		"/>
	</g>
	<g class="st0">
		<defs>
			<path id="SVGID_12_" d="M61.7,79.8c0-9.9,8-17.9,17.9-17.9c9.9,0,17.9,8,17.9,17.9c0,9.9-8,17.9-17.9,17.9
				C69.7,97.8,61.7,89.7,61.7,79.8 M59,79.8c0,11.4,9.2,20.6,20.6,20.6c11.4,0,20.6-9.2,20.6-20.6c0-11.4-9.2-20.6-20.6-20.6
				C68.2,59.3,59,68.5,59,79.8 M51.2,79.8c0-15.6,12.7-28.3,28.4-28.3c15.6,0,28.4,12.7,28.4,28.3c0,15.6-12.7,28.3-28.4,28.3
				C63.9,108.2,51.2,95.5,51.2,79.8 M48.5,79.8c0,17.1,13.9,31,31,31c17.1,0,31-13.9,31-31c0-17.1-13.9-31-31-31
				C62.4,48.8,48.5,62.7,48.5,79.8"/>
		</defs>
		<clipPath id="SVGID_13_">
			<use xlink:href="#SVGID_12_"  style="overflow:visible;"/>
		</clipPath>
		
			<linearGradient id="SVGID_14_" gradientUnits="userSpaceOnUse" x1="0" y1="159.36" x2="1" y2="159.36" gradientTransform="matrix(-102.1317 99.4444 99.4444 102.1317 -15720.2441 -16242.25)">
			<stop  offset="0" style="stop-color:#4845A2"/>
			<stop  offset="0.1915" style="stop-color:#8844A1"/>
			<stop  offset="0.3002" style="stop-color:#A844A1"/>
			<stop  offset="0.3509" style="stop-color:#AB429A"/>
			<stop  offset="0.4231" style="stop-color:#B43C88"/>
			<stop  offset="0.5081" style="stop-color:#C33269"/>
			<stop  offset="0.6023" style="stop-color:#D7243F"/>
			<stop  offset="0.6036" style="stop-color:#D7243E"/>
			<stop  offset="0.8766" style="stop-color:#F9A326"/>
			<stop  offset="1" style="stop-color:#F9DD26"/>
		</linearGradient>
		<polygon class="st4" points="141.6,80.7 78.7,141.9 17.5,79 80.4,17.8 		"/>
	</g>
	<g class="st0">
		<defs>
			<path id="SVGID_15_" d="M104.7,49c0-3.1,2.5-5.6,5.6-5.6c3.1,0,5.6,2.5,5.6,5.6c0,3.1-2.5,5.6-5.6,5.6
				C107.2,54.6,104.7,52.1,104.7,49 M102,49c0,4.6,3.7,8.3,8.3,8.3c4.6,0,8.3-3.7,8.3-8.3c0-4.6-3.7-8.3-8.3-8.3
				C105.7,40.8,102,44.5,102,49"/>
		</defs>
		<clipPath id="SVGID_16_">
			<use xlink:href="#SVGID_15_"  style="overflow:visible;"/>
		</clipPath>
		
			<linearGradient id="SVGID_17_" gradientUnits="userSpaceOnUse" x1="0" y1="159.36" x2="1" y2="159.36" gradientTransform="matrix(-102.1341 99.4467 99.4467 102.1341 -15721.0967 -16243.1289)">
			<stop  offset="0" style="stop-color:#4845A2"/>
			<stop  offset="0.1915" style="stop-color:#8844A1"/>
			<stop  offset="0.3002" style="stop-color:#A844A1"/>
			<stop  offset="0.3509" style="stop-color:#AB429A"/>
			<stop  offset="0.4231" style="stop-color:#B43C88"/>
			<stop  offset="0.5081" style="stop-color:#C33269"/>
			<stop  offset="0.6023" style="stop-color:#D7243F"/>
			<stop  offset="0.6036" style="stop-color:#D7243E"/>
			<stop  offset="0.8766" style="stop-color:#F9A326"/>
			<stop  offset="1" style="stop-color:#F9DD26"/>
		</linearGradient>
		<polygon class="st5" points="126.8,49.2 110,65.5 93.7,48.8 110.5,32.5 		"/>
	</g>
</g>
</svg>
