<?xml version="1.0" standalone="no"?>
<!DOCTYPE svg PUBLIC "-//W3C//DTD SVG 20010904//EN"
 "http://www.w3.org/TR/2001/REC-SVG-20010904/DTD/svg10.dtd">
<svg version="1.0" xmlns="http://www.w3.org/2000/svg"
 width="16.000000pt" height="16.000000pt" viewBox="0 0 16.000000 16.000000"
 preserveAspectRatio="xMidYMid meet">
<metadata>
Created by potrace 1.11, written by Peter Selinger 2001-2013
</metadata>
<g transform="translate(0.000000,16.000000) scale(0.005797,-0.005797)"
fill="#000000" stroke="none">
<path d="M1092 2743 c-99 -48 -110 -197 -19 -264 23 -17 49 -24 95 -27 l63 -4
-3 -36 -4 -36 -84 -17 c-485 -97 -870 -505 -939 -994 -12 -89 -7 -335 9 -400
6 -27 13 -59 16 -69 19 -97 95 -265 172 -380 88 -133 264 -291 422 -378 97
-54 265 -109 379 -126 59 -9 312 -8 371 1 167 25 371 112 520 220 81 59 218
202 272 283 95 143 160 301 192 469 18 98 18 328 -1 417 -7 35 -15 73 -17 85
-19 93 -97 265 -170 372 l-57 83 23 27 c13 14 26 28 29 31 17 14 39 73 39 104
0 77 -52 122 -127 110 -43 -6 -65 -19 -113 -63 l-33 -30 -36 27 c-131 101
-303 177 -471 211 l-85 17 -2 37 -2 37 51 0 c121 0 201 108 158 215 -13 35
-35 57 -78 79 -46 24 -521 23 -570 -1z m456 -690 c286 -54 536 -261 645 -533
171 -429 -19 -914 -438 -1115 -505 -243 -1102 49 -1230 600 -32 136 -21 337
24 467 73 210 219 384 412 492 170 94 386 127 587 89z"/>
<path d="M1057 1574 c-1 -1 -16 -4 -34 -7 -42 -7 -117 -45 -143 -72 l-21 -22
38 -43 38 -42 50 31 c97 60 184 41 187 -41 2 -60 -27 -103 -172 -252 -137
-141 -139 -143 -142 -192 l-3 -49 241 -3 240 -2 2 60 c1 50 -2 60 -16 61 -9 0
-77 1 -149 1 -127 1 -152 6 -118 26 39 21 204 196 229 242 30 56 41 134 24
181 -13 38 -63 88 -106 106 -30 12 -136 25 -145 17z"/>
<path d="M1654 1515 c-232 -336 -262 -384 -264 -422 -4 -76 -13 -71 123 -71
67 0 132 -1 144 -1 20 -1 22 -6 21 -58 0 -32 0 -64 1 -70 1 -9 22 -13 71 -13
l70 0 0 70 c0 69 0 70 28 71 15 1 33 1 40 0 7 -1 12 10 13 26 1 15 2 35 3 43
3 33 -13 48 -49 46 l-35 -3 -2 216 -3 216 -63 0 -64 1 -34 -51z m24 -257 l-3
-123 -70 0 c-38 0 -72 4 -74 9 -4 7 138 236 146 236 2 0 2 -55 1 -122z"/>
</g>
</svg>
