<?xml version="1.0" encoding="UTF-8" standalone="no"?>
<!-- Created with Inkscape (http://www.inkscape.org/) -->

<svg
   xmlns:dc="http://purl.org/dc/elements/1.1/"
   xmlns:cc="http://creativecommons.org/ns#"
   xmlns:rdf="http://www.w3.org/1999/02/22-rdf-syntax-ns#"
   xmlns:svg="http://www.w3.org/2000/svg"
   xmlns="http://www.w3.org/2000/svg"
   xmlns:sodipodi="http://sodipodi.sourceforge.net/DTD/sodipodi-0.dtd"
   xmlns:inkscape="http://www.inkscape.org/namespaces/inkscape"
   version="1.1"
   id="svg2"
   width="500"
   height="537"
   viewBox="0 0 500 537"
   sodipodi:docname="map-icon.svg"
   inkscape:version="0.92.1 r15371">
  <metadata
     id="metadata8">
    <rdf:RDF>
      <cc:Work
         rdf:about="">
        <dc:format>image/svg+xml</dc:format>
        <dc:type
           rdf:resource="http://purl.org/dc/dcmitype/StillImage" />
        <dc:title></dc:title>
      </cc:Work>
    </rdf:RDF>
  </metadata>
  <defs
     id="defs6" />
  <sodipodi:namedview
     pagecolor="#ffffff"
     bordercolor="#666666"
     borderopacity="1"
     objecttolerance="10"
     gridtolerance="10"
     guidetolerance="10"
     inkscape:pageopacity="0"
     inkscape:pageshadow="2"
     inkscape:window-width="1856"
     inkscape:window-height="1057"
     id="namedview4"
     showgrid="false"
     fit-margin-top="0"
     fit-margin-left="0"
     fit-margin-right="0"
     fit-margin-bottom="0"
     inkscape:zoom="0.43947858"
     inkscape:cx="236.34746"
     inkscape:cy="282.15254"
     inkscape:window-x="1912"
     inkscape:window-y="100"
     inkscape:window-maximized="1"
     inkscape:current-layer="svg2" />
  <path
     style="fill:#2c2c2c"
     d="m 247,535.19376 c 0,-0.99343 -7.5903,-9.54343 -16.86734,-19 L 213.26532,499 H 106.63266 0 V 249.5 0 H 250 500 V 249.5 499 H 393.36734 286.73468 l -16.86734,17.19376 C 260.5903,525.65033 253,534.20033 253,535.19376 253,536.53403 252.22606,537 250,537 c -2.22606,0 -3,-0.46597 -3,-1.80624 z m 219.96309,-67.64928 c 1.7441,-2.10152 1.72618,-434.009037 -0.0181,-436.110765 C 465.91848,30.196848 436.05649,30 249.44898,30 54.14039,30 32.99032,30.152544 31.57143,31.571429 30.15255,32.990316 30,54.145022 30,249.5 30,444.85498 30.15255,466.00968 31.57143,467.42857 32.99032,468.84746 54.14039,469 249.44898,469 c 188.1146,0 216.46357,-0.1897 217.51411,-1.45552 z M 43.31538,458.99302 c -1.20155,-0.48411 -2.66405,-1.77601 -3.25,-2.87087 C 39.32146,454.73213 39,392.12753 39,248.63832 V 43.14516 L 41.63486,41.07258 44.26972,39 249.38486,39.0318 c 159.66078,0.02476 205.46675,0.301761 206.7018,1.25 0.87266,0.670009 2.11016,2.201113 2.75,3.402456 C 459.71018,45.324363 460,96.725588 460,250.01118 v 204.14267 l -2.92308,2.92307 L 454.15385,460 249.82692,459.9366 C 134.63814,459.9009 44.54695,459.48922 43.31538,458.99301 Z M 311.89776,357.96589 c 67.6779,0.0175 101.8875,-0.31578 103.17544,-1.00506 2.64056,-1.41319 2.41631,-3.97085 -0.75151,-8.57128 C 412.84861,346.2503 407.93523,337.75 403.40307,329.5 c -4.53217,-8.25 -9.89057,-17.7 -11.90756,-21 -4.70155,-7.69221 -20.90076,-36.18345 -25.02004,-44.00534 -7.36883,-13.99231 -16.88465,-31.18865 -18.64872,-33.70067 -1.04516,-1.48831 -2.78683,-4.71016 -3.87036,-7.15968 -1.08354,-2.44951 -3.42949,-6.7068 -5.21323,-9.46065 -1.78374,-2.75386 -4.81816,-7.80761 -6.74316,-11.23057 -6.19664,-11.01863 -9.89211,-11.4284 -15.01751,-1.66521 -4.17289,7.9488 -5.74608,9.72212 -8.62491,9.72212 -1.89575,0 -3.0105,-1.35737 -5.95409,-7.25 -1.99191,-3.9875 -4.81006,-8.82021 -6.26257,-10.73934 -1.45251,-1.91914 -4.02287,-6.19414 -5.71191,-9.5 -4.89068,-9.5722 -12.3018,-22.70571 -13.78494,-24.42878 -0.74888,-0.87003 -2.52429,-4.16724 -3.94534,-7.32712 -2.59579,-5.77208 -6.02173,-8.61226 -9.00674,-7.46681 -0.78956,0.30298 -2.41702,2.72464 -3.6166,5.38146 -1.19957,2.65683 -2.81244,5.95559 -3.58415,7.33059 -0.77171,1.375 -3.39902,6.33111 -5.83847,11.01358 -5.5118,10.57977 -15.26736,26.78906 -17.7998,29.57514 -1.04422,1.1488 -3.12581,4.51392 -4.62577,7.47804 -4.97512,9.83152 -10.25759,9.05618 -13.92012,-2.04314 -3.29458,-9.98427 -9.78901,-10.78055 -14.68203,-1.80015 -3.09184,5.67461 -7.11927,13.13525 -13.10503,24.27653 -2.06845,3.85 -4.54711,8.125 -5.50813,9.5 -1.79465,2.56772 -10.87975,18.83305 -16.4774,29.5 -4.51465,8.60316 -11.55602,20.85994 -21.54364,37.50058 -4.78674,7.97532 -9.5813,16.30032 -10.65458,18.5 -2.12133,4.34766 -12.65852,21.9383 -16.77659,28.00662 -2.79928,4.12496 -3.24805,6.92924 -1.30968,8.18378 1.56622,1.01368 57.60926,2.1654 79.82456,1.64045 9.11601,-0.21541 62.13645,-0.37991 117.8232,-0.36554 z m -169.12948,-8.69584 c -15.82697,-0.44952 -16.00837,-0.78394 -7.75334,-14.2945 3.35711,-5.4944 7.03849,-12.10276 8.18085,-14.68525 1.14236,-2.5825 4.02108,-7.72838 6.39716,-11.43531 2.37608,-3.70693 5.67963,-9.43299 7.34122,-12.72458 1.66159,-3.29159 3.52739,-6.29764 4.14623,-6.6801 0.61883,-0.38246 2.1051,-2.77774 3.30282,-5.32285 1.19771,-2.5451 3.32624,-6.42746 4.73005,-8.62746 4.39129,-6.88183 16.75916,-28.32476 20.00041,-34.67593 C 202.56925,214.45818 203.4419,213 205.76506,213 211.5394,213 215,218.30105 215,227.14634 c 0,4.1535 -0.51109,5.41361 -3.56813,8.79739 -1.96247,2.17222 -5.58309,7.89837 -8.04582,12.72477 -2.46272,4.8264 -5.0995,9.46292 -5.8595,10.30338 -0.76,0.84047 -2.75316,4.29275 -4.42923,7.67174 -1.67608,3.37899 -4.19532,7.50782 -5.5983,9.17518 -1.40299,1.66736 -3.05818,4.52773 -3.6782,6.35638 -0.62002,1.82865 -2.74585,5.71621 -4.72406,8.63901 -7.27339,10.74639 -7.91513,13.94907 -3.38891,16.91276 2.45408,1.60689 6.05349,1.7856 38.40761,1.90693 19.63486,0.0736 36.19133,0.43769 36.79215,0.80902 1.8853,1.16518 1.19206,6.9458 -1.2682,10.57497 -1.29832,1.91517 -3.26077,5.28213 -4.36099,7.48213 -3.58218,7.16292 -9.43396,16.29747 -11.96345,18.6748 l -2.47402,2.3252 -38.17047,0.0516 c -20.99377,0.0284 -43.44975,-0.0983 -49.9022,-0.28158 z m 155.38764,-1.36409 c -3.673,-1.86696 -4.87055,-3.30472 -7.75202,-9.30701 -3.65838,-7.62065 -6.00529,-11.68905 -10.53491,-18.26243 C 278.29105,318.04661 277,315.49591 277,314.66831 c 0,-4.33258 -0.7349,-4.25432 35.97895,-3.83138 36.10785,0.41596 40.89472,0.14655 43.4889,-2.44764 2.3168,-2.3168 1.89851,-8.38587 -0.8575,-12.44171 -3.86385,-5.68617 -11.0794,-18.18565 -12.50618,-21.66442 -0.72564,-1.76927 -1.99637,-3.77873 -2.82385,-4.46548 -0.82748,-0.68675 -2.74305,-3.73917 -4.25682,-6.78315 -2.79657,-5.62352 -10.52133,-18.9118 -15.68153,-26.97569 -1.56308,-2.44265 -3.4221,-5.36765 -4.13114,-6.5 C 313.11978,224.62237 317.83346,213 322.92657,213 c 3.50739,0 5.29306,2.00527 8.94557,10.04566 1.61261,3.54989 3.81698,7.57934 4.89861,8.95434 1.08163,1.375 3.52214,5.65 5.42334,9.5 3.83479,7.76558 12.71997,23.94873 17.92576,32.64936 1.85908,3.10714 4.14532,6.93214 5.08053,8.5 0.93521,1.56785 5.31144,8.70064 9.72495,15.85064 4.41352,7.15 9.33356,15.75943 10.93343,19.13207 1.59988,3.37263 4.08615,7.86459 5.52505,9.98213 1.43891,2.11754 2.61619,4.58228 2.61619,5.4772 0,0.89493 1.57063,3.60297 3.49029,6.01787 1.91967,2.4149 3.49467,5.16786 3.5,6.11768 0.0234,4.164 -2.26301,4.36979 -51.49029,4.63442 -46.74267,0.25126 -47.02378,0.24056 -51.34408,-1.95541 z M 247.9995,347.5995 c -1.76372,-1.76372 -1.07483,-5.05047 1.80708,-8.62166 3.97614,-4.92712 8.33166,-12.7314 9.70934,-17.39732 1.3943,-4.72219 3.67744,-6.55791 6.23408,-5.01241 0.9625,0.58184 3.775,4.87962 6.25,9.55064 2.475,4.67101 5.68527,10.04267 7.13393,11.937 3.23071,4.22462 4.1157,6.97342 2.87965,8.94425 -0.77036,1.22832 -3.84539,1.50897 -16.97767,1.5495 -9.42252,0.0291 -16.44915,-0.36274 -17.03641,-0.95 z M 246.5,299.89681 c -1.65,-0.51221 -14.83608,-0.86977 -29.3024,-0.79459 -24.60859,0.12791 -26.39358,0.0163 -27.7182,-1.73276 -2.10381,-2.77794 -1.82013,-3.98599 1.90601,-8.11658 1.86198,-2.06408 4.11898,-5.32788 5.01555,-7.25288 0.89657,-1.925 3.26588,-6.2 5.26513,-9.5 9.9537,-16.42977 13.03997,-22.13344 16.36836,-30.25 1.94793,-4.75018 6.72958,-1.80774 10.96921,6.75 1.22615,2.475 2.93946,5.30715 3.80736,6.29367 1.80827,2.05542 7.14235,11.38167 13.55864,23.70633 2.43384,4.675 5.59632,9.59094 7.02775,10.92431 1.73128,1.61269 2.60259,3.47075 2.60259,5.55 0,5.25811 -2.7237,6.52606 -9.5,4.4225 z M 275.00465,299 c -0.83317,-0.51766 -1.32919,-2.60073 -1.12313,-4.71662 0.0652,-0.66914 2.14348,-3.49666 4.61848,-6.28338 2.475,-2.78672 4.5,-5.67624 4.5,-6.42117 0,-0.74492 1.57333,-3.64163 3.4963,-6.43713 1.92296,-2.7955 4.26471,-7.00849 5.20388,-9.36221 0.93917,-2.35372 3.09784,-6.10462 4.79704,-8.33534 1.6992,-2.23072 4.09741,-6.50572 5.32936,-9.5 1.23195,-2.99428 2.60841,-6.11915 3.05879,-6.94415 1.20112,-2.20017 4.49726,-2.35512 6.25461,-0.29402 2.57486,3.01992 20.67239,33.81576 23.19708,39.47356 1.3058,2.92625 3.33034,6.16974 4.499,7.20775 2.49247,2.21383 3.77336,7.70132 2.37916,10.19262 -0.89567,1.60048 -3.6408,1.75203 -33.19113,1.83244 C 290.30601,299.46055 275.44726,299.275 275.00465,299 Z m -12.86882,-10.33633 c -0.60998,-0.73499 -1.7642,-3.1932 -2.56492,-5.46269 -0.80073,-2.2695 -2.31639,-5.38065 -3.36814,-6.91367 -4.59994,-6.70482 -15.32031,-25.36283 -17.98468,-31.301 -1.60066,-3.56747 -3.68423,-7.12854 -4.63013,-7.91348 C 230.91483,234.85459 229,230.44924 229,226.51754 c 0,-4.5007 2.38789,-10.34542 4.56854,-11.18222 0.91237,-0.3501 2.95329,-3.38128 4.53539,-6.73594 1.5821,-3.35466 4.71697,-9.02438 6.96638,-12.59938 8.87096,-14.09869 14.06291,-23.64343 15.09875,-27.7571 2.1695,-8.61589 7.42055,-6.96082 13.00327,4.09849 1.7042,3.376 5.78924,10.13982 9.07787,15.0307 3.28862,4.89089 6.89262,10.97048 8.00889,13.51022 1.11627,2.53973 4.08587,7.5097 6.5991,11.04437 3.98899,5.61021 4.61847,7.19827 4.95481,12.5 0.36016,5.67724 0.14888,6.3994 -3.23963,11.07332 -1.99371,2.75 -5.17626,8.15 -7.07233,12 -1.89608,3.85 -5.47746,10.15 -7.95862,14 -2.48117,3.85 -6.36957,10.15 -8.6409,14 -8.93965,15.15311 -10.11163,16.36162 -12.76569,13.16367 z"
     id="path12"
     inkscape:connector-curvature="0" />
</svg>
