<svg xmlns="http://www.w3.org/2000/svg" xmlns:xlink="http://www.w3.org/1999/xlink" style="display:none"><defs><path id="a" d="M969.7 911.63v-7.67h32.3v23.02c0 2.1-.76 3.91-2.27 5.42a7.41 7.41 0 0 1-5.43 2.25h-70.75a7.41 7.41 0 0 1-5.43-2.25 7.38 7.38 0 0 1-2.26-5.42v-23.02h32.3v7.67c0 .83.3 1.55.91 2.16.61.6 1.33.91 2.16.91h15.39c.83 0 1.55-.3 2.16-.9.6-.62.91-1.34.91-2.17zm-16.93-7.67h12.3v6.14h-12.3zm49.22-23.02v18.42h-86.13v-18.42c0-2.1.75-3.91 2.26-5.42a7.41 7.41 0 0 1 5.43-2.25h16.92v-7.67c0-1.28.45-2.37 1.34-3.26.9-.9 1.99-1.34 3.27-1.34h27.69c1.28 0 2.37.44 3.27 1.34.9.9 1.34 1.98 1.34 3.26v7.67h16.92c2.12 0 3.93.75 5.43 2.25a7.38 7.38 0 0 1 2.26 5.42zm-30.76-13.8h-24.61v6.13h24.61z"/><style>.cls-1{fill-rule:evenodd;filter:url(#filter)}</style><filter id="filter" x="222" y="3218" width="20" height="20" filterUnits="userSpaceOnUse"><feFlood result="flood" flood-color="#0061ff"/><feComposite result="composite" operator="in" in2="SourceGraphic"/><feBlend result="blend" in2="SourceGraphic"/></filter><style>.cls-1{fill-rule:evenodd;filter:url(#filter)}</style><filter id="filter" x="184" y="3732" width="20" height="20" filterUnits="userSpaceOnUse"><feFlood result="flood" flood-color="#1d53aa"/><feComposite result="composite" operator="in" in2="SourceGraphic"/><feBlend result="blend" in2="SourceGraphic"/></filter><style>.cls-1{fill-rule:evenodd;filter:url(#filter)}</style><filter id="filter" x="211" y="3732" width="20" height="20" filterUnits="userSpaceOnUse"><feFlood result="flood" flood-color="#00aced"/><feComposite result="composite" operator="in" in2="SourceGraphic"/><feBlend result="blend" in2="SourceGraphic"/></filter></defs><symbol id="apple" viewBox="0 0 52 63"><g><path d="M25.55 14.45C26.28 7.52 31.68.21 39.2.49c-.25 7-6.1 14.91-13.65 13.96z"/><path d="M1.33 29.9c.89-7.09 6.32-13.79 13.58-14.91 3.26-.68 6.37.74 9.31 1.92 3.94 1.97 7.76-1.32 11.67-1.81 5.46-1.39 10.95 1.62 14.16 5.94-3.62 2.96-7 6.99-6.64 11.98-.23 5.49 3.45 10.1 7.91 12.84-1.83 6.06-5.04 12.25-10.5 15.75-4.26 2.61-8.42-1.64-12.8-1.37-3.89-.29-7.15 2.75-11.04 2.29-3.17-.31-5.46-2.83-7.37-5.14C3.58 49.7-.06 39.73 1.33 29.9z"/></g></symbol><symbol id="asus" viewBox="0 0 400 70"><g><path d="M55.39 0h37.02c0 5.26.03 10.53-.07 15.79 2.34-4.3 4.72-8.79 8.65-11.88 3.27-2.64 7.57-3.38 11.63-3.91h71.08c.21 6.33.1 12.66.12 18.99-48.99.01-97.98.02-146.97 0 3.75-4.97 7.34-10.08 11.11-15.04C49.64 1.48 52.58.46 55.39 0zM298.03 0h24.59c15.63.27 31.27.18 46.91.27V19c-30.61-.01-61.23.02-91.84-.02 1.24-4.69 2.93-9.42 6.34-13 3.44-4.08 8.85-5.63 14-5.98zM187.24.26c7.11.03 14.22-.04 21.33.05-.08 6.23-.03 12.46-.04 18.69-7.1.02-14.19-.05-21.29.08-.01-6.27-.01-12.55 0-18.82zM255.29.28c7.18-.01 14.37-.03 21.55.01-.04 6.24-.01 12.47-.02 18.71-7.17 0-14.35.01-21.53-.01.01-6.23.01-12.47 0-18.71zM380.58 12.01C379.4 6.35 384.2.53 389.96.56c4.91-.3 8.99 3.62 10.04 8.23v2.55c-.65 3.82-3.25 7.4-7.13 8.36-5.33 1.66-11.5-2.15-12.29-7.69m7.67-9.59c-5.76 1.19-8.21 9.18-4.02 13.34 3.8 4.49 11.98 2.87 13.68-2.79 2.27-5.74-3.68-12.38-9.66-10.55z"/><path d="M386.02 4.2c2.55.14 5.7-.8 7.76 1.15 1.66 2.03.33 4.6-1.19 6.23.91 1.57 1.81 3.14 2.66 4.74-3.61.42-4.2-3.74-6.71-5.39-.13 1.73-.2 3.45-.25 5.17-.58.01-1.75.02-2.33.02-.03-3.97-.06-7.95.06-11.92m2.33 1.95c.01 1.23.02 2.47.05 3.7 2.21-.1 4.43-.81 3.51-3.49l-3.56-.21zM.01 69.6c11.98-16.62 24.01-33.2 35.98-49.83 8.26.58 16.52 1.2 24.78 1.79-11.6 16.02-23.2 32.04-34.82 48.04-8.65-.01-17.29 0-25.94 0zM187.22 19.82c7.03.24 14.05.62 21.07.95.11 8.71-.19 17.43.1 26.13.22 3.23 3.95 4.49 6.73 4.31 11.98-.21 23.98.08 35.96-.14 2.75.26 4.42-2.54 4.2-5 .11-7.83-.04-15.66.02-23.48 6.92.35 13.83.72 20.75 1.04.12 9.03.68 18.05.3 27.07 23.58-.07 47.17-.04 70.75-.01 1.88-.06 3.93-.05 5.55-1.16 1.82-2.13.37-5.81-2.6-5.57-14.35-1.17-28.74-2.01-43.1-3.08-6.04-.54-12.36-.16-18-2.74-6.22-2.18-9.58-8.54-11.44-14.46 22.8 1.45 45.59 3.15 68.39 4.66 5.8.39 12.02.43 17.05 3.78 10.31 5.78 13.33 22 4.31 30.22-6.42 6.66-16.23 7.55-24.95 7.66h-66.03c-.34-6-.28-12.01-.12-18.02-.88 5.72-3.67 11.42-8.77 14.47-5.34 3.42-12.02 2.94-18.05 3.55h-30.65c-7.86-.74-16.68.52-23.58-4.19-4.47-2.86-6.45-8.12-7.38-13.11-2.57 10.73-13.65 17.19-24.2 17.3H71.24c-.8-15.86-.15-31.77-.35-47.66 7.01.44 14.02.89 21.04 1.31.03 9.09 0 18.18.01 27.27 22.03-.11 44.06-.16 66.08-.23 2.79-.06 5.62.23 8.38-.31 2.6-.93 2.47-4.66.2-5.89-1.79-.72-3.76-.72-5.66-.9-15.34-.89-30.67-1.98-46.01-2.91-4.8-.22-9.6-1.41-13.78-3.8-4.45-2.86-6.59-7.96-8.49-12.67 24.81 1.52 49.62 3.16 74.44 4.69 5.2.33 10.58 1.99 14.3 5.8 3.05 2.76 4.66 6.61 6.14 10.36-.18-8.41-.21-16.83-.32-25.24z"/></g></symbol><symbol id="avatar" viewBox="0 0 452 479"><path d="M164.46 2.7c6.45-.95 12.97-1.77 19.5-1.29 11.35.71 22.62 2.88 34.03 2.31 2.84-.32 5.21 1.33 6.82 3.5 6.64-.71 12.58 4.05 19.26 2.27 8.23 5.62 18.77 2.46 27.91 4.96 8.48 1.88 14.75 8.71 23.1 10.89 3.9 1.13 8.12-1.04 11.88.85 7.48 3.28 16.07 4.13 22.8 9.03 5.68 4.73 8.51 12.03 14.29 16.69 2.08 1.79 4.67 2.8 7.19 3.83 1.14 6.16 5.45 11 10.25 14.73 5.35 4.05 10.76 8.54 13.25 15 6.14-1.29 12.4-2.51 18.69-1.77-.42 1.57-.91 3.13-1.67 4.57 9.62 2.06 20.02-1.93 29.16 2.51-.98 2.11-2.54 4.11-4.88 4.72-9.13 1.93-18.05-3.77-27.16-1.38 1.17 2.93 3.28 5.3 4.99 7.9 7.83 11.46 15.88 22.99 26.48 32.09 2.87-5.7-2.79-13.35 2.85-17.98 4.93 8.84-2.74 18.82.5 27.96 1.37 3.32 5.4 4.13 7.53 6.82.5 1.32.67 2.74 1 4.12.91 5.73 5.58 10.13 6.07 15.99-.15 2.57-1.31 5.38-3.47 6.9-4.15-.62-1.9-6.21-3.03-9.05-2.8.4-4.28 3.55-3.23 6.08 1.85 5.02 5.92 8.96 7.28 14.21.92 2.91-.61 5.92-.02 8.86 1.44 3.88 5.34 6.65 5.52 11.02.7 9.99-.5 19.99-.1 29.98.6 14.29.7 28.6.34 42.9-.11 3.12.67 6.38-.24 9.42-1.58 2.2-3.65 4.1-4.56 6.72-4.19 10.53-2.01 22.32-5.65 32.97-1.05 3.51-3.74 6.14-6.75 8.04.43 14.62-8.93 27.28-8.89 41.86.25-.12.74-.34.99-.46 3.04-4.6 4.79-9.93 6-15.28 2.33-1.89 5.31-3.17 6.86-5.93 7.41-11.55 4.92-26.61 12.16-38.24-.26-7.07-1.58-15.25 3.72-20.91 1.57-44.36-2.72-88.83 1.44-133.11 2.52 3.22 2.94 7.51 3.64 11.4 1.13 12.52-.05 25.08-.01 37.62-.01 30.67.55 61.41-2.17 91.99-.75 5.99-.67 12.11-2.18 17.99-.76 3.39-5.29 5.12-4.43 8.98.96 5.33.27 10.84-1.81 15.82-3.53 8.99-11.4 15.41-15.03 24.34-1.27 2.88-1.9 5.98-2.39 9.08-2.33 1.64-4.8 3.09-6.92 5.02.69 4.85.93 9.89-.39 14.66-2.17 7.68-6.24 14.72-7.92 22.56-1.61 6.36-2.05 13.29-5.75 18.91-2.07 3.17-5.72 4.81-9.35 5.44 4.33-9.55 9.98-18.57 12.72-28.79 2.39-7.95 2.96-16.32 2.55-24.58-3.3.28-6.17 2.33-7.92 5.07-3.17 4.74-4.36 10.54-7.88 15.08-3.87 5.08-11.43 5.4-14.76 11.08-5.95 1.06-11.72 3.04-16.94 6.1-8.46 4.8-16.67 10.97-26.63 12.07.06-2.85 1.66-5.19 3.31-7.37.46-.69.88-1.41 1.32-2.1 5.17-1.42 10.48-2.35 15.52-4.22 11.84-4.21 22.65-10.86 32.93-17.98 1.47-3.76 2.26-7.96 4.88-11.23 3.9-6 10.14-9.79 14.87-15.01 3.81-4.06-.07-10.34 3.1-14.67 1.48-2 4.28-3.36 4.12-6.2 1.31-21.57 14.05-40.14 17.75-61.17.64-3.56.17-7.22.76-10.79.58-1.99 2.19-3.46 3.3-5.16 2.59-3.4 2.74-7.87 3.1-11.95.11-12.42-3.84-24.51-3.52-36.95.01-11.05 3.13-22.07 1.33-33.09-.51-4.6-4.63-7.6-5.71-11.98-.95-3.32-.51-6.95-1.91-10.14-.84-1.81-2.91-2.39-4.48-3.35-2.02-11.01-1.7-22.27-3.53-33.3-1.03-5.53-2.76-11.31-6.89-15.34-3.39-3.05-7.63-4.96-11.01-8.02-9.65-8.49-16.86-19.26-25.68-28.53-1.89.13-3.82.56-5.69.11-3.39-1.42-5.32-4.76-7.44-7.57 2.2-2.84 3.23-6.98.6-9.92-4.34-5.34-10.22-9.15-14.99-14.1-6-6.03-11.63-12.44-16.6-19.35-3.31-4.59-8.51-7.27-13.71-9.15-10.55-3.71-21.66-5.38-32.61-7.46-14.25-2.19-28.97-3.67-43.2-.64-4.79.72-8.23 4.74-13.01 5.46-7.9 1.51-16 1.64-24.02 1.56-7.16-.19-14.72-2.15-21.54.94-5.77 2.64-12.2 2.5-18.4 2.34-4.29-.38-8.98.02-12.87-2.14 3.71-3.93 9.56-.34 13.84-3.02-.91-5.86-7.13-6.84-11.53-9.05-2.46-1.1-3.4-3.7-4.15-6.08-4.79 1.13-9.53 2.73-13.72 5.37-9.19 5.52-16.09 14.24-25.79 18.99-4.09 1.44-4.77 6.22-6.97 9.45.76.7 1.52 1.41 2.29 2.11-2.2 6.34-8.41 9.75-13.23 13.82-1.68 6.86-1.72 14.49-6.21 20.33-.39-3.11 2.79-9.08-1.55-10.26.22 2.04.51 4.08.76 6.12-11.88 5.29-20.61 17.27-20.64 30.46 7.89-3.38 9.03-12.71 12.71-19.46 1.48-2.45 4.67-1 6.85-.63-.8 6.44-4 12.32-8.31 17.09-5.02 5.69-10.54 11.34-12.8 18.8-1.5.39-3 .77-4.5 1.15-5.35 8.76-6.72 19.17-11.18 28.33-1.54 3.23-4.39 5.74-5.46 9.2-.64 4.61-.2 9.57-2.68 13.74-1.91 3.15-3.02 6.8-1.57 10.39-1.54 3.72-5.43 5.45-7.68 8.6-2.44 4.66-2.17 10.13-3.45 15.14-.51 2.57-2.13 4.69-3.18 7.05-.46 2.92-.34 5.9-.83 8.82-1.91 11.32-7.2 21.76-8.85 33.14-1.86 10.99.26 22.07 1.07 33.05.52 9.67 2.03 19.45.46 29.09-.46 4.05-4.03 6.8-4.77 10.76-1.79 7.53-2.67 15.57-.88 23.18 1.29 6.15 9.4 6.68 11.36 12.49 6.9 18.95 12.93 38.29 21.34 56.66-.71 2.13-2.09 4.57-.5 6.67 1.82 2.82 4.44 5.06 5.98 8.08 2.02.42 4.06.87 5.95 1.72l.66.37c-1.72-.13-3.36-.74-5.06-.94-2.17-.34-1.52 3.31-3.79 2.85-3.81-1.36-5.77-5.3-7.41-8.72-4.52-10.62-9.17-21.21-14.57-31.42-2.06-3.9-4.82-7.39-6.68-11.4-1.57-3.21-1.03-7.04-2.72-10.21-2.54-5.25-7.15-9.17-9.57-14.48-1.94-4-.22-8.58-1.48-12.75-2.1-9.46-6.37-19.66-1.6-29.06 1.2.25 1.93.97 2.18 2.17 1.69 6.54-1.16 13.52 1.08 19.94 1.81-18.63 4.81-37.26 3.82-56.03-.35-4.65-.65-9.3-.9-13.95-.76-11.37 1.63-22.66 1.09-34.02-.54-14.06-2.03-28.36 1.11-42.23 1.03-4.91 3.91-9.11 5.53-13.8.75-2.15.38-4.56 1.38-6.63 1.39-2.29 3.8-3.81 5.03-6.21 1.75-4 1.22-8.64 3.17-12.56 2.43-3.92 7.04-5.75 9.66-9.5 2.06-2.77-.13-6.77 2.4-9.34 4.05-4.95 9.86-8.22 13.64-13.43 2.23-2.97.95-6.81 1.25-10.2.76-7.29 7.31-12.67 7.3-20.15.21-2.24-.88-4.44-.52-6.65 1.77-1.58 4.13-2.48 5.57-4.43 3.48-5.19 3.21-12.01 6.94-17.08 4.08-5.38 10.83-7.77 15.21-12.85 4.05-4.7 7.02-10.24 11.08-14.94 11.13-12.53 24.57-22.66 37.5-33.22 1.65-1.42 3.8-2.55 4.54-4.74-2.5-.25-4.99-.6-7.49-.8.17-1.98-1.07-5.11 1.58-5.88 5.31-2.12 10.4 2.34 15.78 2.02 2.85.31 4.52-2.33 6.43-3.95 1.83-1.83 4.53-2.27 6.96-2.75m-3.34 7.86c9.04 3.16 11.42 14.31 19.99 18.12 2.87 1.42 6.14.89 9.18.49-.13-6.92.53-13.88-.36-20.77-9.54-2.43-19.52-.42-28.81 2.16m36.05-2.16c1.46 7.76 5.27 14.75 8.2 22.01 10.34 3.66 20.68-1.29 30.53-4.1 13.49-4.25 27.81 2.71 41.21-2.05-5.69-2.9-11.87-4.65-18-6.35-20.29-5.19-41.24-6.75-61.94-9.51m-41.88 7.02c-.08 8.29 9.33 10.32 15.54 12.53-.65-2.34-1.46-4.77-3.34-6.42-3.46-3.08-8.09-4.19-12.2-6.11m42.78 13.91c1.47-.8 1.5-1.65.1-2.54-1.44.82-1.47 1.67-.1 2.54M41.76 161.6c1.38-.08 1.76-2.74.24-2.9-1.49.09-1.95 2.8-.24 2.9m-9.34 9.86c-3.75 3.45-1.17 9.63-4.85 13.13-11.45 12.34-13.05 30.65-10.34 46.56 2.53-9.43 6.1-18.53 10.41-27.28 5.73-11.63 10.76-23.87 11.89-36.91-2.74.78-5.03 2.62-7.11 4.5z"/><path d="M147.53 103.59c5.6-3.13 8.65-10.57 15.79-10.74-.07 2.95-2.52 5.03-4.36 7.04-10.02 9.64-23.69 14.04-36.93 17.14-14.62 3.17-29.5 5.27-44.39 6.62.3-.72.89-2.16 1.18-2.87 3.06-2 6.84-.69 10.25-1.11 10.96-1.03 21.67-3.78 32.31-6.54 8.92-2.5 18.07-4.86 26.15-9.54zM272.3 96.75c1.12-.87 2.38-1.3 3.79-1.31 3.16 1.19 4.43 4.8 7.53 6.13 9.18 4.92 19.43 7.32 29.52 9.58 10.84 2.41 22.28 3.17 32.38 8.14 1.23.88 3.43 1.19 3.42 3.1-24.34-3.23-49.8-6.76-70.86-20.37-2.31-1.3-4.42-2.96-5.78-5.27zM152.73 139.92c7.19-3.39 15.44-3.11 23.17-2.49 4.79.72 11.15 2.33 12.05 7.98 1.97 11.37-1.21 22.69-3.01 33.86-1.02 4.8 1.26 10.3-1.93 14.56-4.96 7.18-12.91 12.2-21.39 14.11-8.43 1.71-17.11 1.66-25.64.86-16.22-.75-32.39-3.6-48.66-2.16-.42-11.54-1.07-23.25 1.44-34.62 1.38-5.8 3.97-11.78 9.05-15.25 5.43-3.68 11.94-5.13 18.21-6.67 6.97-1.61 13.88-3.62 21.02-4.3 3.39-.33 6.72 1.22 10.11.54 2.88-1.14 2.78-5.15 5.58-6.42m8.84 3.85c-18.45 6.14-37.98 7.9-56.57 13.5-1.18.37-2.4.7-3.45 1.38-10.09 12.52-13.03 29.27-12 44.96 16.81-.01 33.58 1.7 50.39 1.63 9.95-.48 20.33-.65 29.54-4.93 6.13-2.76 10.11-8.8 11.64-15.19 3.2-12.67 1.72-25.87 3.35-38.73-2.67-3.59-6.99-5.31-11.37-5.47-4.12-.77-7.75 1.7-11.53 2.85zM299.03 140.44c.22-.68.66-2.05.88-2.74 5.8-1.06 12.04.01 16.91 3.41 4.78 3.18 8.18 7.88 12.12 11.97 3.87 4.36 8.01 8.97 9.43 14.79 2.4 11.93-5.71 23.34-2.46 35.29-5.36 5.06-12.68 7.66-19.91 8.43-7.25.49-14.88.42-21.55-2.8-5.77-2.91-12.35-.34-18.43-1.75-15.34-1.87-28.51-10.44-42.58-16.07-.85-7.98-.15-16.05 1.18-23.94.71-4.3 3.77-7.7 7.08-10.31 9.68-7.69 21.05-13.65 33.39-15.47 7.9-1.47 15.96-.87 23.94-.81m3.17 1.13c-.65 3.14 4.25 3.22 3.78 6.41-5.48-1.91-11.1-3.67-16.95-3.71-16.27-.7-33.53 4.63-44.75 16.86-2.94 2.75-6.35 5.67-6.79 9.96-.59 4.95-.23 9.95-.35 14.93 9.99 10.23 24.58 13.44 38.02 16.48 12.23 2.27 24.38 5.65 36.87 5.94 7.44.12 16.31-2.13 19.76-9.43-.62-7.07.59-14.04 1.78-20.98.2-4.01 1.24-8.7-1.42-12.15-5.56-7.81-11.05-16.24-19.56-21.14-3.15-1.92-6.8-2.6-10.39-3.17z"/><path d="M270.43 189.22c-.64-7.85-1.5-15.85.4-23.61 1.53-.13 3.06-.07 4.59.19.41 5.12-1.27 10.06-1.61 15.13-.24 3.13 1.46 6.46 4.64 7.34 6.37 1.83 13.19.05 19.09-2.57 2.83-1.46 6.32-3.24 6.84-6.75.62-3.11-1.62-5.98-4.48-6.94-7.35-2.67-15.44-1.58-22.86-3.95 5.18-2.66 11.39-2.84 17.02-1.71 4.67.92 9.5 3.01 12.2 7.13 3.14 5.13 1.03 12.64-4.65 14.99-9.56 4.51-21.58 5.84-31.18.75zM121.23 177.6c2.29-4.41 7.12-6.73 11.76-7.78 7.86-1.37 16.47-.42 23.2 4.12 3.7 2.41 6.56 6.57 6.38 11.12.15 3.31-1.4 6.31-2.6 9.3-10.89.83-22 1.95-32.77-.45-1.91-.6-4-.98-5.62-2.19-2.02-4.36-2.69-9.75-.35-14.12m6.82-2.67c-3.57 1.72-5.41 6.22-3.9 9.93.84 2.12 1.45 5.21 4.2 5.49 8.75 1.92 17.76 2.42 26.69 1.92 1.82-2.74 3.82-5.87 3.22-9.33-1.02-4.44-5.27-7.13-9.3-8.53-6.71-2.21-14.43-2.68-20.91.52zM186.98 245.03c1.02-1.73 3.16-1.18 4.81-1.32-.03 2.38-1.43 4.35-2.42 6.41-5.85 11.76-12.28 23.35-20.72 33.47-.85 2.91-.14 6.43-2.19 9-1.15 1.59-3.17 1.97-5 2.12.08-9.36 6.3-16.68 11.78-23.6.07-2-.26-4.21.93-5.96 2.32-3.62 6.41-5.6 8.87-9.09 2.22-3.32 2.04-7.58 3.94-11.03zM239.6 259.81c.54-.2 1.63-.59 2.17-.79 6.01 9.19 11.25 20.27 7.91 31.46-.61-4.99-1.66-10.01-4.16-14.42-2.76-5.09-5.39-10.4-5.92-16.25zM193.9 291.03c6.46-2.29 16.27-.38 17.6 7.52-4.49-.51-7.94-4.26-12.43-5.02-2.93.38-5.85 3.15-8.81 1.23-.45-2.16 2.15-2.92 3.64-3.73zM217.98 294.05c2.09-3.26 6.28-4.77 10.03-4.45 2.59.11 4.59 2.44 4.71 4.97-3.1.64-5.86-1.1-8.7-2.01-.58.28-1.73.84-2.3 1.12a74.25 74.25 0 0 1-.57 5.56c-2.07-.65-4.6-2.84-3.17-5.19zM119.27 312.55c2.11-.71 4.26-1.26 6.48-1.5-.1 1.37.52 3.04-.43 4.22-1.66 1.47-3.71 2.37-5.47 3.69-1.16 1.63-1.18 3.83-2.38 5.46-2.3 3.05-5.7 5.14-7.6 8.51-1.01 1.75-.92 4.01-2.3 5.56-4.82 5.65-10.26 10.96-13.57 17.7-3.03 5.92-3.24 12.85-6.4 18.71-1.25 2.12-2.9 4.19-5.24 5.13-1.07-6.42 6.28-10.73 4.24-17.26 8.88-17.98 21.84-33.45 32.67-50.22zM120.05 365.87c11.23-9.07 24.05-17.75 38.96-18.38 5.46-.61 9.37 4.11 14.57 4.74 13.46 3 27.14-2.63 40.58.27 7.9 1.64 13.95 7.39 19.8 12.56 8.46 8.19 17.95 15.27 25.91 23.99-2.29 3.55-7.62 3.77-9.16 7.96-.22 1.52-.13 3.06-.26 4.59-4.32 5.61-10.23 9.72-15.9 13.85-9.16 6.41-16.51 15.32-26.7 20.24-9.19 4.71-19.84 4.8-29.91 4.31-15.68-1.69-31.19 2.45-46.87 1.82-4.08-.2-8.31-.23-12.13-1.85-4.33-2.03-7.39-5.85-11.09-8.75-4.1-3.28-9.31-4.98-12.96-8.84-4.05-4.32-8.41-9.12-9.07-15.28-.99-8.32 2.03-16.46 5.35-23.93 5.64-4.41 11.1-10.4 18.72-10.86 4.07-.8 7.02-3.97 10.16-6.44m-3.58 5.19c-.38 1.37-.76 2.74-1.12 4.13-7.57 1.67-15.42 4.5-20.52 10.66-4.98 5.78-6.16 13.83-5.53 21.21 8.32 10.31 15.83 22.57 28.59 27.88 11.17 4.82 23.5 1.89 34.97-.07 15.53-2.97 31.38-.48 47.05-1.45 5.63-.51 11.51-1.52 16.21-4.88 3.32-2.39 4-6.91 7.16-9.45 3.12-2.54 6.97-4.1 9.8-7.03 2.26-2.35 4.85-4.33 7.61-6.04.11-2.23-.26-4.61 1.05-6.57 2.85-4.4 8.56-5.82 11.19-10.41-2.13-2.77-4.37-5.45-6.46-8.23-10.03-4.64-15.75-15.85-26.94-18.45-.39-1.26-.77-2.52-1.13-3.78-14.41-5.98-30.33-3.25-45.38-2.18-7.15.76-12.66-6.2-19.93-4.51-14.56 1.3-23.03 15.41-36.62 19.17z"/><path d="M149.27 371.01c16.49-2.53 33.14-.52 49.7-.2 7.03.55 14.13.75 21.13-.23 1.96-.47 3.27 1.21 4.44 2.47 3.65 4.54 9.95 6.2 13.02 11.32 1.75 2.38 1.26 6.7-2.07 7.35-3.55 1.28-9.91.99-9.7 6.25-.24 5.07-4 9.12-8.2 11.54-7.93 4.51-17.1 5.87-25.72 8.55-11.33 3.57-22.96 6.39-34.82 7.34-7.02.47-14.27.42-20.95-2.08-9.01-3.08-16.2-9.54-24.38-14.17-1.7-4.99-3.87-10.05-3.06-15.45 7.47-.94 11.59-8.08 18.46-10.36 4.42-7.92 13.74-10.97 22.15-12.33m6.19 2.45c-.4 4.49.07 8.98-.1 13.48 5.17 2.07 10.82 4.16 16.44 2.69-.19-5.12.67-10.21.71-15.32-5.05-2.89-11.48-1.33-17.05-.85m19.89.19c-.06 5.31-.28 10.63.18 15.93 6 .32 12.3 1.35 18.07-.72 1.26-4.86.43-10 .89-14.97-6.24-1.81-12.85-1.61-19.14-.24m23.33.12c-.32 3.9-.81 7.99.64 11.73 8.58 2.91 16.91-2.67 25.57-1.73-1.25 2.79-4.7 3.53-7.28 4.68-14.84 4.56-30.8 2.03-45.72 6.29-5.89-1.66-11.9-2.88-18-3.52-7.5-1.13-15.43-1.76-22.1-5.7-6.62 3.86-12.85 8.41-20.11 11.08.35 4.44 1.55 9.56 5.72 11.94 3.12 1.44 5.07-1.67 6.39-3.94-2.4-1.03-5.54-.93-7.4-2.85-1.56-2.62 1.96-2.56 3.58-2.92 2.27.43 4.57.75 6.86 1.14 5.3.96 10.91 0 16.02 2.03 2.83 1.55 4.85 4.35 8.01 5.38 11.8 4.65 24.78 3.48 37.03 6.01 3.35.72 6.9.63 10.11-.64 6.41-2.33 13.59-3.44 18.86-8.09 3.18-2.73 4.5-6.95 4.58-11.02 3.61-1.1 8.18-3.23 8.42-7.55.47-4.48-3.41-7.76-6.95-9.7-7.3-3.87-16.33-5.67-24.23-2.62m-59.15 3.7c-1.74 1.81-4.58 2.75-5.51 5.2 5.89 2.49 12.32 2.98 18.54 4.14-.01-4.33.07-8.65-.09-12.97-4.67-1.14-9.48.42-12.94 3.63m-15.52 32.72c4.8 4.28 9.83 8.6 16.02 10.71.6-.2 1.8-.61 2.39-.81.62-4.26 1.98-8.57 2.23-12.75-3.19-2.67-7.6-3.26-11.62-2.93-3.69.27-7.75 1.98-9.02 5.78m24.34 10.35c4.67 1.07 9.44.26 14.17.31.57-1.58.71-3.56 2.44-4.37 1.84.46 2.11 2.6 3.01 3.98 3.28-.82 6.67-.59 10.01-.95 1.55-.24 2.7-1.46 2.95-2.98-10.9-.62-21.75-2.58-32.07-6.22-.44 3.3-2.25 7.21-.51 10.23zM270.21 371.59c2.81-2.08 5.81.88 6.75 3.51 3.78 9.13 6.76 19.03 5.49 29.03-.41 3.58-2 6.91-4.07 9.82 1.97-9.26 1.68-19.05-1.37-28.04-1.66-5.05-4.72-9.46-6.8-14.32zM70.26 423.05c-.06-1.54 1.54-1.75 2.69-1.94 3.17-.14 5.79 1.86 8.43 3.31 2.47 10.85 12.8 16.78 18.05 26.01 2.44 1.42 5.48 1.61 7.7 3.46 1.43 1.02 2.01 2.75 3.01 4.14 3.39.7 6.96.47 10.27 1.67.26 1.17.19 2.38.04 3.57-.61.23-1.83.68-2.43.91-4.36-.7-8.39-2.56-12.61-3.73a10.59 10.59 0 0 0-9.64-7.19c-8.1-10.38-14.96-22.03-25.51-30.21z"/><path d="M72.91 453.62c10.54 3.25 15.07 15.27 25.5 18.73 8.01 2.52 16.41.02 24.58.32 34 .2 68.07 2.12 102.03-.43 12.29-1.35 25.27-2.71 35.87-9.65 5.67-3.48 12.22-5.02 18.26-7.67l1.33-.42c-2.54 4.65-7.06 8.27-12 10.21-9.47 3.79-19.84 4.45-29.39 7.98-3.26 1.2-5.36 4.68-8.98 5-7 1.08-14.11.56-21.13.06-28.28-1.58-56.62.61-84.91-.74-9.83-.82-19.91.81-29.55-1.77-8.2-2.42-11.05-12.37-19.26-14.79-.78-1.46-1.03-3.4-2.46-4.36-.42-.24-1.25-.72-1.66-.96l.51-.29c.31-.3.95-.91 1.26-1.22z"/><g><path d="M161.12 10.56c9.29-2.58 19.27-4.59 28.81-2.16.89 6.89.23 13.85.36 20.77-3.04.4-6.31.93-9.18-.49-8.57-3.81-10.95-14.96-19.99-18.12zM197.17 8.4c20.7 2.76 41.65 4.32 61.94 9.51 6.13 1.7 12.31 3.45 18 6.35-13.4 4.76-27.72-2.2-41.21 2.05-9.85 2.81-20.19 7.76-30.53 4.1-2.93-7.26-6.74-14.25-8.2-22.01zM155.29 15.42c4.11 1.92 8.74 3.03 12.2 6.11 1.88 1.65 2.69 4.08 3.34 6.42-6.21-2.21-15.62-4.24-15.54-12.53z"/><path d="M137.62 25.59c4.19-2.64 8.93-4.24 13.72-5.37.75 2.38 1.69 4.98 4.15 6.08 4.4 2.21 10.62 3.19 11.53 9.05-4.28 2.68-10.13-.91-13.84 3.02 3.89 2.16 8.58 1.76 12.87 2.14 6.2.16 12.63.3 18.4-2.34 6.82-3.09 14.38-1.13 21.54-.94 8.02.08 16.12-.05 24.02-1.56 4.78-.72 8.22-4.74 13.01-5.46 14.23-3.03 28.95-1.55 43.2.64 10.95 2.08 22.06 3.75 32.61 7.46 5.2 1.88 10.4 4.56 13.71 9.15 4.97 6.91 10.6 13.32 16.6 19.35 4.77 4.95 10.65 8.76 14.99 14.1 2.63 2.94 1.6 7.08-.6 9.92 2.12 2.81 4.05 6.15 7.44 7.57 1.87.45 3.8.02 5.69-.11 8.82 9.27 16.03 20.04 25.68 28.53 3.38 3.06 7.62 4.97 11.01 8.02 4.13 4.03 5.86 9.81 6.89 15.34 1.83 11.03 1.51 22.29 3.53 33.3 1.57.96 3.64 1.54 4.48 3.35 1.4 3.19.96 6.82 1.91 10.14 1.08 4.38 5.2 7.38 5.71 11.98 1.8 11.02-1.32 22.04-1.33 33.09-.32 12.44 3.63 24.53 3.52 36.95-.36 4.08-.51 8.55-3.1 11.95-1.11 1.7-2.72 3.17-3.3 5.16-.59 3.57-.12 7.23-.76 10.79-3.7 21.03-16.44 39.6-17.75 61.17.16 2.84-2.64 4.2-4.12 6.2-3.17 4.33.71 10.61-3.1 14.67-4.73 5.22-10.97 9.01-14.87 15.01-2.62 3.27-3.41 7.47-4.88 11.23-10.28 7.12-21.09 13.77-32.93 17.98-5.04 1.87-10.35 2.8-15.52 4.22-.44.69-.86 1.41-1.32 2.1-2.82-1.76-5.33 1.13-8.09 1.52-2.41.77-4.86 1.38-7.29 2.07-3.39 1.12-6.87 1.93-10.34 2.74-2.72 1.6-5.6 3.05-8.76 3.53-1.76.19-3.39.88-4.79 1.97-2.4.29-4.76.85-7.09 1.49-3.57 1.08-7.44.64-10.9 2.13-6.04 2.65-12.59 4.19-18.26 7.67-10.6 6.94-23.58 8.3-35.87 9.65-33.96 2.55-68.03.63-102.03.43-8.17-.3-16.57 2.2-24.58-.32-10.43-3.46-14.96-15.48-25.5-18.73-.31.31-.95.92-1.26 1.22l-.51.29c-5.1-1.34-9.94-4-15.12-5.09l-.66-.37c-1.89-.85-3.93-1.3-5.95-1.72-1.54-3.02-4.16-5.26-5.98-8.08-1.59-2.1-.21-4.54.5-6.67-8.41-18.37-14.44-37.71-21.34-56.66-1.96-5.81-10.07-6.34-11.36-12.49-1.79-7.61-.91-15.65.88-23.18.74-3.96 4.31-6.71 4.77-10.76 1.57-9.64.06-19.42-.46-29.09-.81-10.98-2.93-22.06-1.07-33.05 1.65-11.38 6.94-21.82 8.85-33.14.49-2.92.37-5.9.83-8.82 1.05-2.36 2.67-4.48 3.18-7.05 1.28-5.01 1.01-10.48 3.45-15.14 2.25-3.15 6.14-4.88 7.68-8.6-1.45-3.59-.34-7.24 1.57-10.39 2.48-4.17 2.04-9.13 2.68-13.74 1.07-3.46 3.92-5.97 5.46-9.2 4.46-9.16 5.83-19.57 11.18-28.33 1.5-.38 3-.76 4.5-1.15 2.26-7.46 7.78-13.11 12.8-18.8 4.31-4.77 7.51-10.65 8.31-17.09-2.18-.37-5.37-1.82-6.85.63-3.68 6.75-4.82 16.08-12.71 19.46.03-13.19 8.76-25.17 20.64-30.46-.25-2.04-.54-4.08-.76-6.12 4.34 1.18 1.16 7.15 1.55 10.26 4.49-5.84 4.53-13.47 6.21-20.33 4.82-4.07 11.03-7.48 13.23-13.82-.77-.7-1.53-1.41-2.29-2.11 2.2-3.23 2.88-8.01 6.97-9.45 9.7-4.75 16.6-13.47 25.79-18.99m9.91 78c-8.08 4.68-17.23 7.04-26.15 9.54-10.64 2.76-21.35 5.51-32.31 6.54-3.41.42-7.19-.89-10.25 1.11-.29.71-.88 2.15-1.18 2.87 14.89-1.35 29.77-3.45 44.39-6.62 13.24-3.1 26.91-7.5 36.93-17.14 1.84-2.01 4.29-4.09 4.36-7.04-7.14.17-10.19 7.61-15.79 10.74m124.77-6.84c1.36 2.31 3.47 3.97 5.78 5.27 21.06 13.61 46.52 17.14 70.86 20.37.01-1.91-2.19-2.22-3.42-3.1-10.1-4.97-21.54-5.73-32.38-8.14-10.09-2.26-20.34-4.66-29.52-9.58-3.1-1.33-4.37-4.94-7.53-6.13-1.41.01-2.67.44-3.79 1.31m-119.57 43.17c-2.8 1.27-2.7 5.28-5.58 6.42-3.39.68-6.72-.87-10.11-.54-7.14.68-14.05 2.69-21.02 4.3-6.27 1.54-12.78 2.99-18.21 6.67-5.08 3.47-7.67 9.45-9.05 15.25-2.51 11.37-1.86 23.08-1.44 34.62 16.27-1.44 32.44 1.41 48.66 2.16 8.53.8 17.21.85 25.64-.86 8.48-1.91 16.43-6.93 21.39-14.11 3.19-4.26.91-9.76 1.93-14.56 1.8-11.17 4.98-22.49 3.01-33.86-.9-5.65-7.26-7.26-12.05-7.98-7.73-.62-15.98-.9-23.17 2.49m146.3.52c-7.98-.06-16.04-.66-23.94.81-12.34 1.82-23.71 7.78-33.39 15.47-3.31 2.61-6.37 6.01-7.08 10.31-1.33 7.89-2.03 15.96-1.18 23.94 14.07 5.63 27.24 14.2 42.58 16.07 6.08 1.41 12.66-1.16 18.43 1.75 6.67 3.22 14.3 3.29 21.55 2.8 7.23-.77 14.55-3.37 19.91-8.43-3.25-11.95 4.86-23.36 2.46-35.29-1.42-5.82-5.56-10.43-9.43-14.79-3.94-4.09-7.34-8.79-12.12-11.97-4.87-3.4-11.11-4.47-16.91-3.41-.22.69-.66 2.06-.88 2.74M186.98 245.03c-1.9 3.45-1.72 7.71-3.94 11.03-2.46 3.49-6.55 5.47-8.87 9.09-1.19 1.75-.86 3.96-.93 5.96-5.48 6.92-11.7 14.24-11.78 23.6 1.83-.15 3.85-.53 5-2.12 2.05-2.57 1.34-6.09 2.19-9 8.44-10.12 14.87-21.71 20.72-33.47.99-2.06 2.39-4.03 2.42-6.41-1.65.14-3.79-.41-4.81 1.32m52.62 14.78c.53 5.85 3.16 11.16 5.92 16.25 2.5 4.41 3.55 9.43 4.16 14.42 3.34-11.19-1.9-22.27-7.91-31.46-.54.2-1.63.59-2.17.79m-45.7 31.22c-1.49.81-4.09 1.57-3.64 3.73 2.96 1.92 5.88-.85 8.81-1.23 4.49.76 7.94 4.51 12.43 5.02-1.33-7.9-11.14-9.81-17.6-7.52m24.08 3.02c-1.43 2.35 1.1 4.54 3.17 5.19.26-1.85.45-3.7.57-5.56.57-.28 1.72-.84 2.3-1.12 2.84.91 5.6 2.65 8.7 2.01-.12-2.53-2.12-4.86-4.71-4.97-3.75-.32-7.94 1.19-10.03 4.45m-98.71 18.5c-10.83 16.77-23.79 32.24-32.67 50.22 2.04 6.53-5.31 10.84-4.24 17.26 2.34-.94 3.99-3.01 5.24-5.13 3.16-5.86 3.37-12.79 6.4-18.71 3.31-6.74 8.75-12.05 13.57-17.7 1.38-1.55 1.29-3.81 2.3-5.56 1.9-3.37 5.3-5.46 7.6-8.51 1.2-1.63 1.22-3.83 2.38-5.46 1.76-1.32 3.81-2.22 5.47-3.69.95-1.18.33-2.85.43-4.22-2.22.24-4.37.79-6.48 1.5m.78 53.32c-3.14 2.47-6.09 5.64-10.16 6.44-7.62.46-13.08 6.45-18.72 10.86-3.32 7.47-6.34 15.61-5.35 23.93.66 6.16 5.02 10.96 9.07 15.28 3.65 3.86 8.86 5.56 12.96 8.84 3.7 2.9 6.76 6.72 11.09 8.75 3.82 1.62 8.05 1.65 12.13 1.85 15.68.63 31.19-3.51 46.87-1.82 10.07.49 20.72.4 29.91-4.31 10.19-4.92 17.54-13.83 26.7-20.24 5.67-4.13 11.58-8.24 15.9-13.85.13-1.53.04-3.07.26-4.59 1.54-4.19 6.87-4.41 9.16-7.96-7.96-8.72-17.45-15.8-25.91-23.99-5.85-5.17-11.9-10.92-19.8-12.56-13.44-2.9-27.12 2.73-40.58-.27-5.2-.63-9.11-5.35-14.57-4.74-14.91.63-27.73 9.31-38.96 18.38m150.16 5.72c2.08 4.86 5.14 9.27 6.8 14.32 3.05 8.99 3.34 18.78 1.37 28.04 2.07-2.91 3.66-6.24 4.07-9.82 1.27-10-1.71-19.9-5.49-29.03-.94-2.63-3.94-5.59-6.75-3.51M70.26 423.05c10.55 8.18 17.41 19.83 25.51 30.21 4.38.15 8.25 3.04 9.64 7.19 4.22 1.17 8.25 3.03 12.61 3.73.6-.23 1.82-.68 2.43-.91.15-1.19.22-2.4-.04-3.57-3.31-1.2-6.88-.97-10.27-1.67-1-1.39-1.58-3.12-3.01-4.14-2.22-1.85-5.26-2.04-7.7-3.46-5.25-9.23-15.58-15.16-18.05-26.01-2.64-1.45-5.26-3.45-8.43-3.31-1.15.19-2.75.4-2.69 1.94z"/><path d="M198.07 29.33c-1.37-.87-1.34-1.72.1-2.54 1.4.89 1.37 1.74-.1 2.54zM161.57 143.77c3.78-1.15 7.41-3.62 11.53-2.85 4.38.16 8.7 1.88 11.37 5.47-1.63 12.86-.15 26.06-3.35 38.73-1.53 6.39-5.51 12.43-11.64 15.19-9.21 4.28-19.59 4.45-29.54 4.93-16.81.07-33.58-1.64-50.39-1.63-1.03-15.69 1.91-32.44 12-44.96 1.05-.68 2.27-1.01 3.45-1.38 18.59-5.6 38.12-7.36 56.57-13.5m-40.34 33.83c-2.34 4.37-1.67 9.76.35 14.12 1.62 1.21 3.71 1.59 5.62 2.19 10.77 2.4 21.88 1.28 32.77.45 1.2-2.99 2.75-5.99 2.6-9.3.18-4.55-2.68-8.71-6.38-11.12-6.73-4.54-15.34-5.49-23.2-4.12-4.64 1.05-9.47 3.37-11.76 7.78zM302.2 141.57c3.59.57 7.24 1.25 10.39 3.17 8.51 4.9 14 13.33 19.56 21.14 2.66 3.45 1.62 8.14 1.42 12.15-1.19 6.94-2.4 13.91-1.78 20.98-3.45 7.3-12.32 9.55-19.76 9.43-12.49-.29-24.64-3.67-36.87-5.94-13.44-3.04-28.03-6.25-38.02-16.48.12-4.98-.24-9.98.35-14.93.44-4.29 3.85-7.21 6.79-9.96 11.22-12.23 28.48-17.56 44.75-16.86 5.85.04 11.47 1.8 16.95 3.71.47-3.19-4.43-3.27-3.78-6.41m-31.77 47.65c9.6 5.09 21.62 3.76 31.18-.75 5.68-2.35 7.79-9.86 4.65-14.99-2.7-4.12-7.53-6.21-12.2-7.13-5.63-1.13-11.84-.95-17.02 1.71 7.42 2.37 15.51 1.28 22.86 3.95 2.86.96 5.1 3.83 4.48 6.94-.52 3.51-4.01 5.29-6.84 6.75-5.9 2.62-12.72 4.4-19.09 2.57-3.18-.88-4.88-4.21-4.64-7.34.34-5.07 2.02-10.01 1.61-15.13-1.53-.26-3.06-.32-4.59-.19-1.9 7.76-1.04 15.76-.4 23.61zM41.76 161.6c-1.71-.1-1.25-2.81.24-2.9 1.52.16 1.14 2.82-.24 2.9zM32.42 171.46c2.08-1.88 4.37-3.72 7.11-4.5-1.13 13.04-6.16 25.28-11.89 36.91-4.31 8.75-7.88 17.85-10.41 27.28-2.71-15.91-1.11-34.22 10.34-46.56 3.68-3.5 1.1-9.68 4.85-13.13z"/><path d="M128.05 174.93c6.48-3.2 14.2-2.73 20.91-.52 4.03 1.4 8.28 4.09 9.3 8.53.6 3.46-1.4 6.59-3.22 9.33-8.93.5-17.94 0-26.69-1.92-2.75-.28-3.36-3.37-4.2-5.49-1.51-3.71.33-8.21 3.9-9.93zM116.47 371.06c13.59-3.76 22.06-17.87 36.62-19.17 7.27-1.69 12.78 5.27 19.93 4.51 15.05-1.07 30.97-3.8 45.38 2.18.36 1.26.74 2.52 1.13 3.78 11.19 2.6 16.91 13.81 26.94 18.45 2.09 2.78 4.33 5.46 6.46 8.23-2.63 4.59-8.34 6.01-11.19 10.41-1.31 1.96-.94 4.34-1.05 6.57-2.76 1.71-5.35 3.69-7.61 6.04-2.83 2.93-6.68 4.49-9.8 7.03-3.16 2.54-3.84 7.06-7.16 9.45-4.7 3.36-10.58 4.37-16.21 4.88-15.67.97-31.52-1.52-47.05 1.45-11.47 1.96-23.8 4.89-34.97.07-12.76-5.31-20.27-17.57-28.59-27.88-.63-7.38.55-15.43 5.53-21.21 5.1-6.16 12.95-8.99 20.52-10.66.36-1.39.74-2.76 1.12-4.13m32.8-.05c-8.41 1.36-17.73 4.41-22.15 12.33-6.87 2.28-10.99 9.42-18.46 10.36-.81 5.4 1.36 10.46 3.06 15.45 8.18 4.63 15.37 11.09 24.38 14.17 6.68 2.5 13.93 2.55 20.95 2.08 11.86-.95 23.49-3.77 34.82-7.34 8.62-2.68 17.79-4.04 25.72-8.55 4.2-2.42 7.96-6.47 8.2-11.54-.21-5.26 6.15-4.97 9.7-6.25 3.33-.65 3.82-4.97 2.07-7.35-3.07-5.12-9.37-6.78-13.02-11.32-1.17-1.26-2.48-2.94-4.44-2.47-7 .98-14.1.78-21.13.23-16.56-.32-33.21-2.33-49.7.2z"/><path d="M155.46 373.46c5.57-.48 12-2.04 17.05.85-.04 5.11-.9 10.2-.71 15.32-5.62 1.47-11.27-.62-16.44-2.69.17-4.5-.3-8.99.1-13.48zM175.35 373.65c6.29-1.37 12.9-1.57 19.14.24-.46 4.97.37 10.11-.89 14.97-5.77 2.07-12.07 1.04-18.07.72-.46-5.3-.24-10.62-.18-15.93z"/><path d="M198.68 373.77c7.9-3.05 16.93-1.25 24.23 2.62 3.54 1.94 7.42 5.22 6.95 9.7-.24 4.32-4.81 6.45-8.42 7.55-.08 4.07-1.4 8.29-4.58 11.02-5.27 4.65-12.45 5.76-18.86 8.09-3.21 1.27-6.76 1.36-10.11.64-12.25-2.53-25.23-1.36-37.03-6.01-3.16-1.03-5.18-3.83-8.01-5.38-5.11-2.03-10.72-1.07-16.02-2.03-2.29-.39-4.59-.71-6.86-1.14-1.62.36-5.14.3-3.58 2.92 1.86 1.92 5 1.82 7.4 2.85-1.32 2.27-3.27 5.38-6.39 3.94-4.17-2.38-5.37-7.5-5.72-11.94 7.26-2.67 13.49-7.22 20.11-11.08 6.67 3.94 14.6 4.57 22.1 5.7 6.1.64 12.11 1.86 18 3.52 14.92-4.26 30.88-1.73 45.72-6.29 2.58-1.15 6.03-1.89 7.28-4.68-8.66-.94-16.99 4.64-25.57 1.73-1.45-3.74-.96-7.83-.64-11.73z"/><path d="M139.53 377.47c3.46-3.21 8.27-4.77 12.94-3.63.16 4.32.08 8.64.09 12.97-6.22-1.16-12.65-1.65-18.54-4.14.93-2.45 3.77-3.39 5.51-5.2zM124.01 410.19c1.27-3.8 5.33-5.51 9.02-5.78 4.02-.33 8.43.26 11.62 2.93-.25 4.18-1.61 8.49-2.23 12.75-.59.2-1.79.61-2.39.81-6.19-2.11-11.22-6.43-16.02-10.71zM148.35 420.54c-1.74-3.02.07-6.93.51-10.23 10.32 3.64 21.17 5.6 32.07 6.22-.25 1.52-1.4 2.74-2.95 2.98-3.34.36-6.73.13-10.01.95-.9-1.38-1.17-3.52-3.01-3.98-1.73.81-1.87 2.79-2.44 4.37-4.73-.05-9.5.76-14.17-.31z"/></g></symbol><symbol id="bag" viewBox="0 0 89 77"><g transform="translate(-914 -859)"><use xlink:href="#a"/><use xlink:href="#a"/></g></symbol><symbol id="bbc" viewBox="0 0 164 47"><g><path d="M0 0h.25C.19.06.06.18 0 .24V0zM49.66 0h7.81c-.35 15.66-.07 31.33-.13 47h-7.76c.27-15.66.1-31.33.08-47zM106.64 0h7.82c-.37 15.66-.09 31.33-.14 47h-7.76c.26-15.66.09-31.33.08-47zM163.96 0h.04v.3l-.04-.3zM13.22 40.33c.17-11.21-.06-22.42.12-33.63 6.11.56 13.08-1.37 18.43 2.49 4.48 3.12 4.13 10.63-.78 13.19 3.62 1.36 7.18 4.38 6.92 8.61.34 4.99-4.35 8.63-8.94 9.1-5.22.54-10.5.09-15.75.24m6-28.3c.01 2.91.01 5.81-.01 8.72 2.72-.14 5.79.38 8.1-1.42 2.1-1.5 2.08-5.13-.25-6.42-2.37-1.35-5.24-.75-7.84-.88m.06 13.82c-.07 3.11-.06 6.22-.05 9.33 3.56-.21 7.48.68 10.74-1.16 2.82-1.74 2.25-6.31-.83-7.43-3.17-1.03-6.58-.62-9.86-.74zM70.26 40.33c.13-11.21-.05-22.41.09-33.62 6.29.56 13.69-1.52 18.97 2.93 4.02 3.41 3.23 10.19-1.28 12.82 3.67 1.27 7.15 4.35 6.87 8.56.34 5.02-4.39 8.6-8.98 9.08-5.2.51-10.45.08-15.67.23m5.97-28.25c.03 2.89.03 5.77.01 8.66 2.71-.11 5.78.4 8.07-1.42 1.88-1.35 2.16-4.47.31-5.97-2.31-1.97-5.62-1.12-8.39-1.27m.07 13.78c-.05 3.1-.05 6.21-.03 9.32 3.52-.2 7.37.66 10.62-1.11 2.9-1.64 2.38-6.39-.75-7.48-3.16-1.01-6.56-.63-9.84-.73zM133.92 7.52c6.49-2.24 13.56-.9 19.73 1.7-.05 2.08.01 4.15-.02 6.22-6.11-3.54-14.34-5.65-20.66-1.47-6.62 4.13-6.67 15.06 0 19.17 6.6 4.2 14.93 1.97 21.14-1.88-.18 2.17-.13 4.35-.43 6.5-7.99 4.09-18.82 4.48-26.01-1.47-5.08-4.17-7.23-11.61-5.07-17.83 1.62-5.27 6.14-9.29 11.32-10.94z"/></g><g><path d="M.25 0h49.41c.02 15.67.19 31.34-.08 47H0V.24C.06.18.19.06.25 0m12.97 40.33c5.25-.15 10.53.3 15.75-.24 4.59-.47 9.28-4.11 8.94-9.1.26-4.23-3.3-7.25-6.92-8.61 4.91-2.56 5.26-10.07.78-13.19-5.35-3.86-12.32-1.93-18.43-2.49-.18 11.21.05 22.42-.12 33.63zM57.47 0h49.17c.01 15.67.18 31.34-.08 47H57.34c.06-15.67-.22-31.34.13-47m12.79 40.33c5.22-.15 10.47.28 15.67-.23 4.59-.48 9.32-4.06 8.98-9.08.28-4.21-3.2-7.29-6.87-8.56 4.51-2.63 5.3-9.41 1.28-12.82-5.28-4.45-12.68-2.37-18.97-2.93-.14 11.21.04 22.41-.09 33.62zM114.46 0h49.5l.04.3V47h-49.68c.05-15.67-.23-31.34.14-47m19.46 7.52c-5.18 1.65-9.7 5.67-11.32 10.94-2.16 6.22-.01 13.66 5.07 17.83 7.19 5.95 18.02 5.56 26.01 1.47.3-2.15.25-4.33.43-6.5-6.21 3.85-14.54 6.08-21.14 1.88-6.67-4.11-6.62-15.04 0-19.17 6.32-4.18 14.55-2.07 20.66 1.47.03-2.07-.03-4.14.02-6.22-6.17-2.6-13.24-3.94-19.73-1.7z"/><path d="M19.22 12.03c2.6.13 5.47-.47 7.84.88 2.33 1.29 2.35 4.92.25 6.42-2.31 1.8-5.38 1.28-8.1 1.42.02-2.91.02-5.81.01-8.72zM76.23 12.08c2.77.15 6.08-.7 8.39 1.27 1.85 1.5 1.57 4.62-.31 5.97-2.29 1.82-5.36 1.31-8.07 1.42.02-2.89.02-5.77-.01-8.66zM19.28 25.85c3.28.12 6.69-.29 9.86.74 3.08 1.12 3.65 5.69.83 7.43-3.26 1.84-7.18.95-10.74 1.16-.01-3.11-.02-6.22.05-9.33zM76.3 25.86c3.28.1 6.68-.28 9.84.73 3.13 1.09 3.65 5.84.75 7.48-3.25 1.77-7.1.91-10.62 1.11-.02-3.11-.02-6.22.03-9.32z"/></g></symbol><symbol id="be" viewBox="0 0 20 20"><path id="Forma_1" data-name="Forma 1" class="cls-1" d="M230.416 3226.33a.614.614 0 0 0-.521-.76h-2.142v1.64h2.01c.347 0 .653-.11.653-.88zm4.964.88a1.313 1.313 0 0 0-1.295 1.13h2.415a1.092 1.092 0 0 0-1.12-1.13zm-5.485 1.13h-2.141v1.97h2.033a.829.829 0 0 0 .885-.96.846.846 0 0 0-.772-1.01zM232 3218a10 10 0 1 0 10 10 10.013 10.013 0 0 0-10-10zm1.769 6.69h3.031v.91h-3.036v-.91zm-1.535 4.76a2.185 2.185 0 0 1-2.338 2.17h-3.828v-7.36h3.832a1.879 1.879 0 0 1 2.083 1.96 1.274 1.274 0 0 1-1.123 1.4c1.475 0 1.373 1.83 1.373 1.83zm5.68-.12H234.1a1.2 1.2 0 0 0 1.3 1.28c1.223 0 1.18-.8 1.18-.8h1.3c0 2.11-2.518 1.96-2.518 1.96a2.609 2.609 0 0 1-2.827-2.81 2.768 2.768 0 0 1 2.827-2.83c2.969 0 2.551 3.2 2.551 3.2z" transform="translate(-222 -3218)"/></symbol><symbol id="bottom" viewBox="0 0 28 40"><path d="M11.25 0h5.5c0 9.77-.02 19.55.02 29.32 3.77-3.69 7.48-7.43 11.23-11.14v7.85c-4.22 4.86-9.48 8.79-13.32 13.97h-1.41C9.45 34.85 4.33 30.85 0 26.14V18.3c3.82 3.57 7.44 7.36 11.22 10.97.07-9.75.01-19.51.03-29.27z"/></symbol><symbol id="camera" viewBox="0 0 87 74"><g><path d="M8.87 0h69.09c3.79-.15 8.06 1.28 9.04 5.37V69c-.73 2.44-2.57 4.27-5.01 5H5.82C2.74 73.09.61 70.3.81 67.06.64 48.05.83 29.03.72 10.02c.13-2.54-.2-5.51 1.64-7.56C3.91.49 6.63.46 8.87 0m4.37 3.51c.01 1.99.01 3.99.01 5.99 6.17 0 12.34.01 18.51 0-.01-2-.01-4-.01-5.99-6.17-.01-12.34-.01-18.51 0m24.62 9.25c-10.28-.02-20.57 0-30.86-.01v6.01c24.59-.01 49.17 0 73.75-.01V6.5H41c-1.04 2.09-2.09 4.18-3.14 6.26m1.59 9.72c-8.51 1.98-14.84 10.64-13.88 19.39.53 9.64 9.84 17.73 19.48 16.8 9.86-.27 18.26-9.75 17.22-19.6C61.95 28 50.08 19.48 39.45 22.48M7 61.75v6.01c24.58-.01 49.17-.01 73.75-.01v-6H7z"/><path d="M40.38 28.59c7.02-2.35 15.25 3.02 15.75 10.43 1.07 7.29-5.76 14.38-13.09 13.51-7.52-.18-13.21-8.43-10.95-15.56 1.09-3.97 4.38-7.18 8.29-8.38m-2.22 6.59c-1.72 2-3.4 6.25.33 6.92.63-1.57 1.04-3.25 1.89-4.72 1.76-1.42 4-2.06 5.91-3.26-2.3-2.71-6.16-1.2-8.13 1.06z"/></g></symbol><symbol id="cisco" viewBox="0 0 746 394"><g><path d="M190.32 1.56c9.87-3.43 21.3 4.99 20.9 15.42.02 57.33.03 114.66 0 171.99.12 8.21-7.01 15.58-15.17 15.92-7.01.57-13.91-4.11-16.25-10.69-1.19-3.28-.96-6.83-.99-10.26.05-55.63-.03-111.26.04-166.89-.15-6.99 4.87-13.46 11.47-15.49zM546.37 1.56c9.88-3.43 21.24 5.01 20.85 15.44.03 57 0 114 .02 170.99.22 5.31-2.24 10.64-6.58 13.75-5.67 4.42-14.38 4.2-19.8-.54-3.94-3.16-6.13-8.18-5.92-13.21.01-54.33 0-108.66 0-162.99.04-3.36-.16-6.73.16-10.08.67-6.16 5.39-11.55 11.27-13.36zM101.37 62.5c9.51-3.25 20.6 4.43 20.81 14.49.13 26.35.01 52.71.06 79.06.18 5.48-2.64 10.91-7.23 13.9-6.25 4.33-15.48 3.32-20.62-2.28-3.01-3.07-4.65-7.36-4.51-11.65.01-26.02-.01-52.05.01-78.07-.17-6.97 4.86-13.48 11.48-15.45zM279.34 62.51c6.75-2.18 14.65.77 18.37 6.79 1.89 2.85 2.62 6.31 2.54 9.7-.05 25.98.03 51.97-.04 77.95.03 8.84-8.35 16.44-17.14 15.68-8.47-.31-15.62-8.18-15.23-16.63-.02-25.99-.04-51.98.01-77.98-.14-6.98 4.84-13.53 11.49-15.51zM457.38 62.5c9.5-3.25 20.51 4.47 20.74 14.49.11 26.65.06 53.32.03 79.97.01 8.47-7.66 15.9-16.11 15.7-8.43.19-16.11-7.2-16.12-15.65-.08-26.33-.03-52.66-.02-78.98-.14-6.98 4.8-13.58 11.48-15.53zM635.39 62.46c9.54-3.14 20.64 4.47 20.83 14.58.16 26.32.03 52.65.07 78.98.18 6.03-3.25 11.99-8.64 14.74-6.19 3.37-14.55 2.15-19.34-3.08-3.04-3.08-4.62-7.4-4.54-11.7 0-26-.03-52 .02-78-.12-6.99 4.88-13.64 11.6-15.52zM370.46 106.6c9.21-1.8 18.61 6.05 18.66 15.39.1 11.66.09 23.32 0 34.98-.04 8.42-7.67 15.89-16.1 15.69-8.44.18-16.13-7.27-16.14-15.72-.09-11.65-.1-23.31 0-34.96.07-7.51 6.2-14.28 13.58-15.38zM11.34 107.43c9.47-3.98 21.24 3.34 21.82 13.59.27 11.98.13 23.98.07 35.96-.04 8.48-7.76 15.89-16.21 15.68-8.4.16-16.12-7.23-16.11-15.67-.05-11.68-.05-23.36 0-35.05.03-6.39 4.54-12.26 10.43-14.51zM723.34 107.4c9.42-3.91 21.1 3.38 21.68 13.55.2 12.04.08 24.09.07 36.13-.04 8.41-7.71 15.75-16.08 15.59-8.45.19-16.17-7.24-16.15-15.71-.09-11.33-.02-22.66-.04-33.98-.26-6.75 4.19-13.28 10.52-15.58z"/></g><g><path d="M99.76 268.83c20.02-11.83 45-11.76 66.71-4.98v34.66c-9.29-4.94-19.93-7.31-30.44-6.72-9.04.56-18.05 4.33-24.13 11.16-11.57 12.69-11.41 34.21.3 46.76 6.07 6.65 14.93 10.3 23.83 10.84 10.5.59 21.14-1.77 30.45-6.67-.01 11.55-.02 23.1 0 34.65-16.83 5.07-35.22 6.52-52.19 1.22-14.92-4.42-28.32-14.18-36.55-27.46-9.84-15.76-12.1-35.6-7.78-53.51 4.01-16.61 14.97-31.42 29.8-39.95zM322.83 260.35c14.95-2.59 30.27-.42 44.93 2.92.01 9.21-.01 18.41.01 27.61-9.74-2.41-19.76-4.49-29.85-3.71-4.87.44-10.11 1.52-13.71 5.07-2.85 2.84-2.77 7.75-.23 10.76 2.35 2.81 5.81 4.38 9.19 5.59 8.99 3.17 18.6 5.15 26.61 10.59 8.68 5.54 15.19 14.68 16.65 24.98 1.39 10.66-.8 22.19-7.55 30.75-8.33 10.69-21.81 15.84-34.89 17.53-15.31 1.74-30.77-.19-45.86-2.81-.02-9.92-.01-19.84-.01-29.76 12.28 3.25 25.03 5.7 37.77 4.41 4.77-.61 9.9-1.52 13.64-4.81 3.32-2.81 4.07-8.1 1.65-11.73-2.6-3.96-7.18-5.94-11.49-7.48-8.04-2.7-16.37-4.92-23.66-9.41-8.13-4.73-14.88-12.35-17.1-21.64-2.59-10.97-.85-23.23 5.79-32.48 6.51-9.17 17.25-14.45 28.11-16.38zM427.65 278.58c10.96-10.92 25.93-17.35 41.24-18.91 12.86-1.31 25.91.39 38.23 4.18-.01 11.55 0 23.11 0 34.66-9.47-5.02-20.34-7.39-31.04-6.68-8.97.68-17.85 4.56-23.81 11.41-11.22 12.65-11.06 33.71.31 46.21 5.95 6.66 14.69 10.42 23.52 11.07 10.69.71 21.54-1.67 31.02-6.64.03 11.52-.08 23.04.06 34.56-17.43 5.42-36.67 6.69-54.13.71-15.01-4.91-28.3-15.32-36.06-29.15-14.3-25.56-10.61-60.75 10.66-81.42zM600.55 259.78c15.84-1.92 32.44 1.07 46.11 9.46 12.63 7.62 22.45 19.69 27.43 33.56 6.23 17.27 5.26 37.07-2.91 53.53-5.58 11.35-14.55 20.99-25.48 27.34-16.66 9.8-37.37 11.88-55.89 6.75-16.05-4.41-30.32-15.09-38.82-29.43-13.31-22.01-12.56-51.72 2.1-72.91 10.65-15.83 28.58-26.17 47.46-28.3m2.89 32.96c-12.5 2.07-23.11 12.02-26.17 24.29-3.7 13.36 1.27 28.89 12.75 36.91 10.51 7.63 25.49 8.29 36.72 1.82 7.14-4.03 12.59-10.87 15.09-18.66 4.04-12.17.87-26.57-8.44-35.51-7.73-7.68-19.32-10.84-29.95-8.85zM211.35 390.86c.02-43.11-.01-86.22.02-129.33 10.87.01 21.75 0 32.63.01 0 43.11 0 86.22-.01 129.33-10.88-.01-21.76 0-32.64-.01zM712.39 375.76c.05-.49.17-1.47.22-1.96 4.62 0 9.24-.01 13.86.01v2.05c-1.93 0-3.85 0-5.76.01-.02 5 0 10-.01 15-.59 0-1.76-.01-2.34-.01-.01-4.99 0-9.98-.01-14.97-2-.02-3.98-.06-5.96-.13zM727.71 373.81c.92-.01 2.75-.01 3.66-.02 1.74 4.69 3.42 9.39 5.16 14.08 1.66-4.69 3.31-9.39 5-14.08.89 0 2.69.01 3.58.02.01 5.68.01 11.37 0 17.05-.6 0-1.8.01-2.4.01-.02-4.73.01-9.45-.01-14.16-1.76 4.7-3.5 9.4-5.22 14.11l-2.22.08c-1.76-4.73-3.44-9.5-5.17-14.24-.06 4.73-.02 9.47-.04 14.2h-2.34c-.01-5.68-.01-11.37 0-17.05z"/></g></symbol><symbol id="cnn" viewBox="0 0 97 47"><path d="M0 0h97v.58c-2-.14-4-.16-5.99-.13.27 11.51.02 23.03.15 34.54-.02 1.95.21 4.68-2.19 5.34-1.74.12-2.68-1.48-3.51-2.73-5.73-9.31-11.48-18.61-17.17-27.94-.41-.86-2.09-2.84-2.7-1.04-.49 9.78.18 19.61-.29 29.39-.07 1.35-1.93 3.1-3.23 2.06-1.3-.72-1.96-2.14-2.79-3.31-5.44-8.95-11-17.83-16.42-26.79-.59-1.16-1.58-1.99-2.85-2.3-.41 10.05.15 20.14-.27 30.18-.88 2.92-4.38 2.33-6.73 2.39-6.73-.29-14.26 1.17-20.12-3.04-8.99-6-9.4-20.63-1.01-27.33 5.19-4.58 12.52-3.8 18.92-3.72.1-1.88.18-3.76.25-5.64C22.88 0 13.6.26 7.34 6.3c-10.44 9.28-9.1 28.13 2.67 35.71 7.6 5.27 17.25 3.9 25.96 4.04 3.65.23 7.77-1.43 8.92-5.17 1.28-4.92.35-10.08.53-15.1 4.29 5.47 6.92 12.1 11.18 17.62 3.4 4.32 11.25 4.31 13.65-1.03 1.9-5.3.5-11.09.92-16.6 3.81 5.33 6.58 11.33 10.3 16.72 2.37 3.48 7.35 5.27 11.2 3.21 2.45-1.1 3.42-3.8 4.33-6.12V47H0V0m37.16 1.08c-2.61 1.24-4.47 4.07-4.49 6.98-.14 8.11-.11 16.24-.05 24.36-4.38 1.3-9.33.94-13.7-.3-6.48-2.26-7.83-11.57-2.91-16.05 3.98-3.95 9.94-2.35 14.94-2.76-.02-1.85-.02-3.71 0-5.56-5.89.05-12.51-.94-17.56 2.82-8.28 6.08-7.93 20.67 1.13 25.89 7.11 3.81 15.48 1.67 23.17 2.21 1.18-8.12.21-16.45.51-24.66.27-2.44-.94-5.77 1.58-7.37 1.13-.98 2.8.04 3.44 1.13 6.67 10.36 12.75 21.11 19.57 31.38l1.01-.98c.26-9.74-.09-19.51.15-29.25.03-2.36 3.31-3.68 4.62-1.47 6.83 10.27 12.69 21.22 19.71 31.36.3-.18.89-.54 1.19-.72.14-12.43.07-24.86.02-37.29-1.87.05-3.74.08-5.61.09-.01 6.78-.05 13.56.08 20.34-4.37-5.2-6.66-11.91-10.8-17.33-3.47-4.94-12.99-4.37-14.53 2.01-.86 4.76-.24 9.67-.29 14.49-.23.1-.68.31-.91.41C55 16.25 52.36 11.8 49.81 7.3c-1.1-1.88-2.25-3.8-4-5.14C43.44.15 39.99.48 37.16 1.08z"/><g><path d="M7.34 6.3C13.6.26 22.88 0 31.05.51c-.07 1.88-.15 3.76-.25 5.64-6.4-.08-13.73-.86-18.92 3.72-8.39 6.7-7.98 21.33 1.01 27.33 5.86 4.21 13.39 2.75 20.12 3.04 2.35-.06 5.85.53 6.73-2.39.42-10.04-.14-20.13.27-30.18 1.27.31 2.26 1.14 2.85 2.3 5.42 8.96 10.98 17.84 16.42 26.79.83 1.17 1.49 2.59 2.79 3.31 1.3 1.04 3.16-.71 3.23-2.06.47-9.78-.2-19.61.29-29.39.61-1.8 2.29.18 2.7 1.04 5.69 9.33 11.44 18.63 17.17 27.94.83 1.25 1.77 2.85 3.51 2.73 2.4-.66 2.17-3.39 2.19-5.34-.13-11.51.12-23.03-.15-34.54C93 .42 95 .44 97 .58v39c-.91 2.32-1.88 5.02-4.33 6.12-3.85 2.06-8.83.27-11.2-3.21-3.72-5.39-6.49-11.39-10.3-16.72-.42 5.51.98 11.3-.92 16.6-2.4 5.34-10.25 5.35-13.65 1.03-4.26-5.52-6.89-12.15-11.18-17.62-.18 5.02.75 10.18-.53 15.1-1.15 3.74-5.27 5.4-8.92 5.17-8.71-.14-18.36 1.23-25.96-4.04C-1.76 34.43-3.1 15.58 7.34 6.3z"/><path d="M37.16 1.08c2.83-.6 6.28-.93 8.65 1.08 1.75 1.34 2.9 3.26 4 5.14 2.55 4.5 5.19 8.95 7.62 13.51.23-.1.68-.31.91-.41.05-4.82-.57-9.73.29-14.49C60.17-.47 69.69-1.04 73.16 3.9c4.14 5.42 6.43 12.13 10.8 17.33-.13-6.78-.09-13.56-.08-20.34C85.75.88 87.62.85 89.49.8c.05 12.43.12 24.86-.02 37.29-.3.18-.89.54-1.19.72C81.26 28.67 75.4 17.72 68.57 7.45c-1.31-2.21-4.59-.89-4.62 1.47-.24 9.74.11 19.51-.15 29.25l-1.01.98c-6.82-10.27-12.9-21.02-19.57-31.38-.64-1.09-2.31-2.11-3.44-1.13-2.52 1.6-1.31 4.93-1.58 7.37-.3 8.21.67 16.54-.51 24.66-7.69-.54-16.06 1.6-23.17-2.21-9.06-5.22-9.41-19.81-1.13-25.89 5.05-3.76 11.67-2.77 17.56-2.82-.02 1.85-.02 3.71 0 5.56-5 .41-10.96-1.19-14.94 2.76-4.92 4.48-3.57 13.79 2.91 16.05 4.37 1.24 9.32 1.6 13.7.3-.06-8.12-.09-16.25.05-24.36.02-2.91 1.88-5.74 4.49-6.98z"/></g></symbol><symbol id="fb" viewBox="0 0 20 20"><path id="Forma_1" data-name="Forma 1" class="cls-1" d="M194 3732a10 10 0 1 0 10 10 10.013 10.013 0 0 0-10-10zm2.486 10.35h-1.627v5.8h-2.41v-5.8H191.3v-2.05h1.146v-1.32a2.265 2.265 0 0 1 2.432-2.44l1.786.01v1.99h-1.3a.493.493 0 0 0-.51.56v1.2h1.846z" transform="translate(-184 -3732)"/></symbol><symbol id="google" viewBox="0 0 800 274"><path opacity=".47" d="M634.68 0h39.26c-.18.38-.55 1.14-.74 1.51a52.59 52.59 0 0 0-10.03-.5c-9.05-.04-18.1.11-27.14-.19L634.68 0z"/><path d="M624.17 6.33c3.97-1.79 7.8-3.9 11.86-5.51 9.04.3 18.09.15 27.14.19-5.03 2.58-8.36 8.01-14.17 9.09-3.8 1.16-7.39-1.02-10.86-2.23-4.41-1.98-9.3-1.31-13.97-1.54z"/><path d="M663.17 1.01c3.35-.15 6.71.01 10.03.5-.75.32-2.26.95-3.02 1.27-6.24-.15-10.34 5.02-14.82 8.54-2.46 1.74-3.26 4.79-3.35 7.65-.56 15.84.8 31.77-1.31 47.54-3.14 6.34-2.06 13.88-5.77 19.98-.82-1.35-1.64-2.7-2.43-4.05-.96.92-1.93 1.85-2.88 2.78-.33-3.29-1.48-6.39-2.55-9.49-.47-20.57-.07-41.17-.16-61.75-.23-1.46.14-3.85-1.95-3.91-5.77-.83-11.63.41-17.39-.6 2.13-1.18 4.36-2.17 6.6-3.14 4.67.23 9.56-.44 13.97 1.54 3.47 1.21 7.06 3.39 10.86 2.23 5.81-1.08 9.14-6.51 14.17-9.09z"/><path opacity=".24" d="M670.18 2.78c.76-.32 2.27-.95 3.02-1.27-1.28 5.42-7.65 7.27-8.95 12.61-.76 2.91-.71 5.94-.73 8.92.13 51.49-.15 102.99.15 154.48-.6-1.44-1.1-2.9-1.49-4.4l-.18-.76c.29-27.79.04-55.58.13-83.37-.13-24.12.24-48.25-.19-72.36l.07-.41c1.19-.87 1.48-2 .87-3.38.53-1.3 1.08-2.59 1.7-3.85 1.72-2.2 3.64-4.22 5.6-6.21z"/><path d="M655.36 11.32c4.48-3.52 8.58-8.69 14.82-8.54-1.96 1.99-3.88 4.01-5.6 6.21-.36-.66-1.07-1.97-1.43-2.63-2.98 2.95-7.79 5.82-7.26 10.62 1.31 8.93.42 17.98.67 26.97.27 7.72-1.32 15.34-1.01 23.06-.14 7.03.49 14.1-.54 21.09-.74 4.95-.4 9.96-.43 14.95-.03 14.34 0 28.67-.01 43.01-.49 7.21-1.9 14.51-.46 21.71.71 3.34 3.38 5.66 5.88 7.75.72-.8 1.45-1.6 2.19-2.4.39 1.5.89 2.96 1.49 4.4 1.5 1.95 4.13 2.36 6.41 2.74 3.96.45 7.94.82 11.92 1.26-3.66 2.48-8.24 2.61-12.47 2.07-4.95-.57-7.91-5.77-12.94-6.06-4.01-.02-8 .61-11.94 1.24-4.45.71-7.79 4.45-12.34 4.74 1.01-1.4 2.07-2.78 2.95-4.27.98-1.57 1.58-3.36 1.55-5.22.19-32.76-.29-65.53.26-98.29 1.07 3.1 2.22 6.2 2.55 9.49.8 5.9 1.25 11.86 2.48 17.7 2.32 10.42-.44 21.25 1.61 31.68 5.83-3.53 4.13-10.91 4.32-16.6.45-6.69-1.1-13.5.64-20.07.92-4.58 1.34-9.24 1.34-13.91-.11-5.86 1.82-11.65.69-17.51 2.11-15.77.75-31.7 1.31-47.54.09-2.86.89-5.91 3.35-7.65z"/><path d="M62.97 14.46c10.1-4.41 21.05-6.63 31.96-7.88 6.87-.31 13.75-1.44 20.62-.43 17.76.72 35.45 4.56 51.8 11.59-2.23 1.91-4.4 5.85-7.86 4.66-7.25-2.6-14.01-6.93-21.83-7.67-23.62-7.81-50.44-6.92-72.96 3.97-12.24 6.46-22.96 15.61-31.57 26.43-5.75 7.44-10.16 15.81-13.91 24.41-2.79 3.85-4.19 8.46-6.57 12.55-2.65-1.71-5.01-3.8-7.25-6.01l-.17-.17c3.01-9.23 7.3-18.05 12.76-26.09l.15.08c1.2.62 2.4 1.25 3.6 1.87 7.36-7.3 14.64-14.69 21.99-22 6.14-6.09 13.71-10.41 21.26-14.5-.51-.21-1.52-.61-2.02-.81z"/><path d="M655.89 16.98c-.53-4.8 4.28-7.67 7.26-10.62.36.66 1.07 1.97 1.43 2.63-.62 1.26-1.17 2.55-1.7 3.85-1.04.93-1.33 2.06-.87 3.38l-.07.41c-.45 1.76-.95 3.52-.95 5.35-.01 48.02-.05 96.04-.06 144.05.05 2.15.56 4.25 1.07 6.33l.18.76c-.74.8-1.47 1.6-2.19 2.4-2.5-2.09-5.17-4.41-5.88-7.75-1.44-7.2-.03-14.5.46-21.71.01-14.34-.02-28.67.01-43.01.03-4.99-.31-10 .43-14.95 1.03-6.99.4-14.06.54-21.09-.31-7.72 1.28-15.34 1.01-23.06-.25-8.99.64-18.04-.67-26.97z"/><path d="M64.7 18.7c22.52-10.89 49.34-11.78 72.96-3.97 5.29 3.2 11.28 4.94 16.65 7.98 3.06 1.5 6.18 3.56 9.73 3.37 3.55-.65 6.19-3.35 8.92-5.5l.12-.1c2.53 1.4 5.04 2.83 7.46 4.43-6.79 1.57-12.93 7.16-20.2 5.5-5.94-2.32-10.97-6.51-17.01-8.67-5.32-1.89-10.72-3.92-16.35-4.6-.7.33-2.08.99-2.78 1.32-.9-.19-1.8-.4-2.69-.61-13.57-3.89-28.33-2.95-41.76 1.11-7.56 2.52-15.16 5.77-21.11 11.22-.16.11-.46.35-.62.46-3.73 2.16-6.81 5.21-9.39 8.64-.94 1.08-1.83 2.2-2.64 3.38-1.93.09-2.79 2.02-2.9 3.7-1.08 1.66-2.16 3.32-3.22 4.99-2.36 2.98-3.99 6.44-4.86 10.14-6.37 16.45-7.43 34.78-4.1 52.03 3.43 18.19 11.73 35.55 24.4 49.12 2.45 3.15 5.89 5.29 8.5 8.28-.16 1.98-.42 3.96-.68 5.93 8.72 8.35 20.86 11.16 32 14.78 13.98 2.85 28.4 2.49 42.51.9 2.37-.3 4.74-.74 6.98-1.6.38-.44 1.14-1.31 1.52-1.74 2.75-1.56 6.07-2.13 9.08-3.15-5.3 6.74-14.5 7.29-22.33 8.45-14.66.79-29.64 1.27-43.97-2.44-9.14-2.05-17.99-5.34-26.26-9.74-10.03-4.73-19.44-10.83-27.69-18.26-4.75-4.6-9.99-8.68-14.35-13.67-3.8-2.41-7.28-5.25-10.41-8.48-.61.3-1.84.92-2.45 1.23-6.67-17.55-9.11-36.93-5.41-55.44 3.21.89 4.78 3.87 6.79 6.21.89.86 1.9 2.46 3.3 1.52 2.45-5.23 2.85-11.1 4.6-16.56 1.01-3.04 1.86-6.13 2.18-9.32 3.75-8.6 8.16-16.97 13.91-24.41C41.74 34.31 52.46 25.16 64.7 18.7z"/><path opacity=".75" d="M616.15 10.52c.36-.27 1.07-.79 1.42-1.05 5.76 1.01 11.62-.23 17.39.6 2.09.06 1.72 2.45 1.95 3.91.09 20.58-.31 41.18.16 61.75-.55 32.76-.07 65.53-.26 98.29.03 1.86-.57 3.65-1.55 5.22.56-2.71.68-5.48.68-8.24-.07-52.72.04-105.43-.05-158.15l-.01-1.43c-5.48 0-10.95-.29-16.41-.6-.83-.08-2.49-.23-3.32-.3z"/><path opacity=".24" d="M619.47 10.82c5.46.31 10.93.6 16.41.6l.01 1.43c-4.29.1-8.58.55-12.87.4-1.7.26-2.55-1.47-3.55-2.43z"/><path opacity=".71" d="M662.01 16.22c-.46-1.32-.17-2.45.87-3.38.61 1.38.32 2.51-.87 3.38z"/><path d="M18.14 49.9c10.77-16.06 26.85-28.45 44.83-35.44.5.2 1.51.6 2.02.81-7.55 4.09-15.12 8.41-21.26 14.5-7.35 7.31-14.63 14.7-21.99 22-1.2-.62-2.4-1.25-3.6-1.87z"/><path opacity=".72" d="M79.75 18.96c13.43-4.06 28.19-5 41.76-1.11-6.14-.62-12.25-1.78-18.45-1.7-12.35.16-24.8 2.96-35.66 8.97-2.91 1.69-5.77 3.5-8.76 5.06 5.95-5.45 13.55-8.7 21.11-11.22z"/><path d="M137.66 14.73c7.82.74 14.58 5.07 21.83 7.67 3.46 1.19 5.63-2.75 7.86-4.66 1.9.88 3.78 1.81 5.61 2.84-2.73 2.15-5.37 4.85-8.92 5.5-3.55.19-6.67-1.87-9.73-3.37-5.37-3.04-11.36-4.78-16.65-7.98z"/><g><path opacity=".38" d="M67.4 25.12c10.86-6.01 23.31-8.81 35.66-8.97 6.2-.08 12.31 1.08 18.45 1.7.89.21 1.79.42 2.69.61 2.5.83 4.99 1.71 7.48 2.58 3.25 1.68 6.53 3.3 9.87 4.79 5.74 3.62 11.24 7.7 15.99 12.57.8.8 1.6 1.61 2.41 2.42-.87 1.38-1.73 2.77-2.6 4.14.45-1.52 2.31-3.57.58-4.91-10.01-9.56-22.28-17.17-35.96-20.01-7.15-2-14.61-1.72-21.96-1.7-7.18-.09-14.1 2.11-21 3.81-13.15 4.72-25.18 13.15-33.23 24.66-13.92 18.03-17.55 42.13-14.44 64.24-.11.62-.32 1.85-.43 2.47-3.33-17.25-2.27-35.58 4.1-52.03 1.82-3.28 3.47-6.65 4.86-10.14 1.06-1.67 2.14-3.33 3.22-4.99 1.66-.54 2.72-1.99 2.9-3.7.81-1.18 1.7-2.3 2.64-3.38 3.51-2.44 6.54-5.47 9.39-8.64.16-.11.46-.35.62-.46 2.99-1.56 5.85-3.37 8.76-5.06zM187.52 140.54c2.07-2.19 4.33-4.18 6.31-6.44.17.65.52 1.95.69 2.6-2.56 3.76-7.72 6.1-7.85 11.23-.44 13.64.05 27.31-.27 40.96.15 2.28-2.19 3.21-4.05 3.55-10.45 2.4-20.91 4.73-31.32 7.27-20.42 3.73-41.26 6.35-62.01 4.34-20.51-1.92-40.76-9.73-56.14-23.65-2.08-2.1-5.38-3.6-5.8-6.84 3.25 2.96 6.31 6.13 9.86 8.75 17.24 13.61 39.38 19.57 61.06 20.33 15.66.54 31.21-1.78 46.64-4.16 4.83-.71 9.51-2.14 14.28-3.11 8.47-1.95 16.98-3.79 25.41-5.9l.8-.27c.48-13.7 0-27.43.27-41.14.23-2.57.16-5.57 2.12-7.52zM613.79 215.75c2.44 10.25-.3 21.37-6.11 30.06-8.14 12.78-22.34 20.41-36.66 24.2-12.35 3.59-25.36 2.85-38.06 2.52-11.36-1.23-22.75-4.65-32-11.56-1.29-.92-2.33-2.15-2.89-3.64l1.26.76c3.49 2.82 7.38 5.07 11.42 6.98 7.55 4.16 16.29 5.36 24.75 6.26 6.62.26 13.36.91 19.91-.52.42-.03 1.27-.1 1.69-.13 16.25-1.28 32.68-7.49 44.19-19.32 9.06-9.39 13.62-22.62 12.5-35.61z"/></g><path d="M124.2 18.46c.7-.33 2.08-.99 2.78-1.32 5.63.68 11.03 2.71 16.35 4.6 6.04 2.16 11.07 6.35 17.01 8.67 7.27 1.66 13.41-3.93 20.2-5.5 1.35.87 2.72 1.72 4.12 2.52-.04.49-.11 1.46-.15 1.95-.35.15-1.05.44-1.4.59-8.23 3.71-18.38 2.28-25.57 8.43-4.75-4.87-10.25-8.95-15.99-12.57-2.93-2.27-6.26-3.93-9.87-4.79-2.49-.87-4.98-1.75-7.48-2.58z"/><path opacity=".94" d="M660.99 21.98c0-1.83.5-3.59.95-5.35.43 24.11.06 48.24.19 72.36-.09 27.79.16 55.58-.13 83.37-.51-2.08-1.02-4.18-1.07-6.33.01-48.01.05-96.03.06-144.05z"/><path opacity=".8" d="M131.68 21.04c3.61.86 6.94 2.52 9.87 4.79-3.34-1.49-6.62-3.11-9.87-4.79z"/><path d="M157.54 38.4c7.19-6.15 17.34-4.72 25.57-8.43-.7 1.75-2.03 3.05-3.74 3.8-2.82 1.33-5.18 3.54-6.54 6.35-.15.26-.44.78-.59 1.03-3.44 2.56-6.01 6.09-9.41 8.68-3.09.94-6.43.82-9.58 1.56 1.34-2.16 2.72-4.29 4.1-6.43.87-1.37 1.73-2.76 2.6-4.14-.81-.81-1.61-1.62-2.41-2.42z"/><path opacity=".71" d="M48.63 39.28c2.58-3.43 5.66-6.48 9.39-8.64-2.85 3.17-5.88 6.2-9.39 8.64z"/><path opacity=".89" d="M172.83 40.12c1.36-2.81 3.72-5.02 6.54-6.35l.12 1.28c-2.59 1.23-3.9 4.12-6.66 5.07z"/><path opacity=".73" d="M43.09 46.36c.11-1.68.97-3.61 2.9-3.7-.18 1.71-1.24 3.16-2.9 3.7z"/><path opacity=".78" d="M35.01 61.49c.87-3.7 2.5-7.16 4.86-10.14-1.39 3.49-3.04 6.86-4.86 10.14z"/><path d="M391.63 70.99c20.81-9.1 46.34-8.81 65.74 3.65.24 3.05.89 6.43-1.28 8.99-2.98-1.03-5.74-2.55-8.3-4.35-10.53-6.85-23.17-11.87-35.92-9.68-10.76.87-20.43 6.85-27.56 14.7-5.83 7.36-10.44 15.69-13.52 24.55-2.14 6.15-2.21 12.98-5.63 18.65-3.56-2.35-7.03-4.87-10.85-6.79.41-6.93 2.94-13.55 5.85-19.78 1.99.69 4.09 2.71 6.29 1.56 2.06-1.66 3.32-4.06 4.77-6.22 5.54-8.71 11.97-16.91 20.01-23.46.08-.39.25-1.15.34-1.53l.06-.29z"/><g><path d="M250.48 69.86c19.02-5.89 40.82-5 58.09 5.53-.19 2.63-.41 5.25-.65 7.87-6.48-.13-11.17-5.1-16.83-7.5-7.12-3.63-15.02-6.01-23.09-5.57-12.54.14-23.99 6.92-32.53 15.71-5.16 2.99-7.17 8.82-9.87 13.77-2.52 4.59-4.43 9.47-6.88 14.09-.72 1.53-2.17 2.47-3.49 3.42-2.13-1.78-4.63-2.99-7.33-3.63.9-2.83 2.02-5.58 2.98-8.38l.2.24c1.31 2.54 5.34 5.45 7.46 2.17 6.04-8.11 9.59-17.93 16.79-25.23 4.12-4.59 9.58-7.59 14.83-10.67.06-.38.2-1.14.27-1.52l.05-.3zM727.58 118.45c9.61-4.22 19.24-8.4 28.89-12.54-2.4 4.04-7.25 5.23-11.18 7.21-5.73 2.25-11.37 5.53-17.71 5.33z"/></g><path d="M714.4 76.36c16.21-11.03 37.86-14.3 56.17-6.72.12 1.98 1.91 5.58-.59 6.46-4.2-1.18-7.9-3.66-12.11-4.84-10.19-3.43-21.66-2.2-31.26 2.43-9.34 5.49-16.45 14.32-20.85 24.14-2.2 5.11-3.03 10.68-5.31 15.75-.74 1.52-1.64 3.25-3.43 3.67-2.83-1.09-4.81-3.5-6.99-5.48 3.22-14.34 12.06-27.35 24.37-35.41z"/><path d="M644.93 86.49c3.71-6.1 2.63-13.64 5.77-19.98 1.13 5.86-.8 11.65-.69 17.51 0 4.67-.42 9.33-1.34 13.91-1.74 6.57-.19 13.38-.64 20.07-.19 5.69 1.51 13.07-4.32 16.6-2.05-10.43.71-21.26-1.61-31.68-1.23-5.84-1.68-11.8-2.48-17.7.95-.93 1.92-1.86 2.88-2.78.79 1.35 1.61 2.7 2.43 4.05z"/><path d="M411.87 69.6c12.75-2.19 25.39 2.83 35.92 9.68 2.56 1.8 5.32 3.32 8.3 4.35 2.17-2.56 1.52-5.94 1.28-8.99 5.79 3.89 11.2 8.52 15.24 14.26-3.35 6.1-1.08 14.07-6.25 19.26-2.85-4.35-5.01-9.18-8.42-13.14-7.01-7.02-14.29-13.97-23.1-18.73-1.03.37-2.06.74-3.09 1.12-14.37-8.35-34.21-3.96-44.33 9.04-2.77 3.41-4.77 7.41-6.03 11.61.14-1.57-.28-2.95-1.27-4.13-5.54 8.55-7.89 18.93-7.38 29.06-.34 9.43 1.41 19.37 7.25 27.03 2.1 3.09 5.81 4.25 8.8 6.24 1.63 3.28 3.38 6.52 5.48 9.53-2.27.52-4.51 1.37-6.86 1.43-3.13-2.5-6.77-4.22-10.01-6.53-4.26-4.47-8.01-9.41-11.75-14.32-2.69-3.52-6.36-7.25-11.19-6.86-1.18-6.28-.92-12.69-.6-19.04l.45.24c3.82 1.92 7.29 4.44 10.85 6.79 3.42-5.67 3.49-12.5 5.63-18.65 3.08-8.86 7.69-17.19 13.52-24.55 7.13-7.85 16.8-13.83 27.56-14.7z"/><path d="M545.34 70.78c4.57-.41 9.08-1.47 13.69-1.35 12.47.01 24.95-.09 37.42.06l-.89.1c-3.24.42-6.65.72-9.49 2.5-3.26 1.85-6.34 4.28-10.09 5.04-4.37-.4-8.4-2.36-12.6-3.5-5.82-1.88-11.96-2.4-18.05-2.41l.01-.44z"/><path d="M596.45 69.49c7.45-.27 14.91-.09 22.36-.08-.55.32-1.65.98-2.2 1.31-4.3 2.69-8.51 5.53-13.04 7.8-5.29.08-10.6-.03-15.81-.98 4.59-3.38 10.12-4.98 15.3-7.21-2.5-.28-5-.57-7.5-.74l.89-.1z"/><path d="M726.61 73.69c9.6-4.63 21.07-5.86 31.26-2.43 4.21 1.18 7.91 3.66 12.11 4.84 2.5-.88.71-4.48.59-6.46 5.23 2.33 10 5.63 13.98 9.74-2.68 3.39-4.74 8.34-9.55 8.99-6.05-1.18-8.69-7.67-13.83-10.46-6.33-4.72-14.5-5.4-22.08-4.44-.64.31-1.91.91-2.55 1.21-7.94 2.18-14.97 7.06-19.55 13.93-3.26 1.19-4.89 4.34-6.2 7.32-1.94 3.94-2.05 8.41-3.21 12.59-1.38 5.01-.96 10.26-1.97 15.34-1.09 5.56-.02 11.49-2.47 16.76-5.26-2.87-8.25-9.31-14.72-9.92-.48-6.35.35-12.72 1.61-18.93 2.18 1.98 4.16 4.39 6.99 5.48 1.79-.42 2.69-2.15 3.43-3.67 2.28-5.07 3.11-10.64 5.31-15.75 4.4-9.82 11.51-18.65 20.85-24.14z"/><path d="M12.65 82.09c2.38-4.09 3.78-8.7 6.57-12.55-.32 3.19-1.17 6.28-2.18 9.32-1.75 5.46-2.15 11.33-4.6 16.56-1.4.94-2.41-.66-3.3-1.52-2.01-2.34-3.58-5.32-6.79-6.21.84-3.91 1.45-7.92 3.05-11.61 2.24 2.21 4.6 4.3 7.25 6.01z"/><path d="M235.47 85.9c8.54-8.79 19.99-15.57 32.53-15.71 8.07-.44 15.97 1.94 23.09 5.57 5.66 2.4 10.35 7.37 16.83 7.5.24-2.62.46-5.24.65-7.87 5.6 3.56 10.8 7.85 14.96 13.04-2.84 4.75-3.59 10.26-3.84 15.69-1.39-.4-2.91-.74-3.79-2.01-6.37-7.63-13.44-14.82-21.99-20.02-3.43-1.91-6.93-5.5-11.18-3.91-2.07-.93-4.17-1.77-6.32-2.43-7.82-2.59-16.56-1.39-23.95 2.01-5.1 2.38-10.05 5.67-13.03 10.57-1.01 1.39-1.98 2.8-2.91 4.23-1.66-.1-2.57 1.37-3.4 2.54-4.06 6.19-5.41 13.58-6.78 20.72-1.56 5.72-1.66 11.69-1.87 17.58.02 4.64 1.93 10.35-2.42 13.72-4.89-3.45-9.37-8.26-15.79-8.42-1-5.13-.51-10.39-.43-15.59l.4.22c3.89 1.87 7.32 4.52 10.33 7.6.81-.96 1.84-1.8 2.3-3.01 2.3-6.1 2.5-12.72 4.28-18.96 3.01-8.23 7.6-15.73 12.33-23.06z"/><path d="M586.07 72.09c2.84-1.78 6.25-2.08 9.49-2.5 2.5.17 5 .46 7.5.74-5.18 2.23-10.71 3.83-15.3 7.21 5.21.95 10.52 1.06 15.81.98-5.34 1.96-11.25.41-16.81 1-1.65 1.38-3.11 3.14-5.14 3.96-4.88-.13-9.09-3.05-13.51-4.8-8.68-3.98-18.77-5.54-28.06-2.86-10.03 2.74-16.22 11.85-22.16 19.69-4.16 4.45-3.71 11.55-8.53 15.45-2.35-2.21-4.5-4.61-6.43-7.19.95-2.63 2.15-5.16 3.67-7.51 1.15 1.72 2.3 3.45 3.46 5.17 5.11-4.58 7.82-11.06 12.11-16.32 1.83-2.63 4.69-4.7 5.4-7.97l.08-.24c5.55-2.74 11.46-5.22 17.68-5.68 6.09.01 12.23.53 18.05 2.41 4.2 1.14 8.23 3.1 12.6 3.5 3.75-.76 6.83-3.19 10.09-5.04z"/><path d="M211.08 105.41c7.11-16.69 22.08-29.83 39.35-35.25-.07.38-.21 1.14-.27 1.52-5.25 3.08-10.71 6.08-14.83 10.67-7.2 7.3-10.75 17.12-16.79 25.23-2.12 3.28-6.15.37-7.46-2.17z"/><g><path opacity=".34" d="M603.57 78.52c4.53-2.27 8.74-5.11 13.04-7.8.31.6.92 1.81 1.23 2.42-3.07 2.27-6.65 3.69-9.87 5.71-2.16 1.19-4.29 2.88-6.9 2.64-3.52.39-7.6-1.06-10.66 1.15l-.28.24c-1.14-1.11-2.24-2.26-3.37-3.36 5.56-.59 11.47.96 16.81-1zM538.11 199.72c9.55-2.13 19.43-3.49 29.22-2.66 3.7 1.99 6.87 4.82 10.29 7.25 5.76 4.59 12.16 9.09 15.24 16.04-4.72-5.68-10.11-10.77-16.12-15.06-4.19-2.92-8.17-7.31-13.74-6.86-11.3.37-22.91 1.51-33.37 6.11-7.53 3.36-14.55 9.27-16.89 17.43-1.06 5.42-.54 11 .05 16.44-2.46-5.19-3.01-11.26-1.66-16.83 3.56-12.03 15.45-19.06 26.98-21.86z"/></g><path d="M360.16 100.93c6.76-12.98 17.87-23.94 31.41-29.65-.09.38-.26 1.14-.34 1.53-8.04 6.55-14.47 14.75-20.01 23.46-1.45 2.16-2.71 4.56-4.77 6.22-2.2 1.15-4.3-.87-6.29-1.56z"/><path d="M736.54 74.68c.64-.3 1.91-.9 2.55-1.21 7.58-.96 15.75-.28 22.08 4.44 5.14 2.79 7.78 9.28 13.83 10.46 4.81-.65 6.87-5.6 9.55-8.99 5.49 5.43 8.63 12.61 11.08 19.8-.3.13-.91.37-1.21.49-.58-2.5-1.21-4.99-1.9-7.46-3.6.06-7.22.43-10.6 1.7-3.39 1.28-7.22 2.5-9.28 5.71-2.73 4.2-6.12 7.93-8.6 12.28-9.54 3.85-19.07 7.72-28.6 11.6-7.37 2.57-15.37 1.26-22.9 2.86.6 2.35 1.21 4.71 1.92 7.04.91 3.08 1.96 6.13 3.14 9.14-1.69.28-4.12.79-4.65-1.46-1.83-5.51-3.73-11.51-2.23-17.32.36-1.78.79-3.55 1.15-5.33.32 2.11.54 4.23.66 6.36 2.23-.94 4.47-1.83 6.7-2.77 2.88 1.37 6.1 1.5 9.13.54 9.66-2.62 18.78-6.94 27.6-11.59 3.03-1.97 7.35-3.83 7.54-7.99 1.8-1.19 4.17-2.4 4.27-4.86.63-6.2-3.02-11.88-7.43-15.88-5.96-6.44-15.28-8.83-23.8-7.56z"/><path opacity=".71" d="M252.46 77.76c7.39-3.4 16.13-4.6 23.95-2.01-8.41-1.5-17.24-.4-24.84 3.56-4.62 2.18-8.23 5.85-12.14 9.02 2.98-4.9 7.93-8.19 13.03-10.57z"/><path opacity=".37" d="M387.42 86.45c10.12-13 29.96-17.39 44.33-9.04 1.43.95 2.72 2.08 4.04 3.18-4.15-.6-7.55-3.33-11.61-4.2-15.45-3.86-32.78 4.71-39.6 19-1.85 3.69-2.67 7.75-3.39 11.78-.25-1.41-.58-2.81-.78-4.23.22-1.65.58-3.27.98-4.88 1.26-4.2 3.26-8.2 6.03-11.61z"/><path opacity=".4" d="M716.99 88.61c4.58-6.87 11.61-11.75 19.55-13.93 8.52-1.27 17.84 1.12 23.8 7.56-5.88-2.5-11.73-5.97-18.35-5.59-8.42.79-16.51 5.07-21.72 11.76-3.78 4.56-5.54 10.28-7.21 15.85-.18-1.42-.36-2.84-.46-4.27.66-4.05 2.57-7.75 4.39-11.38z"/><path d="M540.05 75.82c9.29-2.68 19.38-1.12 28.06 2.86 4.42 1.75 8.63 4.67 13.51 4.8 2.03-.82 3.49-2.58 5.14-3.96 1.13 1.1 2.23 2.25 3.37 3.36-2.18 2.01-3.95 4.4-5.47 6.93 2.85 2.2 6.76 3.75 8.22 7.28-.7 5.77-1.77 11.71-4.45 16.94-1.11-4.84-1.84-9.85-4.33-14.24-1.92-3.39-1.81-7.37-2.79-11.04-6.31-4.5-13.59-7.62-20.93-10.08-5-1.73-10.42-1.52-15.48-.2-9.59 1.65-18.2 8.84-20.26 18.54-2.64 12.17-.08 25.11 5.29 36.2 3.24 6.74 7.88 13.06 14.42 16.91-.18 4.55 4.34 6.83 6.92 9.9-2.61.34-5.23.66-7.86.61-4.38-6.39-12.1-8.81-18.48-12.62-4.92-2.91-10.76-6.17-16.59-3.89l-.33.08c-6.11-9.11-9.49-20.38-7.54-31.33 1.05-.14 2.11-.27 3.17-.41 2.36 2.34 4.78 4.61 7.33 6.75 2.68-4.31 2.76-9.52 4.28-14.24.97-3.13 1.91-6.26 2.64-9.46 5.94-7.84 12.13-16.95 22.16-19.69z"/><g><path opacity=".41" d="M251.57 79.31c7.6-3.96 16.43-5.06 24.84-3.56 2.15.66 4.25 1.5 6.32 2.43 5.89 3.35 11.17 7.92 14.56 13.86-4.28-3.87-7.9-8.63-13.16-11.26-7.52-4.25-16.67-4.67-24.93-2.68-11.74 3.25-21.69 12.8-24.74 24.68-1.41 5.91-2.24 12.03-1.66 18.11.19 2.23-.03 4.46-.25 6.68-1.98-11.66-1.6-24.33 3.97-35.01.93-1.43 1.9-2.84 2.91-4.23 3.91-3.17 7.52-6.84 12.14-9.02zM524.64 97.01c2.06-9.7 10.67-16.89 20.26-18.54 4.97-.54 9.92.67 14.43 2.72.92 1.42 2.2 2.53 3.43 3.68-4.05-1.97-8.14-4.35-12.77-4.4-11-.4-21.97 7.65-24.19 18.58-2.88 11.49.59 23.23 4.13 34.16-5.37-11.09-7.93-24.03-5.29-36.2z"/></g><path d="M431.75 77.41c1.03-.38 2.06-.75 3.09-1.12 8.81 4.76 16.09 11.71 23.1 18.73 3.41 3.96 5.57 8.79 8.42 13.14 5.17-5.19 2.9-13.16 6.25-19.26 4.4 5.35 7.37 11.71 9.77 18.16-1.88 4.28-4.76 8.26-5.28 13.03-1.74 13.11-5.27 26.06-11.17 37.91-5.67 8.72-12.11 17.16-20.43 23.54-13.86 9.24-32.94 7.62-46.43-1.54a138.883 138.883 0 0 1-26.86-21.18c-4.43-3.86-8.65-8.72-14.92-9.23l-.29-.07c-.99-3.3-1.96-6.61-2.54-10.01 4.83-.39 8.5 3.34 11.19 6.86 3.74 4.91 7.49 9.85 11.75 14.32 3.24 2.31 6.88 4.03 10.01 6.53 2.35-.06 4.59-.91 6.86-1.43 5.45 7.86 13.26 14.71 22.88 16.62 9.59 2.37 20.04-.41 27.83-6.32 7.54-5.75 11.84-14.85 13.24-24.08 1.74-13.88.19-28.05-3.89-41.4 3.52-6.85-.08-14.86-4.57-20.32-3.7-3.91-7.44-8.69-13.15-9.46-.2-.06-.62-.18-.82-.24-1.32-1.1-2.61-2.23-4.04-3.18z"/><path d="M282.73 78.18c4.25-1.59 7.75 2 11.18 3.91 8.55 5.2 15.62 12.39 21.99 20.02.88 1.27 2.4 1.61 3.79 2.01.25-5.43 1-10.94 3.84-15.69 4.23 5.38 8.54 11.35 10.03 18.06-6.32 9.02-5.09 20.56-8.14 30.7-2.69 9.14-5.59 18.4-10.7 26.51-5.22 7.6-10.53 15.83-19.03 20.09-12.97 7.63-30.18 7.01-42.64-1.36-2.07-2.53-4.93-4.2-7.24-6.47 8.32 2.77 15.45 8.56 24.18 10.15 12.4 2.68 25.77-2.68 33.7-12.4 1.03-.93.61-2.35.69-3.55 6.6-10.4 7.63-23.15 6.63-35.14-1.29-15.06-5.31-30.26-13.72-42.98-3.39-5.94-8.67-10.51-14.56-13.86z"/><path d="M544.9 78.47c5.06-1.32 10.48-1.53 15.48.2 7.34 2.46 14.62 5.58 20.93 10.08.98 3.67.87 7.65 2.79 11.04 2.49 4.39 3.22 9.4 4.33 14.24 2.68-5.23 3.75-11.17 4.45-16.94-1.46-3.53-5.37-5.08-8.22-7.28 1.52-2.53 3.29-4.92 5.47-6.93l.28-.24c9.37 9 15.27 21.76 14.3 34.9-4.67.77-6.32 5.42-8.39 9-4.51 8.21-10.68 15.72-13.37 24.78-3.81 3.39-7.79 7.48-8.29 12.82-.36 2.57.45 5.13 2.03 7.17 1.45 1.94 3.32 3.51 5.17 5.08l-.56.55c-1.8 1.7-3.73 3.27-5.63 4.84 4.39 5.77 9.64 12.22 17.19 13.45 1.82-1.97 2.35-4.77 3.44-7.15 3.87 2.83 6.91 6.56 10.05 10.14l-.1.1c-2.37 1.97-4.07 4.56-6.25 6.71-1.66 1.53-3.66.18-5.13-.87-7.7-5.62-14.52-12.48-22.85-17.24-3.25-1.77-7.02-2.64-10.71-2.41-2.01.06-3.09 2.07-4.35 3.32-5.85-6.62-9.4-16.08-6-24.7l1.41-.71c2.45 4.37 7.47 6.66 12.38 6.37 2.61-4.92 4.91-10.05 8.43-14.42 4.77-6.13 7.7-13.67 8.04-21.46.3-6.72.71-13.78-1.91-20.14-2.85-11.37-8.23-22.45-17.48-29.95-.77-.65-1.52-1.35-2.5-1.63-4.51-2.05-9.46-3.26-14.43-2.72z"/><path d="M506.51 96.13c5.15-8.04 12.22-15.15 21.06-18.99-.71 3.27-3.57 5.34-5.4 7.97-4.29 5.26-7 11.74-12.11 16.32-1.16-1.72-2.31-3.45-3.46-5.17l-.09-.13z"/><path d="M436.61 80.83c5.71.77 9.45 5.55 13.15 9.46 4.49 5.46 8.09 13.47 4.57 20.32-3.57-11.07-8.99-21.88-17.72-29.78z"/><path d="M225.6 99.67c2.7-4.95 4.71-10.78 9.87-13.77-4.73 7.33-9.32 14.83-12.33 23.06-1.78 6.24-1.98 12.86-4.28 18.96-.46 1.21-1.49 2.05-2.3 3.01-3.01-3.08-6.44-5.73-10.33-7.6.11-3.33.95-6.55 1.67-9.78 2.7.64 5.2 1.85 7.33 3.63 1.32-.95 2.77-1.89 3.49-3.42 2.45-4.62 4.36-9.5 6.88-14.09z"/><path d="M710.79 95.93c1.31-2.98 2.94-6.13 6.2-7.32-1.82 3.63-3.73 7.33-4.39 11.38-1.08 6.09-1.1 12.29-.73 18.44-.36 1.78-.79 3.55-1.15 5.33-1.5 5.81.4 11.81 2.23 17.32.53 2.25 2.96 1.74 4.65 1.46 5.62 13.72 15.8 26.06 29.49 32.26 5.58 2.68 11.71 3.94 17.85 4.47 5.9.42 11.68-1.08 17.45-2.06-9.45 5.95-21.15 7.23-32.03 5.53-9.37-1.66-18.36-5.08-26.86-9.3-6.27-3.91-11.98-8.66-17.47-13.58-4.04-3.33-7.9-7.56-13.43-8.09-2.32-6.8-3.64-13.91-4.18-21.07 6.47.61 9.46 7.05 14.72 9.92 2.45-5.27 1.38-11.2 2.47-16.76 1.01-5.08.59-10.33 1.97-15.34 1.16-4.18 1.27-8.65 3.21-12.59z"/><path d="M233.12 95.1c.83-1.17 1.74-2.64 3.4-2.54-5.57 10.68-5.95 23.35-3.97 35.01 2.31 16.71 7.61 33.98 19.53 46.41 8.36 8.95 21.72 13 33.54 9.38 7.61-1.97 14.08-6.99 18.76-13.2-.08 1.2.34 2.62-.69 3.55-7.93 9.72-21.3 15.08-33.7 12.4-8.73-1.59-15.86-7.38-24.18-10.15 2.31 2.27 5.17 3.94 7.24 6.47-2.57-1.18-5.19-2.32-7.48-3.99-7.25-5.36-14.78-10.37-21.52-16.38-2.45-2.37-5.73-3.4-9.01-3.96-.46.48-1.36 1.44-1.81 1.93l-.22.22c-3.03-6.9-5.94-13.99-6.75-21.55 6.42.16 10.9 4.97 15.79 8.42 4.35-3.37 2.44-9.08 2.42-13.72.21-5.89.31-11.86 1.87-17.58 1.37-7.14 2.72-14.53 6.78-20.72z"/><path d="M781.92 93.91c3.38-1.27 7-1.64 10.6-1.7.69 2.47 1.32 4.96 1.9 7.46-10.12 4.1-20.19 8.31-30.38 12.23 2.48-4.35 5.87-8.08 8.6-12.28 2.06-3.21 5.89-4.43 9.28-5.71z"/><path d="M372.74 122.99c-.51-10.13 1.84-20.51 7.38-29.06.99 1.18 1.41 2.56 1.27 4.13-.4 1.61-.76 3.23-.98 4.88-2.58 18.07 1.06 36.73 8.38 53.32-2.99-1.99-6.7-3.15-8.8-6.24-5.84-7.66-7.59-17.6-7.25-27.03z"/><path d="M509.36 110.96c4.82-3.9 4.37-11 8.53-15.45-.73 3.2-1.67 6.33-2.64 9.46-1.52 4.72-1.6 9.93-4.28 14.24-2.55-2.14-4.97-4.41-7.33-6.75-1.06.14-2.12.27-3.17.41.48-3.12 1.43-6.13 2.46-9.1 1.93 2.58 4.08 4.98 6.43 7.19z"/><path opacity=".38" d="M764.04 111.9c10.19-3.92 20.26-8.13 30.38-12.23.3-.12.91-.36 1.21-.49.1 1.46.06 3.25-1.7 3.62-16.32 6.68-32.68 13.28-49.04 19.85-5.13 2.03-10.23 4.67-15.87 4.77-4.88-.04-9.69.79-14.55 1.11 0 1.62-.01 3.24-.01 4.87-.71-2.33-1.32-4.69-1.92-7.04 7.53-1.6 15.53-.29 22.9-2.86 9.53-3.88 19.06-7.75 28.6-11.6zM703.64 171.88c1.99 2.17 4.04 4.28 6.15 6.33 7.3 6.72 16.34 11.7 26.1 13.7 13.18 2.34 27.32 2.05 39.77-3.32 2.65-1.22 5.24-2.55 7.75-4.05 5.11-3.02 8.62-7.94 13.11-11.73-.03 1.26-.05 2.53-.06 3.79-4.4 4.17-8.41 8.96-13.99 11.61-7.66 4.72-16.67 6.33-25.49 7.22-12.79.53-26.43-.9-37.33-8.18-5.26-3.22-9.97-7.25-14.09-11.83-1.01-.95-1.53-2.25-1.92-3.54z"/><path d="M756.47 105.91c2.31-1.04 4.66-2.01 7.03-2.93-.19 4.16-4.51 6.02-7.54 7.99-8.82 4.65-17.94 8.97-27.6 11.59-3.03.96-6.25.83-9.13-.54 2.76-1.23 5.51-2.49 8.35-3.57 6.34.2 11.98-3.08 17.71-5.33 3.93-1.98 8.78-3.17 11.18-7.21z"/><path d="M333.56 106.49l.33-.57c1.73 4.83 3.16 9.82 3.69 14.94.79 8.79.07 17.7-2.43 26.18-.36-.36-1.06-1.07-1.41-1.43-1.4 1.33-2.71 2.78-3.72 4.44-5.48 9.3-11.03 18.67-18.04 26.92-1.03 1.44-2.78 2.82-2.28 4.82-15.03 10.2-34.1 12.91-51.79 10.1-10.2-1.73-20.03-5.88-28.18-12.28-3.03-2.47-5.73-5.31-8.6-7.95-3.15-3.49-5.9-7.38-7.9-11.63.45-.49 1.35-1.45 1.81-1.93 3.28.56 6.56 1.59 9.01 3.96 6.74 6.01 14.27 11.02 21.52 16.38 2.29 1.67 4.91 2.81 7.48 3.99 12.46 8.37 29.67 8.99 42.64 1.36 8.5-4.26 13.81-12.49 19.03-20.09 5.11-8.11 8.01-17.37 10.7-26.51 3.05-10.14 1.82-21.68 8.14-30.7z"/><path d="M482.38 107.06c2.65 7.83 3.5 16.11 3.12 24.35-1.46.87-3.36 1.31-4.23 2.91-2.64 4.32-4.05 9.24-6.27 13.76-5.68 11.66-12.31 23.17-21.82 32.15-.99.9-1.62 2.08-1.73 3.42-10.07 5.44-21.57 7.81-32.96 7.91-4.76-2.79-10.44-3.2-15.35-5.66-9.81-3.86-17.85-10.84-26.77-16.26-2.9-1.9-6.34-2.64-9.77-2.35l-.45-.56c-3.76-5.22-7.14-10.89-8.86-17.14 6.27.51 10.49 5.37 14.92 9.23 8.03 8.13 17.08 15.26 26.86 21.18 13.49 9.16 32.57 10.78 46.43 1.54 8.32-6.38 14.76-14.82 20.43-23.54 5.9-11.85 9.43-24.8 11.17-37.91.52-4.77 3.4-8.75 5.28-13.03z"/><path d="M579.31 112.77c2.62 6.36 2.21 13.42 1.91 20.14-.34 7.79-3.27 15.33-8.04 21.46-3.52 4.37-5.82 9.5-8.43 14.42-4.91.29-9.93-2-12.38-6.37-.38-.8-.75-1.6-1.1-2.4-2.58-3.07-7.1-5.35-6.92-9.9 3.34 1.85 7.07 2.81 10.84 3.24-1.52.16-3.04.43-4.54.7 2.65 3.32 6.96 6.09 11.34 5.26 3.27-2.87 7.75-5.65 8.62-10.2 4.04-3.03 7.57-6.96 8.9-11.95 2.19-7.94 1.34-16.42-.2-24.4z"/><path d="M596.32 126.54c2.07-3.58 3.72-8.23 8.39-9-.16 1.5-.19 3.03-.55 4.5-1.72 4.34-2.65 9.04-5.25 12.99-4.06 6.51-9.92 11.67-15.96 16.29 2.69-9.06 8.86-16.57 13.37-24.78z"/><path opacity=".47" d="M337.58 120.86c1.67 1.95.96 4.77 1.23 7.13.44 13.18-2.97 26.49-10.29 37.51-10.55 16.94-29.75 27.68-49.53 29.05-5.35.1-10.7.14-16.05-.08-15.25-1.62-29.92-8.74-40.33-20.05a9.68 9.68 0 0 1-1.48-2.76c2.87 2.64 5.57 5.48 8.6 7.95 8.15 6.4 17.98 10.55 28.18 12.28 17.69 2.81 36.76.1 51.79-10.1 12.32-7.99 21.22-20.77 25.45-34.75 2.5-8.48 3.22-17.39 2.43-26.18z"/><path opacity=".37" d="M485.17 135.24c1.67-4.62.56-9.57 1.36-14.33 1.6 17.41-3.06 35.68-14.42 49.18-9.24 11.48-22.66 19.3-37.08 22.17-7.21 1.8-14.7 1.38-22.06 1.28-17.56-1.29-34.79-9.84-45.46-24.01-.65-.84-1.1-1.77-1.36-2.8l.45.56c12.09 15.9 32.06 24.71 51.89 24.27 11.39-.1 22.89-2.47 32.96-7.91 1.03-.53 2.06-1.07 3.09-1.63 2.15-1.03 4.18-2.31 5.87-4.01 1.56-1.28 3.07-2.63 4.67-3.87a8.37 8.37 0 0 0 3.08-3.06c9.12-9.91 15.01-22.53 17.01-35.84z"/><path opacity=".7" d="M598.91 135.03c2.6-3.95 3.53-8.65 5.25-12.99-.12 7.29-3.96 14.05-8.38 19.66-5.48 7.45-14.83 11.31-19.3 19.58-1.75 3.21-.72 6.76.21 10.03-1.58-2.04-2.39-4.6-2.03-7.17.5-5.34 4.48-9.43 8.29-12.82 6.04-4.62 11.9-9.78 15.96-16.29z"/><path d="M481.27 134.32c.87-1.6 2.77-2.04 4.23-2.91-.08.95-.25 2.87-.33 3.83-2 13.31-7.89 25.93-17.01 35.84-1.93-.7-3.76 1.14-3.08 3.06-1.6 1.24-3.11 2.59-4.67 3.87a35.603 35.603 0 0 0-5.87 4.01c-1.03.56-2.06 1.1-3.09 1.63.11-1.34.74-2.52 1.73-3.42 9.51-8.98 16.14-20.49 21.82-32.15 2.22-4.52 3.63-9.44 6.27-13.76z"/><path d="M135.36 134.47c1.38-.88 2.8-2.04 4.55-1.87 14.84.02 29.68-.11 44.52.08-3.08.86-6.54 1.44-8.74 3.98-2.24 2.03-3.92 4.96-6.8 6.11-4.96-.84-8.95-4.46-13.75-5.93-6.26-2.76-13.21-1.36-19.78-2.37z"/><path d="M184.43 132.68c1.66-.17 3.33-.08 4.99-.06-6.04 2.38-10.74 7.09-14.75 12.06-1.59 1.66-3.12 4-5.64 4.15-4.49.42-7.13-3.97-10.4-6.27-1.31 14 .4 28.13-.64 42.15l-.7.28c.06-13.67-.01-27.35.04-41.02l.1-1.51c-5.48-4.92-13.32-5.36-20.27-4.27-3.63.65-7.28 1.25-10.97 1.23 2.88-1.94 5.97-3.58 9.17-4.95 6.57 1.01 13.52-.39 19.78 2.37 4.8 1.47 8.79 5.09 13.75 5.93 2.88-1.15 4.56-4.08 6.8-6.11 2.2-2.54 5.66-3.12 8.74-3.98z"/><path d="M189.42 132.62c1.89-.13 3.78-.02 5.67.03-.32.36-.95 1.09-1.26 1.45-1.98 2.26-4.24 4.25-6.31 6.44-1.96 1.95-1.89 4.95-2.12 7.52-.27 13.71.21 27.44-.27 41.14-1.01-14.49-.15-29.03-.52-43.54-3.15 1.85-5.44 5-6.55 8.44.1 5.78-.19 11.66-1.78 17.23-3.22 5.63-9.07 8.9-13.54 13.4-3.72 3.71-7.83 7.24-12.83 9.08-6.1 2.12-12.4 3.9-18.89 4.11-17.56 1.91-35.57 1.5-52.62-3.52-11.1-2.84-21.43-7.96-32.32-11.47-2.94-.82-6.15-2-9.14-.62-3.55-2.62-6.61-5.79-9.86-8.75-8.49-8.64-14.79-19.24-19.32-30.43.61-.31 1.84-.93 2.45-1.23 3.13 3.23 6.61 6.07 10.41 8.48 4.36 4.99 9.6 9.07 14.35 13.67 8.25 7.43 17.66 13.53 27.69 18.26 8.27 4.4 17.12 7.69 26.26 9.74 14.33 3.71 29.31 3.23 43.97 2.44 7.83-1.16 17.03-1.71 22.33-8.45l.42-.44c.42-.16 1.24-.46 1.65-.61l.7-.28c1.04-14.02-.67-28.15.64-42.15 3.27 2.3 5.91 6.69 10.4 6.27 2.52-.15 4.05-2.49 5.64-4.15 4.01-4.97 8.71-9.68 14.75-12.06z"/><path d="M126.19 139.42c3.69.02 7.34-.58 10.97-1.23 6.95-1.09 14.79-.65 20.27 4.27-5.96-.14-11.87.8-17.82.86-3.71-.62-7.45-.3-11.12.39-2.34 0-4.67.1-6.99.33-1.32.12-2.64.18-3.96.19 2.52-2.15 5.6-3.57 8.65-4.81z"/><path opacity=".81" d="M128.49 143.71c3.67-.69 7.41-1.01 11.12-.39-3.67.77-7.41.93-11.12.39z"/><path opacity=".35" d="M139.61 143.32c5.95-.06 11.86-1 17.82-.86l-.1 1.51c-2.51 1.38-5.58.53-8.33.78-8.71.66-17.43 1.8-26.19 1.62-.32-.58-.98-1.74-1.31-2.33 2.32-.23 4.65-.33 6.99-.33 3.71.54 7.45.38 11.12-.39z"/><path d="M508.34 144.12c5.83-2.28 11.67.98 16.59 3.89 6.38 3.81 14.1 6.23 18.48 12.62-6.65-.08-13-2.04-19.33-3.81-6.34-2.45-11.91-7.1-15.74-12.7z"/><path d="M178.06 154.1c1.11-3.44 3.4-6.59 6.55-8.44.37 14.51-.49 29.05.52 43.54l-.8.27c-.02-3.66-.16-7.3-.38-10.95-4.07 1.81-8.92 1.93-12.41 4.94-4.4 3.61-8.78 7.25-13.47 10.48.21.36.64 1.07.85 1.43-4.77.97-9.45 2.4-14.28 3.11-15.43 2.38-30.98 4.7-46.64 4.16-21.68-.76-43.82-6.72-61.06-20.33 2.99-1.38 6.2-.2 9.14.62 10.89 3.51 21.22 8.63 32.32 11.47 17.05 5.02 35.06 5.43 52.62 3.52 6.49-.21 12.79-1.99 18.89-4.11 5-1.84 9.11-5.37 12.83-9.08 4.47-4.5 10.32-7.77 13.54-13.4 1.59-5.57 1.88-11.45 1.78-17.23z"/><path d="M330.02 150.05c1.01-1.66 2.32-3.11 3.72-4.44.35.36 1.05 1.07 1.41 1.43-4.23 13.98-13.13 26.76-25.45 34.75-.5-2 1.25-3.38 2.28-4.82 7.01-8.25 12.56-17.62 18.04-26.92z"/><path d="M555.19 153.36c5.44.07 10.72-1.56 15.42-4.24-.87 4.55-5.35 7.33-8.62 10.2-4.38.83-8.69-1.94-11.34-5.26 1.5-.27 3.02-.54 4.54-.7z"/><path d="M692.6 151.77c5.53.53 9.39 4.76 13.43 8.09 5.49 4.92 11.2 9.67 17.47 13.58 8.5 4.22 17.49 7.64 26.86 9.3 10.88 1.7 22.58.42 32.03-5.53 5.61-2.14 11.15-4.43 16.58-7-.7.97-1.58 1.81-2.45 2.6-4.49 3.79-8 8.71-13.11 11.73-2.51 1.5-5.1 2.83-7.75 4.05-4.15-1.56-8.45-.06-12.68-.01-9.88.48-19.79-1.16-29.03-4.65-7.39-2.14-14.14-6.1-21.69-7.74-.83.67-1.66 1.34-2.47 2.02a153.04 153.04 0 0 1-6.15-6.33c-4.87-5.96-8.49-12.87-11.04-20.11z"/><path opacity=".84" d="M524.08 156.82c6.33 1.77 12.68 3.73 19.33 3.81 2.63.05 5.25-.27 7.86-.61.35.8.72 1.6 1.1 2.4l-1.41.71.38-1.12.36-1.02c-4.7.11-9.4.02-14.09.24-4.35-.38-8.58-1.82-12.65-3.34l-.88-1.07z"/><path opacity=".58" d="M537.61 161.23c4.69-.22 9.39-.13 14.09-.24l-.36 1.02c-4.44.5-9.61 1.34-13.73-.78z"/><path d="M366.6 167.29c3.43-.29 6.87.45 9.77 2.35 8.92 5.42 16.96 12.4 26.77 16.26 4.91 2.46 10.59 2.87 15.35 5.66-19.83.44-39.8-8.37-51.89-24.27z"/><path d="M63.81 170.92c9.52 7.37 20.17 13.44 31.8 16.74 16.36 4.85 33.9 5.14 50.53 1.53-.38.43-1.14 1.3-1.52 1.74-2.24.86-4.61 1.3-6.98 1.6-14.11 1.59-28.53 1.95-42.51-.9-11.14-3.62-23.28-6.43-32-14.78.26-1.97.52-3.95.68-5.93z"/><path opacity=".87" d="M465.08 174.14c-.68-1.92 1.15-3.76 3.08-3.06a8.37 8.37 0 0 1-3.08 3.06z"/><path d="M712.26 176.19c7.55 1.64 14.3 5.6 21.69 7.74 9.24 3.49 19.15 5.13 29.03 4.65 4.23-.05 8.53-1.55 12.68.01-12.45 5.37-26.59 5.66-39.77 3.32-9.76-2-18.8-6.98-26.1-13.7.81-.68 1.64-1.35 2.47-2.02z"/><g><path d="M581.3 176.94l.66-.58c4.69 4.01 9.89 7.42 14.34 11.72-1.09 2.38-1.62 5.18-3.44 7.15-7.55-1.23-12.8-7.68-17.19-13.45 1.9-1.57 3.83-3.14 5.63-4.84zM505.07 212.99c2.48-2.93 4.31-6.84 8.26-8.03-2.62 3.5-5.49 6.81-8 10.39-3.65 5.23-4.3 11.78-7.15 17.39-3.23-1.59-6.48-3.15-9.76-4.62-1.36 5.36-.24 10.81.65 16.14l.12.69c-3.38-7.76-2.89-16.6-.1-24.45l.48.34c2.17 1.55 4.44 2.95 6.68 4.41 4.09-3.19 5.51-8.42 8.82-12.26z"/></g><path d="M644.65 178.77c3.94-.63 7.93-1.26 11.94-1.24 5.03.29 7.99 5.49 12.94 6.06 4.23.54 8.81.41 12.47-2.07 1.31.09 2.63.19 3.95.3-.37.27-1.13.83-1.51 1.11-4.14 1.45-7.73 4.83-12.4 4.26-14.07-.31-28.17.51-42.22-.52.81-1.06 1.66-2.11 2.49-3.16 4.55-.29 7.89-4.03 12.34-4.74z"/><path d="M171.54 183.46c3.49-3.01 8.34-3.13 12.41-4.94.22 3.65.36 7.29.38 10.95-8.43 2.11-16.94 3.95-25.41 5.9-.21-.36-.64-1.07-.85-1.43 4.69-3.23 9.07-6.87 13.47-10.48z"/><path opacity=".76" d="M454.54 182.02c1.82-1.52 3.78-2.88 5.87-4.01-1.69 1.7-3.72 2.98-5.87 4.01z"/><path opacity=".94" d="M672.04 187.19c4.67.57 8.26-2.81 12.4-4.26-2.08 1.87-4.12 3.77-6.19 5.64-12.73.22-25.47 0-38.2.12-3.79.06-7.56-.18-11.31-.65.27-.34.81-1.02 1.08-1.37 14.05 1.03 28.15.21 42.22.52z"/><path d="M556.96 187.83c1.26-1.25 2.34-3.26 4.35-3.32 3.69-.23 7.46.64 10.71 2.41 8.33 4.76 15.15 11.62 22.85 17.24 1.47 1.05 3.47 2.4 5.13.87 2.18-2.15 3.88-4.74 6.25-6.71 1.49 2.05 2.97 4.13 3.95 6.48.82 2.56 1.56 5.15 2.21 7.77-1.14.74-2.7 1.09-3.31 2.43-3.06 5.5-5.6 11.32-6.57 17.58-3.24 10.11-9.32 19.73-18.2 25.77-13.07 7.35-28.62 8.62-43.3 7.49-9.16-1.37-18.31-3.69-26.32-8.49-6.11-2.72-11.16-7.86-17.97-8.88-1.84-.4-3.64.36-5.37.87-.84-1.66-1.82-3.28-2.3-5.08-.89-5.33-2.01-10.78-.65-16.14 3.28 1.47 6.53 3.03 9.76 4.62 2.85-5.61 3.5-12.16 7.15-17.39 2.51-3.58 5.38-6.89 8-10.39 5-2.95 9.6-6.73 15.28-8.36 6.62-2.6 14.38-2.57 20.06-7.27 2.31-1.22 5.14-.49 7.66-.77.16-.18.47-.55.63-.73m-19.1 10.84c-7.53 1.86-15.02 5.06-20.52 10.67-3.15 3.36-6.14 7.45-6.21 12.24-1.35 5.57-.8 11.64 1.66 16.83 1.26 2.92 3.18 5.53 5.34 7.86-1.88 2.52-.79 5.35 1.27 7.32 5.71 5.03 13.01 8.05 20.56 8.91 10.65 2.13 21.66 1.06 32.1-1.63 8.6-2.39 17.01-7.39 21.09-15.63.55-1.44 2.36-3.42.67-4.75 2.14-6.45 2.47-14.08-.96-20.14-3.08-6.95-9.48-11.45-15.24-16.04-3.42-2.43-6.59-5.26-10.29-7.25l.14-1.21c-9.95-.55-19.92.62-29.61 2.82z"/><path d="M528.6 192.33c6.49-1.73 13.31-2.91 20.07-3-5.68 4.7-13.44 4.67-20.06 7.27-5.68 1.63-10.28 5.41-15.28 8.36-3.95 1.19-5.78 5.1-8.26 8.03-3.31 3.84-4.73 9.07-8.82 12.26-2.24-1.46-4.51-2.86-6.68-4.41.25-2.83 2.34-5.22 3.67-7.7 1.37 1.48 2.78 4.65 5.3 3.37 5.77-3.84 8.7-10.66 14.44-14.58 4.65-4.09 10.73-5.87 15.62-9.6z"/><path d="M493.24 213.14c8.45-11.31 21.78-17.96 35.36-20.81-4.89 3.73-10.97 5.51-15.62 9.6-5.74 3.92-8.67 10.74-14.44 14.58-2.52 1.28-3.93-1.89-5.3-3.37z"/><path opacity=".76" d="M537.86 198.67c9.69-2.2 19.66-3.37 29.61-2.82l-.14 1.21c-9.79-.83-19.67.53-29.22 2.66-11.53 2.8-23.42 9.83-26.98 21.86.07-4.79 3.06-8.88 6.21-12.24 5.5-5.61 12.99-8.81 20.52-10.67z"/><path opacity=".71" d="M610.2 204.8c2.16 3.25 2.76 7.21 3.59 10.95 1.12 12.99-3.44 26.22-12.5 35.61-11.51 11.83-27.94 18.04-44.19 19.32l.02-.91c17.07-1.69 34.45-8.53 45.78-21.83 8.26-9.58 12.22-22.9 9.51-35.37-.65-2.62-1.39-5.21-2.21-7.77z"/><path d="M609.1 215c.61-1.34 2.17-1.69 3.31-2.43 2.71 12.47-1.25 25.79-9.51 35.37-11.33 13.3-28.71 20.14-45.78 21.83-7.25.51-14.51.42-21.76.68-8.43-.58-16.65-2.62-24.61-5.38-4.04-1.91-7.93-4.16-11.42-6.98a31.778 31.778 0 0 0-5.23-5.33c-1.13-.96-1.91-2.22-2.73-3.42 1.73-.51 3.53-1.27 5.37-.87 6.81 1.02 11.86 6.16 17.97 8.88 8.01 4.8 17.16 7.12 26.32 8.49 14.68 1.13 30.23-.14 43.3-7.49 8.88-6.04 14.96-15.66 18.2-25.77.97-6.26 3.51-12.08 6.57-17.58z"/><path d="M593.82 240.49c1.69 1.33-.12 3.31-.67 4.75-4.08 8.24-12.49 13.24-21.09 15.63-10.44 2.69-21.45 3.76-32.1 1.63-7.55-.86-14.85-3.88-20.56-8.91-2.06-1.97-3.15-4.8-1.27-7.32 5.1 5.24 11.8 8.65 18.8 10.6 10.83 2.96 22.41 3.42 33.44 1.21 9.8-2.06 19.75-7.8 23.45-17.59z"/><path opacity=".81" d="M494.1 252.76c1.94 1.57 3.71 3.35 5.23 5.33l-1.26-.76c-1.79-1.05-3.11-2.72-3.97-4.57z"/><path opacity=".64" d="M510.75 265.07c7.96 2.76 16.18 4.8 24.61 5.38 6.63 1.14 13.37.32 20.05.36-6.55 1.43-13.29.78-19.91.52-8.46-.9-17.2-2.1-24.75-6.26z"/><g><path opacity=".92" d="M535.36 270.45c7.25-.26 14.51-.17 21.76-.68l-.02.91c-.42.03-1.27.1-1.69.13-6.68-.04-13.42.78-20.05-.36z"/></g></symbol><symbol id="intel" viewBox="0 0 293 194"><g><path d="M187.25 0h1.45c26.86.31 55.11 4.21 77.87 19.51 14.08 9.23 24.25 24.61 25.63 41.56 3.44 29.35-16.52 58.17-43.6 68.49.01-5.4-.1-10.8.09-16.2 13.97-8.23 25.2-22.05 28.16-38.22 2.94-15.4-2.9-31.96-14.52-42.4-13.7-12.59-32.26-18.11-50.3-20.76-21.61-3.01-43.64-1.92-65.14 1.48-28.86 4.66-57.06 13.66-83.11 26.97l-.03-5.6C100.82 12.42 144.07.98 187.25 0z"/><path d="M223.19 45.32c5.06.08 10.12-.13 15.17.14-.17 27.92-.01 55.84-.08 83.76-3.48-.57-7.09-1.36-9.9-3.64-3.75-2.94-5.27-7.89-5.2-12.52 0-22.58-.02-45.16.01-67.74zM247.28 50.93c-.77-3.57 2.66-6.22 5.98-6.06 1.41.7 2.74 1.56 3.88 2.66-.69 1.66-.73 3.33-.14 5.01-2.32 3.84-8.98 2.99-9.72-1.61m4.49-3.6c1.7-.01 2.19-.56 1.46-1.66-1.71.01-2.2.56-1.46 1.66m-1.62-1.38c-2.19 1.51-3.17 4.81-1.22 6.87 1.27 1.82 3.79 1.22 5.63 1.64-1.13-1.68-1.67-3.77-3.28-5.07-.1.93-.31 2.8-.41 3.73-1.02-2.25-.65-4.78-.72-7.17m1.27 2.23c.33 3.13 3.21-1.51 0 0m2.47 3.44c1.69 1.84 2.81-1.74 2.24-3.04-1.34-1.41-2.73 1.91-2.24 3.04zM42.59 47.41c5.02-.02 10.04.02 15.07-.04.09 4.81.03 9.61.05 14.42-5.03.02-10.06-.01-15.1.02-.04-4.8-.02-9.6-.02-14.4zM131.12 53.87c5-.01 10-.01 14.99 0 .01 5.42 0 10.84.01 16.26 3.79 0 7.58-.01 11.37.04-.04 4.06.01 8.12-.06 12.18-3.76-.02-7.52-.01-11.28-.04-.04 9.91-.06 19.81-.01 29.71-.08 1.95.86 4.13 2.85 4.74 2.79.62 5.67.32 8.51.42-.05 4.16-.04 8.31-.02 12.47-6.03-.19-12.53.94-18.08-2.04-5.35-2.69-8.26-8.75-8.25-14.59-.07-19.71-.01-39.43-.03-59.15z"/><path d="M0 113.27c1.58-22.8 14.94-43.03 31.89-57.63 0 2.65-.01 5.29-.06 7.94-11.08 12.27-18.46 28.05-20.09 44.55-1.39 13.96 2.37 28.76 11.8 39.36 10.47 11.95 25.76 18.3 40.9 21.93 21.49 4.97 43.77 5.32 65.69 3.93 22.34-1.35 44.41-5.79 65.79-12.3 16.27-5.04 32.28-11.25 47.02-19.87-.03 7.45.07 14.9-.07 22.35-23.11 12.24-48.43 19.8-74.03 24.78-23.61 4.48-47.77 6.35-71.77 4.81-19.19-1.32-38.5-4.93-55.99-13.19-14.03-6.63-26.89-16.88-34.1-30.87-4.22-7.86-5.94-16.74-6.98-25.52v-10.27z"/><path d="M170.21 76.17c6.99-6.59 17.65-8.6 26.74-5.86 7.01 2.12 12.38 7.99 14.9 14.74 2.49 6.17 2.56 12.93 2.54 19.49-12.7.08-25.41.12-38.11-.02-.24 4.95 2.3 10.19 7 12.2 6.76 2.8 15.12 1.1 20.08-4.35 3.12 2.93 6.18 5.94 9.28 8.91-4.8 4.8-10.97 8.39-17.82 9.07-8.84 1.18-18.72-.43-25.3-6.88-6.48-6.29-8.42-15.76-8.24-24.47.08-8.32 2.71-17.02 8.93-22.83m9.62 8.69c-2.63 2.42-3.32 6.09-3.66 9.48 7.76-.02 15.53.01 23.3-.02-.44-3.32-1.03-6.87-3.36-9.46-4.07-4.66-12-4.09-16.28 0zM42.6 70.13c5.04.01 10.08-.01 15.12.02-.09 20.12.12 40.25-.11 60.38-3.82-.71-7.87-1.66-10.73-4.49-3.21-3.09-4.36-7.69-4.29-12.03 0-14.62-.01-29.25.01-43.88zM71.12 70.13c10.33.02 20.66-.01 30.99.01 4.69-.04 9.64 1.3 12.95 4.77 3.62 3.68 4.82 9.03 4.81 14.04.02 13.62.01 27.24 0 40.86-5.01-.02-10.03-.01-15.04-.01-.04-13.94.05-27.89-.04-41.83.15-2.57-1.56-5.18-4.25-5.44-4.78-.46-9.6-.06-14.39-.22-.09 15.83.03 31.67-.07 47.5-4.98-.02-9.97-.01-14.95-.01-.02-19.89-.01-39.78-.01-59.67z"/></g></symbol><symbol id="microsoft" viewBox="0 0 1642 351"><path d="M0 0h166.75v166.75H0V0z"/><path d="M184 0h166.75v166.75c-55.58.01-111.16 0-166.74.01C183.99 111.17 184 55.59 184 0z"/><g><path d="M1503.77 63.76c15.34-9.95 35.23-11.06 52.49-6.12-.03 10.25-.02 20.49 0 30.74-8.57-3.78-18.86-6.13-27.66-1.78-7.59 3.67-10.91 12.45-11.29 20.41-.18 7.57-.01 15.16-.06 22.74 17.58.01 35.16-.01 52.74.01.01-11.33.01-22.65 0-33.98 11.91-3.7 23.83-7.32 35.76-10.96.01 14.98-.01 29.95.01 44.93h35.99v29c-12 .01-24-.01-35.99.01-.02 23.42-.01 46.85-.01 70.27.16 6.25.46 12.87 3.76 18.38 2.43 4.02 7.02 6.12 11.54 6.77 7.32 1.3 14.78-1.2 20.95-5.07v29.33c-11.65 5.55-25.15 6.5-37.82 4.89-9.76-1.41-19.45-6.01-25.32-14.16-6.84-9.21-8.66-21.02-8.85-32.22-.02-26.06 0-52.13-.01-78.2-17.59 0-35.17-.01-52.75.01 0 40.58 0 81.16-.01 121.74H1481c-.01-40.58.01-81.17 0-121.75-8.34 0-16.67 0-24.99.01-.02-9.67-.01-19.34-.01-29.01 8.33 0 16.66 0 24.99.01.37-13.02-1.32-26.44 2.73-39.06 3.25-10.97 10.46-20.7 20.05-26.94zM728.41 66.54c6.83-1.79 14.72-.96 20.35 3.59 5.98 4.51 8.99 12.44 7.68 19.81-1.11 7.55-7.24 13.71-14.4 15.88-11.28 3.78-25.69-2.62-28.1-14.82-2.64-10.41 4.22-21.65 14.47-24.46zM455.52 70.24c17.41.02 34.82.01 52.23 0 20.51 51.85 40.98 103.7 61.52 155.53 21.21-51.77 42.31-103.59 63.35-155.43 16.79-.21 33.58-.03 50.37-.1.02 70.09.01 140.17.01 210.26h-36.5c-.09-53.97.17-107.95-.13-161.92-.79.91-1.45 1.93-1.83 3.08-20.9 52.95-42.06 105.79-62.88 158.76-8.65.17-17.29.03-25.93.08-20.81-51.58-41.58-103.17-62.38-154.75-1-2.56-1.91-5.17-3.41-7.48-.47 54.08-.01 108.17-.23 162.26-11.4-.07-22.81-.01-34.21-.03.01-70.09-.02-140.18.02-210.26zM829.95 130.02c16.87-4.99 35.09-5.15 52.12-.81 4.39 1.16 8.73 2.64 12.71 4.87-.14 11.53.12 23.07-.13 34.6-10.36-8.11-23.3-13.43-36.6-12.96-13.02-.07-26.02 5.89-34 16.26-9.75 12.31-11.88 29.03-9.79 44.2 1.53 12.05 7.52 23.9 17.75 30.81 11.37 7.66 26.26 9.38 39.33 5.61 8.47-2.3 16.36-6.4 23.4-11.61.01 10.95.03 21.91-.01 32.86-15.89 9.13-34.81 11.28-52.81 9.77-17.37-1.61-34.42-9.19-46.24-22.2-11.97-13.13-18.39-30.79-19-48.44-.7-18.45 2.99-37.55 13.1-53.24 9.17-14.39 23.88-24.86 40.17-29.72zM1077.58 126.84c15.09-1.58 30.76-.81 45.08 4.59 12.17 4.57 22.91 12.94 30.15 23.76 7.82 11.37 11.59 25.07 12.7 38.71 1.16 15.59-.24 31.66-6.3 46.2-6.15 14.95-17.6 27.68-31.97 35.15-12.36 6.37-26.42 8.98-40.26 8.77-14.23.17-28.74-2.75-41.18-9.84-13.42-7.63-23.96-20.1-29.35-34.56-5.81-15.41-6.51-32.34-4.46-48.55 2.28-17.79 10.26-35.25 24.04-47.04 11.52-10.09 26.47-15.51 41.55-17.19m.94 29.93c-7.19 1.61-13.92 5.36-18.8 10.91-8.33 9.3-11.32 22.11-11.71 34.3-.47 12.81 1.23 26.46 8.84 37.16 5.68 8.38 15.24 13.67 25.21 14.91 10.49 1.36 21.95.09 30.71-6.26 8.28-5.93 12.67-15.82 14.58-25.56 2.31-12.68 2.35-25.96-1.07-38.44-2.4-8.98-7.79-17.3-15.7-22.34-9.43-5.99-21.31-6.87-32.06-4.68zM1223.56 127.7c17.04-3.33 34.95-1.14 51.16 4.86.07 11.08 0 22.16.04 33.24-9.84-7.02-21.83-10.71-33.83-11.29-6.34-.25-13.26.88-18.11 5.27-6.6 5.86-5.28 17.72 1.88 22.57 9.1 6.29 19.96 9.17 29.72 14.21 8.27 4.22 16.43 9.5 21.74 17.31 10.42 15.87 8.43 38.91-4.69 52.7-6.6 6.96-15.26 11.78-24.46 14.37-21.24 5.85-44.27 3.12-64.47-5.19-.09-11.65-.02-23.3-.04-34.94 7.45 5.34 15.67 9.69 24.54 12.16 10.33 3.05 21.87 4.24 32.07.11 9.04-3.61 10.3-17.3 3.08-23.27-5.23-4.55-11.76-7.16-17.99-9.99-10.19-4.31-20.69-8.61-29.12-15.98-7.14-6.34-11.35-15.53-12.24-24.98-1.2-9.96.38-20.53 5.93-29.03 7.66-12.01 21.04-19.43 34.79-22.13zM1364.59 126.84c17.95-1.87 36.98-.45 53.11 8.28 15.14 8.07 26.29 22.68 31.13 39.04 3.98 12.82 4.52 26.43 3.61 39.74-1.45 17.87-8.21 35.73-21.01 48.56-11.82 12.35-28.43 19.25-45.26 20.99-16.95 1.68-34.74.21-50.15-7.55-13.81-6.87-25.05-18.74-31.19-32.89-5.21-11.91-7.1-25.04-6.85-37.97.06-19.7 5.57-40.16 18.98-55.04 12.02-13.69 29.73-21.28 47.63-23.16m1 29.91c-8.17 1.77-15.67 6.44-20.7 13.13-6.3 8.13-8.88 18.47-9.72 28.55-.72 12.12.03 24.84 5.69 35.82 3.8 7.46 10.06 13.75 17.85 16.98 8.29 3.51 17.63 4.01 26.44 2.55 8.76-1.43 17.12-6.2 22.06-13.68 6.81-9.95 8.45-22.33 8.77-34.11-.03-9.28-.96-18.75-4.49-27.41-3.45-8.8-10.43-16.29-19.22-19.88-8.39-3.47-17.87-3.71-26.68-1.95zM977.27 131.13c9.66-4.98 21.35-5 31.6-1.89.31 12.11.02 24.22.15 36.33-6.34-4.47-14.35-6.12-21.99-6.09-9.67.13-18.3 6.37-23.05 14.54-5.29 8.64-7.05 18.93-7.22 28.92-.04 25.86.03 51.72-.03 77.57-11.81.01-23.61-.07-35.41.05-.2-50.25.04-100.49-.12-150.74 11.85-.16 23.7-.03 35.55-.06 0 8.72-.01 17.44.01 26.17 4.02-10.12 10.53-19.8 20.51-24.8zM716.75 129.75h35.75V280.5h-35.75V129.75z"/></g><path d="M0 184c55.58 0 111.17-.01 166.75 0-.06 55.67.11 111.34-.08 167H0V184z"/><path d="M184 184c55.59 0 111.17-.01 166.76 0-.07 55.67.11 111.34-.09 167H184.21c-.35-4-.2-8.01-.21-12.02V184z"/></symbol><symbol id="qualcomm" viewBox="0 0 497 110"><g><path d="M14.12 14.17C23.1 4.96 36.19.1 49 .9c11.59.59 22.87 5.88 30.7 14.45 10.31 10.96 14.59 27.22 10.93 41.82-3.02 12.86-12.05 23.96-23.74 29.99-.04 7.36 0 14.73-.02 22.09-4.27.05-8.54.03-12.81.02.01-5.92.05-11.84.07-17.75-14.1 2.42-29.25-2.17-39.44-12.24C5.49 70.5.37 57.69.83 44.99c.3-11.46 5.19-22.71 13.29-30.82m5.92 18.89c-6.29 11.92-2.99 27.88 7.58 36.27 7.2 6.11 17.37 8.15 26.44 5.67V56.77c4.24-1.22 8.47-2.47 12.71-3.72.24 4.88-.01 9.77.17 14.65 5.01-4.9 8.23-11.61 8.8-18.61 1.66-14.54-9.21-29.12-23.63-31.62-12.63-2.74-26.43 3.97-32.07 15.59zM233 34.11c4.64-11.77 18.01-19.12 30.44-16.78 3.36.51 6.51 1.83 9.49 3.41-1.71 2.99-3.42 5.97-5.11 8.97-4.7-2.48-10.43-3.31-15.42-1.19-7.06 2.57-11.78 10.12-11.18 17.58.37 8.02 6.92 15.19 14.86 16.29 3.8.68 7.65-.31 11.11-1.86 1.68 3.05 3.48 6.04 4.95 9.2-8.7 4.39-19.61 4.4-27.94-.88-11.56-6.83-16.64-22.43-11.2-34.74z"/><path d="M294.13 17.18c9.64-1 19.67 3.42 25.3 11.34 8.38 10.99 6.77 28.09-3.7 37.19-10.01 9.74-27.49 9.8-37.6.17-10-8.68-12.08-24.67-4.88-35.73 4.49-7.22 12.4-12.18 20.88-12.97m-3.75 11.5c-9.07 3.4-13.73 14.84-9.59 23.61 3.75 9.25 16.03 13.3 24.6 8.25 8.04-4.26 11.52-15.13 7.29-23.23-3.74-8.08-14.09-12.14-22.3-8.63zM341.87 21.91c1.35-3.64 6.02-4.4 9.26-3.05 2.14.87 2.98 3.17 3.85 5.12 4.13 9.77 8.48 19.45 12.56 29.25 5.13-10.32 9.17-21.15 13.99-31.61 1.93-4.33 9.07-4.54 11.53-.62 5.12 10.55 8.88 21.81 14.41 32.13 4.33-10.44 8.91-20.78 13.38-31.16 1.44-3.87 6.62-4.61 9.91-2.8 1.75 1.02 2.43 3.03 3.23 4.77 4.13 9.78 8.47 19.47 12.57 29.27 5.15-10.31 9.17-21.18 14.02-31.64 2.19-4.79 10.56-4.38 12.16.71 5.95 13.69 11.82 27.42 17.78 41.11.78 1.86 1.7 3.99.8 5.98-1.43 3.81-7.59 4.66-9.67 1.01-5.36-11.58-9.74-23.64-15.33-35.1-4.76 11.5-9.69 22.93-14.61 34.36-1.71 4.07-8.55 3.98-10.06-.2-4.77-11.06-9.42-22.17-14.19-33.23-.24-.01-.71-.02-.95-.02-4.76 11.05-9.41 22.15-14.17 33.2-1.44 4.2-8.34 4.46-10.04.34-5.16-11.4-9.53-23.19-14.99-34.43-4.79 11.49-9.71 22.93-14.62 34.36-1.71 4.09-8.55 3.91-10.08-.25-4.77-11.05-9.4-22.16-14.19-33.2-.23-.01-.7-.02-.94-.03-4.85 11.2-9.5 22.5-14.41 33.67-1.68 4-8.03 3.63-9.79-.1-1.24-2.17-.12-4.59.75-6.65 6-13.71 11.83-27.49 17.84-41.19zM99.76 18.73c3.44-.01 6.88-.01 10.32 0 .03 13.98-.04 27.97.04 41.95 5.94-.02 11.89-.07 17.83.03.19-13.99.02-27.98.09-41.97 3.44-.02 6.89-.03 10.33-.01.01 15.75-.01 31.5.01 47.25.35 2.64-1.74 5.6-4.53 5.6-9.61.06-19.22-.02-28.83.04-2.99.35-5.65-2.64-5.28-5.55.03-15.78 0-31.56.02-47.34zM165.22 19.04c3.52-.28 7.07-.24 10.6-.02 7.43 17.52 15.36 34.83 22.85 52.33-3.63-.01-7.26-.03-10.89.01-1.72-3.8-3.44-7.61-5.05-11.47-7.97-.21-15.94.02-23.91-.12-1.95 3.82-3.67 7.75-5.58 11.6-3.63-.04-7.26-.02-10.89-.04 7.55-17.46 15.42-34.79 22.87-52.29m5.2 13.27c-2.64 6.33-5.58 12.54-8.16 18.9 5.53-.03 11.06-.02 16.6-.02-2.86-6.27-5.39-12.7-8.44-18.88zM202.67 18.73c3.44-.01 6.88-.01 10.33-.01.03 14.01-.05 28.02.04 42.03 5.68.01 11.37-.15 17.05.04 2.91 3.09 4.76 7.2 7.03 10.83-10-.08-20 .03-30-.04-2.72-.04-4.82-2.93-4.47-5.54.02-15.77 0-31.54.02-47.31zM485.63 21.73c2.98-4.24 9.9-2.56 11.37 2.19v2.22c-.77 2.76-2.88 4.83-5.67 5.56.3-.88.82-1.66 1.13-2.54-.27-1.61-1.76-2.68-2.59-3.99a9.37 9.37 0 0 1-1.52 4.13c-.08-2.74.36-5.62-.89-8.18 1.75.68 3.64.95 5.52 1.06.14.45.44 1.36.59 1.82-2.04 1.71-1.46 4.27 1.22 4.82.75-2.27 1.42-5.17-.55-7.04-1.73-2.02-4.61-1.67-6.78-.66-2.68 2.62-2.33 7.87 1.7 8.96 1.3.5-1.08.94-1.42 1.35-2.65-2.39-4.65-6.49-2.11-9.7m3.68 1.52c-1.05 1.6 1.76 2.5 2.68 1.33 1.3-1.61-1.83-2.76-2.68-1.33z"/></g></symbol><symbol id="search" viewBox="0 0 594 612"><path d="M230.82 0h14.2c37.96 1.3 75.65 11.45 108.78 30.1 51.47 28.59 91.64 76.87 110.12 132.8 15.74 46.98 16.22 98.92 1.23 146.15-10.53 33.59-28.8 64.61-52.6 90.5 57.13 57.17 114.2 114.4 171.31 171.59 5.25 4.59 9.64 10.58 10.14 17.78v2.74c-.61 10.36-9.22 19.51-19.63 20.34h-3.39c-5.09-.59-9.92-2.9-13.5-6.57-59.02-58.93-117.91-117.99-177-176.85-29.38 22.08-63.97 37.23-100.18 43.61-51.72 9.42-106.5 1.08-152.95-23.58-29.32-15.44-55.33-37.1-75.91-63.07-22.95-28.9-39.08-63.2-46.52-99.36C2.06 272.69.69 258.95 0 245.19v-14.22c1.02-26.67 6.1-53.22 15.77-78.13C35.16 102.13 72.53 58.6 119.63 31.61 153.33 12.06 191.93 1.37 230.82 0m-9.3 43.77c-43.77 3.55-85.98 22.65-117.71 52.98C77.3 121.87 58.02 154.57 49.07 190c-9.43 37.02-7.68 76.84 5.13 112.85 12.06 34.23 33.98 64.87 62.36 87.48 24.94 19.98 54.87 33.68 86.31 39.38 33.7 6.15 69.02 3.33 101.26-8.3 36.9-13.24 69.55-37.97 92.37-69.84 25.46-35.22 38.43-79.16 36.29-122.56-1.47-33.79-12.03-67.12-30.28-95.6-19.54-30.63-47.74-55.7-80.55-71.33-31.06-14.92-66.13-21.24-100.44-18.31z"/></symbol><symbol id="switch" viewBox="0 0 62 19"><g><path d="M6.84 0h2.47c3.42.68 3.59 5.85-.06 6.18.21-1.44.5-2.87.65-4.31-1.96-1.96-4.52.87-3.89 2.99 1.05 3.15 4.91 4.63 5.34 8.08.02 2.69-1.74 4.78-4.04 5.95-.66-.58-1.31-1.16-1.97-1.74 2.17.04 3.01-2.44 2.62-4.17-.9-2.94-3.93-4.86-4.26-8.04C3.51 2.71 5.25 1.22 6.84 0zM31.08 4.08c-.31-3.07 3.7-2.46 2.96.21l-.48.52c-1.33 3.73-.99 7.98-1.92 11.88 3.91.67 3.6-4.51 4.53-7.03-.22-.39-.68-1.18-.9-1.57 1.48-1.91 1.91-5.34 5.03-4.94-.21.91-.61 2.73-.82 3.64l2.42.68c-.93.47-1.87.94-2.82 1.38-.62 2.72-1.14 5.47-1.45 8.25l3.01-1.2c.68-2.94 1.05-6.45 3.85-8.24 1.53-1.14 4.53-1.6 5.53.42 1.38 1.57-1.23 2.81-2.24 3.5.06-.81.16-2.42.21-3.23-3.41.71-4.48 4.57-3.82 7.58 2 2.23 4.9.38 6.81-.98.6-3.29 1.33-6.55 2.09-9.81-.29-.55-.87-1.63-1.16-2.17 1.43-.41 2.86-.8 4.32-1.05-.1 2.38-.69 4.7-1.32 6.99 1.55-1.24 3.87-3.05 5.48-.79.26 3.03-.84 5.96-1.18 8.94.7-.35 2.09-1.07 2.78-1.43-.12 1.84-1.13 2.97-3.02 3.37h-1.33c-2.86-2.55.08-6.54-.03-9.69-4.64.93-3.32 6.49-5.35 9.69h-1.92l.2-1.95c-1.75.08-3.32.91-4.68 1.95h-1.57c-1.09-.59-2.14-1.26-3.19-1.92-1.2.65-2.4 1.32-3.63 1.92h-2.01c-.08-.5-.25-1.5-.33-2-1.39.04-2.39 1.12-3.33 2h-2.2c-2.27-3.21.77-7.22.39-10.82-2.23 3.65-2.83 8.49-6.86 10.82h-1.54c-.41-1.36-.81-2.73-1.18-4.1-1.02 1.46-2.09 2.9-3.41 4.1h-1.56c-2.31-3.44-.6-7.67-1.93-11.35 1.35-.41 2.7-.79 4.06-1.15-.32 3.45-1 7 .11 10.39 1.97-2.9 2.46-6.38 3.61-9.61.62-.22 1.88-.65 2.51-.87-.52 3.5-1.25 7.07-.12 10.54 3.17-2.86 4.25-7.28 2-11.02 1.62-2.67 3.15.83 4.15 2.17.75-.94 2.44-1.97 1.49-3.37l-.24-.65z"/><path d="M.52 13.98c-.14-3.02 4.89-5.43 5.76-1.72-1.49.03-3.76.78-3.29 2.74.61 1.78 2.68 2.57 3.81 3.99-3.07.73-6.83-1.64-6.28-5.01z"/></g></symbol><symbol id="techcrunch" viewBox="0 0 92 47"><g><path d="M0 0h45.89c.2 5.25.01 10.5.07 15.75-5.08-.02-10.16-.02-15.25-.01.02 10.42.07 20.84-.02 31.26H15.44c-.03-10.42-.06-20.83.02-31.25-5.16-.06-10.31.07-15.46-.1V0zM61.44 0H92v15.69c-10.21.1-20.43.03-30.64.03.06-5.24-.06-10.48.08-15.72zM46.01 15.74c5.1.03 10.21.03 15.32 0 .11 5.23-.03 10.47.07 15.7 10.2-.11 20.4-.08 30.6-.01V47H46.06c-.04-10.42.07-20.84-.05-31.26z"/></g><g><path d="M45.89 0h15.55c-.14 5.24-.02 10.48-.08 15.72 10.21 0 20.43.07 30.64-.03v15.74c-10.2-.07-20.4-.1-30.6.01-.1-5.23.04-10.47-.07-15.7-5.11.03-10.22.03-15.32 0 .12 10.42.01 20.84.05 31.26H30.69c.09-10.42.04-20.84.02-31.26 5.09-.01 10.17-.01 15.25.01-.06-5.25.13-10.5-.07-15.75zM0 15.65c5.15.17 10.3.04 15.46.1-.08 10.42-.05 20.83-.02 31.25H0V15.65z"/></g></symbol><symbol id="time" viewBox="0 0 87 68"><path d="M18.29 8.22C30.25-.27 46.65-2.06 60.08 3.92 69.89 8.03 78 15.96 82.27 25.71c5.47 11.76 4.97 26.03-1.07 37.49-1.03 1.9-1.99 4.15-4.26 4.8H9.41c-.56-.2-1.69-.59-2.25-.79C2.92 60.36.23 52.55 0 44.46v-2.95c.68-13.1 7.42-25.85 18.29-33.29m21.94-1.05c-3.65 1.78-4.53 7.3-1.32 9.91 3.11 3.35 9.27 1.41 10.14-3.01 1.49-4.83-4.47-9.5-8.82-6.9m-21.08 8.99c-4.32 1.62-5.09 8.35-1.05 10.71 3.71 2.98 9.71-.26 9.59-4.91.24-4.27-4.66-7.61-8.54-5.8m42.94.01c-3.93 1.71-5 7.59-1.52 10.29 3.11 3.05 8.83 1.29 9.93-2.86 1.73-4.76-3.9-9.57-8.41-7.43m-14.6 8.12c-2 6.21-3.38 12.62-5.14 18.91-4.41.63-8.33 4.19-8.53 8.78-.67 6.64 7.12 12.03 13.08 8.92 6.48-2.61 7.14-12.27 1.42-16.09 1.46-6.35 3.57-12.55 4.82-18.94.41-3.01-4.37-4.42-5.65-1.58M10.37 37.47c-4.33 1.28-5.72 7.59-2.15 10.43 3.14 3.13 9.06 1.31 10.02-2.99 1.51-4.49-3.49-9.1-7.87-7.44m61.09.15c-3.85 1.49-5.12 7.09-2.05 9.95 2.97 3.53 9.33 1.83 10.35-2.59 1.57-4.67-3.81-9.45-8.3-7.36z"/></symbol><symbol id="tw" viewBox="0 0 20 20"><path id="Forma_1" data-name="Forma 1" class="cls-1" d="M221 3732a10 10 0 1 0 10 10 10 10 0 0 0-10-10zm4.976 7.75l.007.32a7 7 0 0 1-10.78 5.9 5.69 5.69 0 0 0 .588.04 4.943 4.943 0 0 0 3.057-1.06 2.461 2.461 0 0 1-2.3-1.71 2.363 2.363 0 0 0 .464.05 2.311 2.311 0 0 0 .648-.09 2.465 2.465 0 0 1-1.975-2.41v-.03a2.467 2.467 0 0 0 1.115.3 2.449 2.449 0 0 1-1.095-2.04 2.424 2.424 0 0 1 .333-1.24 6.975 6.975 0 0 0 5.074 2.57 2.463 2.463 0 0 1 4.2-2.24 5.235 5.235 0 0 0 1.564-.6 2.464 2.464 0 0 1-1.083 1.36 4.814 4.814 0 0 0 1.414-.39 4.794 4.794 0 0 1-1.231 1.27z" transform="translate(-211 -3732)"/></symbol><symbol id="yahoo" viewBox="0 0 800 152"><g><path d="M751.81.06c13.84 1.68 27.76 2.68 41.59 4.58-10.4 30.04-16.14 61.38-23.91 92.14-5.62-.59-11.23-1.1-16.84-1.66 1.16-14.01.7-28.09.69-42.13-.37-17.65-.13-35.33-1.53-52.93zM0 9.51c11.98-.8 24.01.01 36.01-.11 23.59-.43 47.2-.89 70.77.26-.36 2.67-.73 5.34-1.12 8.01-11.01 1.46-22.18 1.25-33.14 3.05 14.68 21.81 31.62 41.96 47.1 63.18 9.33-9.21 20.15-16.72 29.88-25.49 5.08-4.68 10.67-9.19 13.76-15.54-9.49-1.87-19.1-3.14-28.71-4.15-.66-3.43-1.29-6.86-1.7-10.32 18.05-.57 36.1.21 54.15.13 12.64.13 25.29-.07 37.91.6-2.4 3.12-4.14 6.8-6.96 9.55-8.83 1.95-17.87 3.19-26.52 5.86-10.29 6-19.54 13.64-28.93 20.95-9.68 7.91-19.46 15.81-28.04 24.94-2.17 2.51-4.81 5.05-5.2 8.53-.9 5.62-.71 11.33-1.07 17-.48 8.01 1.13 15.93 2.27 23.82 11.17.67 22.36.15 33.53.68 0 3.52-.15 7.05-.38 10.56-18.19-.22-36.38-.15-54.57-.15-16.58.19-33.15.83-49.73.72.55-3.35 1.14-6.69 1.83-10.02 9.57-.42 19.6.76 28.75-2.64 4.03-1.56 3.59-6.48 3.6-10-.3-9.69.22-19.41-.6-29.08-.05-2.35-1.23-4.41-2.55-6.27C82.57 82.53 74.11 72 65.64 61.5c-9.78-11.85-19.6-23.7-30.35-34.69-1.74-1.63-3.42-3.68-5.93-4.01C19.7 21.11 9.88 20.43.24 18.61.17 16.64.06 14.66 0 12.69V9.51zM655.15 18.2c17.53-1.22 35.92-.8 52.22 6.48 13.08 5.92 24.76 16.9 27.86 31.37 3.02 8.98 2.56 19-1.69 27.52-6.2 12.94-18.33 21.99-31.2 27.67-17.88 7.88-37.97 9.53-57.22 7.27-12.37-1.46-24.27-6.04-34.57-13.01-8.08-5.39-16.18-11.82-20.04-21.03-3.81-9.38-5.04-20.35-1-29.87 4.62-11.24 14.38-19.49 24.87-25.11 12.59-6.61 26.65-10.08 40.77-11.29m-2.71 14.42c-12.16 2.28-24.61 7.47-32.27 17.59-7.1 9.27-7.63 22.31-3.28 32.87 3.55 8.57 11.08 14.95 19.53 18.46 13.88 5.75 29.49 5.74 44.09 3.14 11.01-1.96 22.18-7.08 28.4-16.79 5.23-7.11 5.98-16.34 5.61-24.88-.6-10.56-7.52-19.98-16.85-24.66-13.82-7.09-30.1-7.88-45.23-5.73zM384.32 21.27c20.15.27 40.3.86 60.45.39-.25 2.31-.53 4.62-.87 6.92-6.24.91-12.33 2.6-18.47 4.02-.63 5.5-.63 11.05-.31 16.58.86 14.58.77 29.19 1.43 43.77.15 5.87.68 11.76.08 17.62 5.2.96 10.48 1.32 15.73 1.9 1.78 2.66 1.13 5.89 1.08 8.88-9.81-.36-19.63 0-29.45-.01-9.63.06-19.25-.46-28.88-.27-.22-3.09-.41-6.18-.57-9.28 7.37-.64 14.78-1 22.13-1.96 1.13-9.58.29-19.24.08-28.85-18.29.42-36.55 1.51-54.82 2.48-5.1.31-10.22.38-15.28 1.11.06 8.4.18 16.85 1.81 25.12 7.91 1.08 15.9 1.45 23.83 2.37l-.21 10.13c-24.22-.15-48.45-.07-72.68.05.24-3.46.48-6.93.68-10.4 7.81-.76 15.63-1.45 23.43-2.39 1.11-21.88 1.05-43.83.18-65.72-7.93-.74-15.88-1.26-23.82-1.76-.31-2.63-.59-5.27-.86-7.9 13.97.07 27.94-.39 41.91-.34 10.82-.04 21.65.24 32.47-.07-.25 2.79-.54 5.58-.92 8.36-8.11.51-16.23 1.02-24.3 2.06-1.85 8.69-1.2 17.6-1.89 26.4 23.41-.25 46.83-.06 70.21-1.19.18-6.78.06-13.56.51-20.33.23-5.36.88-10.75.18-16.1-7.79-1.49-15.65-2.54-23.54-3.26.22-2.78.45-5.55.68-8.33zM501.56 36.74c17.08-1.76 35.19-1.63 51.06 5.72 6.68 3.19 12.56 7.92 17.64 13.26 4.22 4.42 6.09 10.43 7.15 16.31 2.58 11.33-.26 23.82-7.65 32.81-9.75 11.74-24.99 17.15-39.67 19.34-21.44 2.97-44.09.86-63.7-8.73-7.97-3.77-15.79-9.64-18.31-18.49-2.59-9.79-2.74-20.74 1.86-29.97 4.13-8.41 11.26-15.03 19.24-19.76 9.85-5.83 21.08-9.04 32.38-10.49m5.01 12.01c-11.15 1.74-22.74 5.69-30.44 14.34-9.71 10.96-7.44 29.15 2.87 38.94 8.72 8.36 21.22 11.29 32.98 11.44 10.44-.06 21.17-1.41 30.65-6.02 6.41-3.16 12.21-8.73 13.59-15.98.82-8.02 2.13-16.38-.5-24.23-2.2-7.28-8.14-13-15.15-15.72-10.76-4.2-22.69-4.14-34-2.77z"/><path d="M210.6 53.98c18.26 1.01 36.55.57 54.82.49-.56 2.15-1.09 4.31-1.59 6.47-4.45.67-8.84 1.66-13.14 2.94 6.71 17.81 14.26 35.29 21.69 52.82 2.71 5.88 5.14 11.95 8.67 17.4 5.96 1.78 12.16 3.15 18.35 4.07.17 2.86-.03 5.72-.35 8.56-19.21-.41-38.44-.19-57.66-.36.35-3.02.71-6.05 1.03-9.07 6.15-.75 12.24-1.83 18.35-2.83-4.44-9.87-8.92-19.71-13.67-29.44-8.74.31-17.49.39-26.21 1.21-1.15.21-2.61 0-3.29 1.18-4.09 5.02-7.84 10.69-8.67 17.26 4.64.96 9.29 1.85 13.97 2.61-.47 3.12-.96 6.25-1.45 9.37-16.3.1-32.62-.31-48.9.51.98-3.26 2.01-6.51 2.96-9.78 5.58-1.19 11.07-2.69 16.58-4.17 6.1-9.88 11.25-20.29 16.76-30.5 4.76-9.4 9.85-18.64 14.22-28.22-4.02-1.18-7.89-2.83-11.98-3.79-.17-2.24-.33-4.48-.49-6.73m10.32 43.34c8.08.02 16.17.02 24.25 0-3.66-10.08-7.67-20.06-10.85-30.31-4.57 10.06-9.07 20.15-13.4 30.31zM748.66 111.04c7.22 1.03 14.48 1.77 21.78 1.91-.92 6.4-1.93 12.78-2.81 19.18-6.28-.29-12.54-.93-18.81-1.4-.18-6.56-.06-13.13-.16-19.69zM781.3 125.73c-1.96-5.38 1.93-11.79 7.62-12.46 5.03-.96 9.71 2.75 11.08 7.46v3.58c-.86 2.96-2.61 5.85-5.55 7.1-4.95 2.46-11.59-.35-13.15-5.68m5.86-10.51c-5.18 2.23-6.21 9.96-2.04 13.63 2.46 2.53 6.19 2.15 9.33 1.46-1.95-2.3-2.53-6.45-5.87-7.01-.1 1.82-.18 3.63-.29 5.45l-1.37-.75c-.4-3.57-.02-7.18-.22-10.77 2.72.05 7.8-1.2 8.17 2.78.36 1.97-1.5 2.88-2.88 3.69.89 1.17 1.79 2.36 2.73 3.51.02.7.05 2.11.07 2.81 2.28-2.36 4.15-5.58 3.33-8.98-.72-4.88-6.51-8.03-10.96-5.82m1.28 3.16c.03 1.31.07 2.63.13 3.94 1.64-.48 4.63.3 4.7-2.21-.51-2.23-3.22-1.41-4.83-1.73z"/></g></symbol></svg>