<?xml version="1.0" encoding="UTF-8" standalone="no"?>
<svg
   xmlns:dc="http://purl.org/dc/elements/1.1/"
   xmlns:cc="http://creativecommons.org/ns#"
   xmlns:rdf="http://www.w3.org/1999/02/22-rdf-syntax-ns#"
   xmlns:svg="http://www.w3.org/2000/svg"
   xmlns="http://www.w3.org/2000/svg"
   xmlns:xlink="http://www.w3.org/1999/xlink"
   enable-background="new"
   style="enable-background:new"
   xml:space="preserve"
   viewBox="0 0 25.082878 417.88289"
   height="417.8829"
   width="25.082878"
   y="0px"
   x="0px"
   id="Слой_1"
   version="1.1"><metadata
     id="metadata37"><rdf:RDF><cc:Work
         rdf:about=""><dc:format>image/svg+xml</dc:format><dc:type
           rdf:resource="http://purl.org/dc/dcmitype/StillImage" /><dc:title></dc:title></cc:Work></rdf:RDF></metadata><defs
     id="defs35"><filter
       id="filter7540"
       style="color-interpolation-filters:sRGB"><feBlend
         id="feBlend7542"
         in2="BackgroundImage"
         mode="overlay" /></filter></defs><style
     id="style2"
     type="text/css">
	.st0{clip-path:url(#SVGID_2_);fill:#FFFFFF;}
	.st1{clip-path:url(#SVGID_2_);fill:none;stroke:#FFFFFF;stroke-miterlimit:10;}
</style><g
     transform="translate(2.04144,2.3414399)"
     style="fill:#ffffff;stroke:#ffffff;filter:url(#filter7540)"
     id="g4512"><g
       style="fill:#ffffff;stroke:#ffffff"
       id="g30"
       transform="translate(-196,196)"><defs
         id="defs5"><rect
           id="SVGID_1_"
           x="196"
           y="-196"
           width="21.1"
           height="413.20001" /></defs><clipPath
         id="SVGID_2_"><use
           xlink:href="#SVGID_1_"
           style="overflow:visible"
           id="use7"
           x="0"
           y="0"
           width="100%"
           height="100%" /></clipPath><path
         class="st0"
         d="m 196.7,9 c 0,0 1,1.9 2.7,5.3 0.8,1.7 1.9,3.7 3,6.1 1.1,2.4 2.5,5 4,7.8 1.5,2.9 3.1,6 4.5,9.5 1.4,3.5 2.6,7.3 3.2,11.4 0.6,4.1 0.4,8.3 -0.3,12.6 -0.4,2.1 -0.9,4.3 -2.2,6.2 -0.6,0.9 -1.5,1.8 -2.5,2.3 -0.5,0.3 -1.1,0.5 -1.6,0.6 -0.3,0.1 -0.5,0.1 -0.8,0.2 -0.3,0 -0.6,0 -0.9,0 -2.4,-0.1 -4.6,-1.5 -6,-3.3 -1.4,-1.9 -2.1,-4.2 -2.5,-6.3 -0.2,-1.1 -0.2,-2.2 -0.3,-3.3 v -1.6 -1.6 c 0.1,-2.1 0.3,-4.2 0.6,-6.3 0.6,-4.1 1.7,-7.9 3.1,-11.4 1.3,-3.5 2.8,-6.7 4.4,-9.6 1.6,-2.9 3.1,-5.4 4.5,-7.7 1.4,-2.2 2.6,-4.2 3.6,-5.8 1,-1.6 1.8,-2.9 2.3,-3.7 0.5,-0.9 0.8,-1.3 0.8,-1.3 0,-0.1 0.1,-0.1 0.2,0 0,0 0.1,0.1 0,0.1 0,0 -0.8,2 -2.5,5.4 -0.8,1.7 -1.9,3.7 -3.1,6.1 -1.2,2.3 -2.6,4.9 -4,7.8 -1.4,2.9 -2.8,6.1 -4,9.5 -1.2,3.4 -2.3,7.1 -3,11 -0.4,1.9 -0.6,3.9 -0.8,6 l -0.1,1.5 v 1.6 c 0,1 0,2 0.1,3 0.2,2 0.7,4 1.8,5.6 1.1,1.6 2.8,2.9 4.8,3.1 0.2,0 0.5,0 0.7,0 0.2,0 0.6,0 0.8,-0.1 0.5,-0.1 1,-0.2 1.4,-0.4 0.9,-0.4 1.7,-1 2.3,-1.9 1.2,-1.7 1.8,-3.8 2.1,-5.8 0.2,-1 0.3,-2.1 0.4,-3.1 0,-1.1 0.1,-2.1 0.1,-3.1 -0.1,-2.1 -0.4,-4.1 -0.8,-6 -0.8,-3.9 -2.3,-7.5 -3.8,-10.8 -1.5,-3.3 -3,-6.5 -4.4,-9.4 -1.4,-2.9 -2.6,-5.6 -3.6,-8.1 -1,-2.4 -1.8,-4.6 -2.5,-6.3 -1.4,-3.5 -2.1,-5.6 -2.1,-5.6 0,-0.1 0,-0.1 0.1,-0.1 0.3,-0.2 0.3,-0.2 0.3,-0.1"
         clip-path="url(#SVGID_2_)"
         id="path10"
         style="fill:#ffffff;stroke:#ffffff" /><path
         class="st1"
         d="m 196.7,9 c 0,0 1,1.9 2.7,5.3 0.8,1.7 1.9,3.7 3,6.1 1.1,2.4 2.5,5 4,7.8 1.5,2.9 3.1,6 4.5,9.5 1.4,3.5 2.6,7.3 3.2,11.4 0.6,4.1 0.4,8.3 -0.3,12.6 -0.4,2.1 -0.9,4.3 -2.2,6.2 -0.6,0.9 -1.5,1.8 -2.5,2.3 -0.5,0.3 -1.1,0.5 -1.6,0.6 -0.3,0.1 -0.5,0.1 -0.8,0.2 -0.3,0 -0.6,0 -0.9,0 -2.4,-0.1 -4.6,-1.5 -6,-3.3 -1.4,-1.9 -2.1,-4.2 -2.5,-6.3 -0.2,-1.1 -0.2,-2.2 -0.3,-3.3 v -1.6 -1.6 c 0.1,-2.1 0.3,-4.2 0.6,-6.3 0.6,-4.1 1.7,-7.9 3.1,-11.4 1.3,-3.5 2.8,-6.7 4.4,-9.6 1.6,-2.9 3.1,-5.4 4.5,-7.7 1.4,-2.2 2.6,-4.2 3.6,-5.8 1,-1.6 1.8,-2.9 2.3,-3.7 0.5,-0.9 0.8,-1.3 0.8,-1.3 0,-0.1 0.1,-0.1 0.2,0 0,0 0.1,0.1 0,0.1 0,0 -0.8,2 -2.5,5.4 -0.8,1.7 -1.9,3.7 -3.1,6.1 -1.2,2.3 -2.6,4.9 -4,7.8 -1.4,2.9 -2.8,6.1 -4,9.5 -1.2,3.4 -2.3,7.1 -3,11 -0.4,1.9 -0.6,3.9 -0.8,6 l -0.1,1.5 v 1.6 c 0,1 0,2 0.1,3 0.2,2 0.7,4 1.8,5.6 1.1,1.6 2.8,2.9 4.8,3.1 0.2,0 0.5,0 0.7,0 0.2,0 0.6,0 0.8,-0.1 0.5,-0.1 1,-0.2 1.4,-0.4 0.9,-0.4 1.7,-1 2.3,-1.9 1.2,-1.7 1.8,-3.8 2.1,-5.8 0.2,-1 0.3,-2.1 0.4,-3.1 0,-1.1 0.1,-2.1 0.1,-3.1 -0.1,-2.1 -0.4,-4.1 -0.8,-6 -0.8,-3.9 -2.3,-7.5 -3.8,-10.8 -1.5,-3.3 -3,-6.5 -4.4,-9.4 -1.4,-2.9 -2.6,-5.6 -3.6,-8.1 -1,-2.4 -1.8,-4.6 -2.5,-6.3 -1.4,-3.5 -2.1,-5.6 -2.1,-5.6 0,-0.1 0,-0.1 0.1,-0.1 0.3,-0.2 0.3,-0.2 0.3,-0.1 z"
         clip-path="url(#SVGID_2_)"
         id="path12"
         style="fill:#ffffff;stroke:#ffffff;stroke-miterlimit:10" /><path
         class="st0"
         d="m 196.5,9 c 0,0 0.7,-2 2.1,-5.6 0.7,-1.8 1.5,-3.9 2.5,-6.3 1,-2.5 2.2,-5.2 3.6,-8.1 1.4,-2.9 2.9,-6.1 4.4,-9.4 1.5,-3.3 2.9,-6.9 3.8,-10.8 0.4,-1.9 0.7,-4 0.8,-6 0,-1 0,-2.1 -0.1,-3.1 -0.1,-1 -0.2,-2.1 -0.4,-3.1 -0.4,-2.1 -0.9,-4.1 -2.1,-5.8 -0.6,-0.8 -1.4,-1.5 -2.3,-1.9 -0.4,-0.2 -0.9,-0.3 -1.4,-0.4 -0.2,0 -0.5,-0.1 -0.8,-0.1 -0.2,0 -0.5,0 -0.7,0 -1.9,0.2 -3.7,1.5 -4.8,3.1 -1.1,1.6 -1.6,3.6 -1.8,5.6 -0.1,1 -0.1,2 -0.1,3 v 1.6 l 0.1,1.5 c 0.1,2 0.4,4 0.8,6 0.7,3.9 1.8,7.6 3,11 1.2,3.4 2.6,6.6 4,9.5 1.4,2.9 2.8,5.5 4,7.8 1.2,2.3 2.3,4.4 3.1,6.1 1.7,3.4 2.5,5.4 2.5,5.4 0,0.1 0,0.1 -0.1,0.2 -0.1,0 -0.1,0 -0.1,0 0,0 -0.3,-0.5 -0.8,-1.3 -0.5,-0.9 -1.3,-2.1 -2.3,-3.7 -1,-1.6 -2.2,-3.5 -3.6,-5.8 -1.4,-2.2 -2.9,-4.8 -4.5,-7.7 -1.6,-2.9 -3.1,-6.1 -4.4,-9.6 -1.3,-3.5 -2.4,-7.4 -3.1,-11.4 -0.3,-2 -0.5,-4.1 -0.6,-6.3 v -1.6 -1.6 c 0,-1.1 0.1,-2.2 0.3,-3.3 0.3,-2.2 1,-4.5 2.5,-6.3 1.5,-1.8 3.6,-3.2 6,-3.3 0.3,0 0.6,0 0.9,0 0.3,0 0.5,0.1 0.8,0.2 0.6,0.1 1.1,0.3 1.6,0.6 1,0.5 1.9,1.4 2.5,2.3 1.2,1.9 1.8,4 2.2,6.2 0.7,4.2 0.8,8.5 0.3,12.6 -0.6,4.1 -1.8,7.9 -3.2,11.4 -1.5,3.5 -3.1,6.6 -4.5,9.5 -1.5,2.9 -2.8,5.5 -4,7.8 -1.1,2.4 -2.1,4.4 -3,6.1 -1.7,3.4 -2.7,5.3 -2.7,5.3 0,0.1 -0.1,0.1 -0.2,0 C 196.5,9.1 196.5,9 196.5,9"
         clip-path="url(#SVGID_2_)"
         id="path14"
         style="fill:#ffffff;stroke:#ffffff" /><path
         class="st1"
         d="m 196.5,9 c 0,0 0.7,-2 2.1,-5.6 0.7,-1.8 1.5,-3.9 2.5,-6.3 1,-2.5 2.2,-5.2 3.6,-8.1 1.4,-2.9 2.9,-6.1 4.4,-9.4 1.5,-3.3 2.9,-6.9 3.8,-10.8 0.4,-1.9 0.7,-4 0.8,-6 0,-1 0,-2.1 -0.1,-3.1 -0.1,-1 -0.2,-2.1 -0.4,-3.1 -0.4,-2.1 -0.9,-4.1 -2.1,-5.8 -0.6,-0.8 -1.4,-1.5 -2.3,-1.9 -0.4,-0.2 -0.9,-0.3 -1.4,-0.4 -0.2,0 -0.5,-0.1 -0.8,-0.1 -0.2,0 -0.5,0 -0.7,0 -1.9,0.2 -3.7,1.5 -4.8,3.1 -1.1,1.6 -1.6,3.6 -1.8,5.6 -0.1,1 -0.1,2 -0.1,3 v 1.6 l 0.1,1.5 c 0.1,2 0.4,4 0.8,6 0.7,3.9 1.8,7.6 3,11 1.2,3.4 2.6,6.6 4,9.5 1.4,2.9 2.8,5.5 4,7.8 1.2,2.3 2.3,4.4 3.1,6.1 1.7,3.4 2.5,5.4 2.5,5.4 0,0.1 0,0.1 -0.1,0.2 -0.1,0 -0.1,0 -0.1,0 0,0 -0.3,-0.5 -0.8,-1.3 -0.5,-0.9 -1.3,-2.1 -2.3,-3.7 -1,-1.6 -2.2,-3.5 -3.6,-5.8 -1.4,-2.2 -2.9,-4.8 -4.5,-7.7 -1.6,-2.9 -3.1,-6.1 -4.4,-9.6 -1.3,-3.5 -2.4,-7.4 -3.1,-11.4 -0.3,-2 -0.5,-4.1 -0.6,-6.3 v -1.6 -1.6 c 0,-1.1 0.1,-2.2 0.3,-3.3 0.3,-2.2 1,-4.5 2.5,-6.3 1.5,-1.8 3.6,-3.2 6,-3.3 0.3,0 0.6,0 0.9,0 0.3,0 0.5,0.1 0.8,0.2 0.6,0.1 1.1,0.3 1.6,0.6 1,0.5 1.9,1.4 2.5,2.3 1.2,1.9 1.8,4 2.2,6.2 0.7,4.2 0.8,8.5 0.3,12.6 -0.6,4.1 -1.8,7.9 -3.2,11.4 -1.5,3.5 -3.1,6.6 -4.5,9.5 -1.5,2.9 -2.8,5.5 -4,7.8 -1.1,2.4 -2.1,4.4 -3,6.1 -1.7,3.4 -2.7,5.3 -2.7,5.3 0,0.1 -0.1,0.1 -0.2,0 C 196.5,9.1 196.5,9 196.5,9 Z"
         clip-path="url(#SVGID_2_)"
         id="path16"
         style="fill:#ffffff;stroke:#ffffff;stroke-miterlimit:10" /><path
         class="st0"
         d="m 206.4,6.3 c 1.5,0 2.7,1.2 2.7,2.7 0,1.5 -1.2,2.7 -2.7,2.7 -1.5,0 -2.7,-1.2 -2.7,-2.7 0,-1.5 1.2,-2.7 2.7,-2.7"
         clip-path="url(#SVGID_2_)"
         id="path18"
         style="fill:#ffffff;stroke:#ffffff" /><circle
         class="st1"
         cx="206.39999"
         cy="9"
         r="2.7"
         clip-path="url(#SVGID_2_)"
         id="circle20"
         style="fill:#ffffff;stroke:#ffffff;stroke-miterlimit:10" /><polygon
         class="st0"
         points="204.5,73.3 207.2,73.3 205.8,217.2 "
         clip-path="url(#SVGID_2_)"
         id="polygon22"
         style="fill:#ffffff;stroke:#ffffff" /><polygon
         class="st1"
         points="204.5,73.3 207.2,73.3 205.8,217.2 "
         clip-path="url(#SVGID_2_)"
         id="polygon24"
         style="fill:#ffffff;stroke:#ffffff;stroke-miterlimit:10" /><polygon
         class="st0"
         points="207.2,-55.2 204.5,-55.2 205.8,-196 "
         clip-path="url(#SVGID_2_)"
         id="polygon26"
         style="fill:#ffffff;stroke:#ffffff" /><polyline
         class="st1"
         points="205.8,-196 207.2,-55.2 204.5,-55.2 205.8,-196  "
         clip-path="url(#SVGID_2_)"
         id="polyline28"
         style="fill:#ffffff;stroke:#ffffff;stroke-miterlimit:10" /></g></g></svg>